<svg width="231" height="231" viewBox="0 0 231 231" fill="none" xmlns="http://www.w3.org/2000/svg">
<g clip-path="url(#clip0_38_151)">
<path d="M231 115.5C231.021 131.135 227.856 146.611 221.699 160.982L221.316 161.864C210.9 185.558 192.841 205.076 170.024 217.295C147.208 229.515 120.953 233.73 95.4584 229.267C94.7647 229.144 94.0721 229.017 93.3807 228.885C86.2366 227.5 79.2407 225.437 72.4882 222.724C71.3913 222.283 70.3024 221.826 69.2214 221.353C68.4833 221.032 67.7452 220.701 67.0139 220.359C47.0096 211.088 30.0728 196.291 18.1996 177.712C6.32636 159.134 0.0117436 137.548 0 115.5C0 51.7119 51.7119 0 115.5 0C179.288 0 231 51.7119 231 115.5Z" fill="#61DAFB"/>
<path opacity="0.2" d="M95.4583 229.267C94.7647 229.144 94.0721 229.017 93.3807 228.885C92.9297 215.794 91.3817 188.925 86.1022 160.784C83.2147 145.383 79.2063 129.596 73.6466 115.483C71.7419 110.6 69.5664 105.826 67.1301 101.185C61.5123 90.5752 54.6985 81.6428 46.4358 75.591L47.6523 73.9302C54.5242 78.9671 60.7002 86.0384 66.1801 95.144C67.8238 97.8709 69.4025 100.78 70.9163 103.871C72.5395 107.179 74.0875 110.691 75.5603 114.406C76.5 116.771 77.4078 119.218 78.2837 121.747C82.0973 132.726 85.339 145.253 88.009 159.328C88.6001 162.438 89.1628 165.624 89.697 168.886C93.8352 194.163 95.0825 217.533 95.4583 229.267Z" fill="black"/>
<path opacity="0.2" d="M69.2215 221.353C68.4834 221.032 67.7452 220.701 67.014 220.359C66.2998 212.602 64.9876 202.979 62.5888 193.845C61.5381 189.743 60.1893 185.723 58.5531 181.817C55.8159 175.41 52.2724 169.963 47.6899 166.604L48.9064 164.946C53.7041 168.459 57.4049 174.012 60.2651 180.508C63.4875 187.828 65.6369 196.347 67.0687 204.486C68.1314 210.531 68.8012 216.371 69.2215 221.353Z" fill="black"/>
<path opacity="0.2" d="M34.9446 75.5432C40.623 75.5432 45.2263 70.9399 45.2263 65.2615C45.2263 59.583 40.623 54.9797 34.9446 54.9797C29.2661 54.9797 24.6628 59.583 24.6628 65.2615C24.6628 70.9399 29.2661 75.5432 34.9446 75.5432Z" fill="black"/>
<path opacity="0.2" d="M38.2556 164.051C43.9341 164.051 48.5374 159.448 48.5374 153.769C48.5374 148.091 43.9341 143.487 38.2556 143.487C32.5772 143.487 27.9739 148.091 27.9739 153.769C27.9739 159.448 32.5772 164.051 38.2556 164.051Z" fill="black"/>
<path opacity="0.2" d="M75.7633 82.5317C73.583 94.8326 78.3961 105.971 78.3961 105.971C78.3961 105.971 86.7441 97.1654 88.9244 84.8645C91.1048 72.5637 86.2917 61.4254 86.2917 61.4254C86.2917 61.4254 77.9436 70.2309 75.7633 82.5317Z" fill="black"/>
<path opacity="0.2" d="M41.5928 111.731C53.3256 116.022 65.1154 113.268 65.1154 113.268C65.1154 113.268 57.8826 103.559 46.1498 99.269C34.417 94.9787 22.6272 97.7319 22.6272 97.7319C22.6272 97.7319 29.86 107.441 41.5928 111.731Z" fill="black"/>
<path opacity="0.2" d="M39.6032 190.108C47.827 193.115 56.1023 191.153 56.1023 191.153C56.1023 191.153 51.0444 184.316 42.8207 181.309C34.5969 178.302 26.3215 180.264 26.3215 180.264C26.3215 180.264 31.3795 187.101 39.6032 190.108Z" fill="black"/>
<path d="M127.234 34.4351C129.156 33.9437 131.176 33.9866 133.027 34.558C134.873 35.2838 136.242 36.8886 137.61 38.365C142.855 44.086 149.399 48.7152 156.828 51.9592C162.23 54.2755 169.085 57.1424 169.304 63.1524C169.214 65.1663 168.748 67.1647 167.928 69.0636C164.911 77.9425 153.855 86.3618 156.699 95.3708C151.079 89.5025 156.418 85.1511 150.798 79.2828C148.121 76.4882 143.816 73.5628 140.985 76.1233C140.038 76.9807 139.551 78.3019 138.544 79.0853C136.143 80.9548 132.847 78.789 130.163 77.3173C120.909 72.2422 109.709 76.0045 100.004 79.8335C95.4224 81.6412 90.4266 83.8315 88.3451 88.4111C85.6084 94.4322 93.8461 98.9365 96.7486 104.673C96.9894 105.163 97.093 105.703 97.0506 106.247C97.0083 106.79 96.8211 107.322 96.5051 107.795C96.1892 108.268 95.7539 108.669 95.2364 108.965C94.719 109.26 94.1348 109.44 93.5338 109.489C90.4653 109.761 86.8476 110.181 86.4564 109.023C82.6775 109.823 77.9516 110.268 75.6888 107.006C74.9401 105.689 74.4156 104.272 74.1324 102.801C72.4691 96.9398 68.6755 91.9993 65.7922 86.6532C62.9089 81.3071 60.9077 74.7958 63.1628 69.1968C63.9893 67.3203 65.1103 65.5527 66.4903 63.95C81.6135 45.2034 104.69 38.4366 127.234 34.4351Z" fill="#2F2E41"/>
<path d="M119.5 138C141.868 138 160 117.853 160 93C160 68.1472 141.868 48 119.5 48C97.1325 48 79 68.1472 79 93C79 117.853 97.1325 138 119.5 138Z" fill="#FFB8B8"/>
<path d="M97.6738 130.524C97.6738 130.524 103.302 157.259 103.302 160.073C103.302 162.887 130.038 175.552 130.038 175.552L153.959 171.33L162.402 146.002C162.402 146.002 148.33 124.895 148.33 116.452L97.6738 130.524Z" fill="#FFB8B8"/>
<path d="M221.698 160.982L221.316 161.864C210.9 185.558 192.841 205.076 170.024 217.295C147.208 229.515 120.953 233.73 95.4582 229.267C94.7645 229.144 94.072 229.017 93.3806 228.885C86.2364 227.5 79.2406 225.437 72.4881 222.724C71.3912 222.283 70.3022 221.826 69.2213 221.353C68.4832 221.032 67.7451 220.701 67.0138 220.359C60.3855 217.288 54.0638 213.595 48.134 209.328L42.7964 193.845L45.7967 191.556L51.968 186.843L58.5529 181.817L60.2649 180.508L86.102 160.784L88.0088 159.329L101.438 149.077L101.442 149.074C101.442 149.074 115.965 172.737 137.072 165.702C158.18 158.666 157.719 138.491 157.719 138.491L221.698 160.982Z" fill="#2F2E41"/>
<path d="M72.4882 222.724C71.3913 222.283 70.3024 221.826 69.2214 221.353C68.4833 221.032 67.7452 220.701 67.0139 220.359C56.0514 215.276 45.9521 208.507 37.083 200.3C40.2234 196.022 42.7965 193.845 42.7965 193.845H63.9043L67.0686 204.486L72.4882 222.724Z" fill="#2F2E41"/>
<path d="M203.208 158.666L221.316 161.864C216.47 172.903 209.925 183.115 201.92 192.13L203.208 158.666Z" fill="#2F2E41"/>
<path d="M123.422 43.8064C125.144 43.3913 126.936 43.3536 128.614 43.6974C130.179 44.2815 131.539 45.1555 132.595 46.2556C137.269 50.2438 142.983 53.3224 149.371 55.2938C154.138 56.7615 160.189 58.5725 160.182 62.8493C160.024 64.3109 159.538 65.7557 158.747 67.1098C155.735 73.6019 155.319 80.5679 157.56 86.9537L143.034 74.9764C140.728 73.0751 136.966 71.1359 134.34 73.0573C133.461 73.7006 132.98 74.659 132.051 75.2517C129.833 76.6659 126.95 75.2339 124.593 74.2759C116.465 70.9723 106.291 74.0346 97.4561 77.0936C93.2853 78.5378 88.73 80.2688 86.7075 83.604C83.3465 89.1466 88.9848 95.2812 87.5121 101.254C86.7536 100.987 86.0797 100.593 85.5302 100.096C84.9808 99.599 84.5671 99.0091 84.3136 98.3612C80.8969 99.0598 76.6429 99.5376 74.724 97.2892C74.101 96.385 73.6773 95.3893 73.4708 94.3444C72.1779 90.2228 68.943 86.8297 66.5384 83.1166C64.1337 79.4035 62.5597 74.8298 64.7726 70.762C65.5993 69.3699 66.6651 68.0714 67.9353 66.9088C82.1367 53.0317 103.065 47.4244 123.422 43.8064Z" fill="#2F2E41"/>
</g>
<defs>
<clipPath id="clip0_38_151">
<rect width="231" height="231" fill="white"/>
</clipPath>
</defs>
</svg>
