<svg width="654" height="430" viewBox="0 0 654 430" fill="none" xmlns="http://www.w3.org/2000/svg">
<g filter="url(#filter0_d_38_167)">
<path d="M650 12.7885H245.249V234.136H650V12.7885Z" fill="#E6E6E6"/>
<path d="M638.427 31.7694H256.822V216.446H638.427V31.7694Z" fill="white"/>
<path d="M649.828 0H245.076V19.8169H649.828V0Z" fill="#61DAFB"/>
<path d="M257.854 12.8392C259.614 12.8392 261.041 11.1948 261.041 9.16625C261.041 7.13771 259.614 5.49326 257.854 5.49326C256.094 5.49326 254.667 7.13771 254.667 9.16625C254.667 11.1948 256.094 12.8392 257.854 12.8392Z" fill="white"/>
<path d="M269.951 12.8392C271.711 12.8392 273.138 11.1948 273.138 9.16625C273.138 7.13771 271.711 5.49326 269.951 5.49326C268.191 5.49326 266.764 7.13771 266.764 9.16625C266.764 11.1948 268.191 12.8392 269.951 12.8392Z" fill="white"/>
<path d="M282.048 12.8392C283.809 12.8392 285.235 11.1948 285.235 9.16625C285.235 7.13771 283.809 5.49326 282.048 5.49326C280.288 5.49326 278.861 7.13771 278.861 9.16625C278.861 11.1948 280.288 12.8392 282.048 12.8392Z" fill="white"/>
<path d="M427.504 75.5967C427.094 75.5967 426.702 75.7842 426.412 76.1179C426.123 76.4516 425.96 76.9042 425.96 77.3762C425.96 77.8481 426.123 78.3007 426.412 78.6344C426.702 78.9681 427.094 79.1556 427.504 79.1556H512.226C512.636 79.1556 513.028 78.9681 513.318 78.6344C513.608 78.3007 513.77 77.8481 513.77 77.3762C513.77 76.9042 513.608 76.4516 513.318 76.1179C513.028 75.7842 512.636 75.5967 512.226 75.5967H427.504Z" fill="#E6E6E6"/>
<path d="M427.504 86.2743C427.095 86.2753 426.703 86.4632 426.414 86.7968C426.125 87.1304 425.963 87.5824 425.963 88.0537C425.963 88.525 426.125 88.977 426.414 89.3106C426.703 89.6442 427.095 89.8321 427.504 89.8331H470.756C471.165 89.8321 471.557 89.6442 471.846 89.3106C472.135 88.977 472.297 88.525 472.297 88.0537C472.297 87.5824 472.135 87.1304 471.846 86.7968C471.557 86.4632 471.165 86.2753 470.756 86.2743H427.504Z" fill="#E6E6E6"/>
<path d="M425.372 137.955C424.963 137.955 424.57 138.143 424.28 138.476C423.991 138.81 423.828 139.263 423.828 139.735C423.828 140.207 423.991 140.659 424.28 140.993C424.57 141.327 424.963 141.514 425.372 141.514H584.227C584.636 141.514 585.029 141.327 585.318 140.993C585.608 140.659 585.771 140.207 585.771 139.735C585.771 139.263 585.608 138.81 585.318 138.476C585.029 138.143 584.636 137.955 584.227 137.955H425.372Z" fill="#E6E6E6"/>
<path d="M425.372 148.633C424.963 148.634 424.571 148.822 424.282 149.155C423.994 149.489 423.831 149.941 423.831 150.412C423.831 150.883 423.994 151.336 424.282 151.669C424.571 152.003 424.963 152.191 425.372 152.192H542.757C543.166 152.191 543.558 152.003 543.846 151.669C544.135 151.336 544.297 150.883 544.297 150.412C544.297 149.941 544.135 149.489 543.846 149.155C543.558 148.822 543.166 148.634 542.757 148.633H425.372Z" fill="#E6E6E6"/>
<path d="M425.372 159.069C424.963 159.07 424.571 159.258 424.282 159.591C423.994 159.925 423.831 160.377 423.831 160.848C423.831 161.319 423.994 161.771 424.282 162.105C424.571 162.439 424.963 162.627 425.372 162.628H584.227C584.635 162.627 585.027 162.439 585.316 162.105C585.605 161.771 585.767 161.319 585.767 160.848C585.767 160.377 585.605 159.925 585.316 159.591C585.027 159.258 584.635 159.07 584.227 159.069H425.372Z" fill="#E6E6E6"/>
<path d="M425.372 169.746C424.963 169.747 424.571 169.935 424.282 170.269C423.994 170.602 423.831 171.054 423.831 171.526C423.831 171.997 423.994 172.449 424.282 172.783C424.571 173.116 424.963 173.304 425.372 173.305H542.757C543.166 173.304 543.558 173.116 543.846 172.783C544.135 172.449 544.297 171.997 544.297 171.526C544.297 171.054 544.135 170.602 543.846 170.269C543.558 169.935 543.166 169.747 542.757 169.746H425.372Z" fill="#E6E6E6"/>
<path d="M345.617 111.098C346.245 110.941 346.902 110.948 347.503 111.118C348.102 111.336 348.543 111.827 348.984 112.279C350.673 114.028 352.79 115.436 355.198 116.413C356.95 117.111 359.173 117.974 359.226 119.828C359.19 120.45 359.032 121.068 358.759 121.657C357.749 124.406 354.123 127.039 355.02 129.811C353.209 128.017 354.961 126.658 353.149 124.864C352.286 124.01 350.894 123.121 349.964 123.92C349.653 124.188 349.49 124.597 349.16 124.842C348.372 125.426 347.306 124.768 346.437 124.323C343.439 122.785 339.78 123.982 336.609 125.194C335.111 125.766 333.477 126.457 332.785 127.877C331.875 129.744 334.543 131.108 335.471 132.869C335.547 133.02 335.58 133.186 335.564 133.354C335.548 133.522 335.486 133.686 335.382 133.833C335.277 133.98 335.134 134.106 334.965 134.198C334.795 134.291 334.605 134.348 334.409 134.366C333.409 134.459 332.229 134.6 332.106 134.244C330.873 134.503 329.333 134.655 328.606 133.655C328.366 133.251 328.2 132.816 328.112 132.362C327.589 130.559 326.369 129.046 325.447 127.406C324.525 125.765 323.894 123.762 324.646 122.027C324.921 121.445 325.292 120.896 325.746 120.397C330.729 114.565 338.264 112.404 345.617 111.098Z" fill="#2F2E41"/>
<path d="M342.322 145.177C349.747 145.177 355.766 138.24 355.766 129.682C355.766 121.125 349.747 114.188 342.322 114.188C334.897 114.188 328.877 121.125 328.877 129.682C328.877 138.24 334.897 145.177 342.322 145.177Z" fill="#FFB8B8"/>
<path d="M342.86 111.892C343.426 111.753 344.017 111.746 344.571 111.872C345.089 112.082 345.541 112.392 345.893 112.78C347.447 114.189 349.341 115.284 351.454 115.995C353.03 116.524 355.031 117.178 355.044 118.671C354.997 119.181 354.842 119.683 354.586 120.153C353.617 122.408 353.505 124.838 354.266 127.075L349.436 122.842C348.669 122.17 347.423 121.48 346.564 122.141C346.277 122.363 346.121 122.695 345.817 122.899C345.092 123.385 344.136 122.874 343.356 122.532C340.665 121.349 337.324 122.381 334.423 123.417C333.054 123.907 331.559 124.494 330.904 125.651C329.816 127.574 331.697 129.736 331.233 131.815C330.982 131.719 330.758 131.579 330.575 131.404C330.393 131.228 330.254 131.021 330.168 130.794C329.045 131.025 327.644 131.177 327.004 130.385C326.795 130.067 326.652 129.718 326.58 129.353C326.139 127.909 325.061 126.713 324.255 125.409C323.45 124.104 322.914 122.502 323.629 121.09C323.896 120.607 324.243 120.157 324.657 119.756C329.288 114.963 336.165 113.081 342.86 111.892Z" fill="#2F2E41"/>
<path d="M334.695 179.773C332.099 179.534 329.526 179.047 327 178.316L327.142 175.227L328.319 150.658L328.33 150.469H352.013L355.729 173.091L356.231 176.143C355.25 176.583 354.258 176.998 353.245 177.362C353.233 177.362 353.233 177.374 353.223 177.374C351.817 177.877 350.389 178.316 348.95 178.681C347.037 179.156 345.101 179.5 343.152 179.711C341.646 179.883 340.132 179.967 338.619 179.962C337.31 179.962 335.992 179.899 334.695 179.773Z" fill="#61DAFB"/>
<path d="M319.469 175.402C318.488 174.913 317.54 174.385 316.603 173.832L316.199 173.594C315.927 173.43 315.644 173.254 315.371 173.079C315 172.84 314.641 172.601 314.292 172.363C313.954 172.137 313.606 171.898 313.268 171.659C313.246 171.647 313.235 171.634 313.213 171.634C312.036 170.768 310.881 169.876 309.769 168.909C309.584 168.745 309.399 168.582 309.213 168.419L309.017 164.801L309.3 164.6L328.319 150.658L328.58 150.469L328.602 150.457L331.283 150.469V161.975C332.798 164.5 333.823 169.788 334.455 176.709C334.542 177.701 334.618 178.718 334.695 179.773C332.099 179.534 329.526 179.047 327 178.316C326.728 178.254 326.466 178.178 326.194 178.09C324.605 177.611 323.041 177.033 321.507 176.357C321.038 176.156 320.581 175.942 320.123 175.729L320.079 175.704C319.883 175.603 319.665 175.503 319.469 175.402Z" fill="#2F2E41"/>
<path d="M315.371 173.079C315 172.84 314.641 172.601 314.292 172.363C313.954 172.137 313.606 171.898 313.268 171.659C313.246 171.647 313.235 171.634 313.213 171.634C312.036 170.768 310.881 169.876 309.769 168.909C309.584 168.745 309.399 168.582 309.213 168.419C309.126 168.331 309.039 168.255 308.941 168.167C308.244 167.552 307.568 166.911 306.914 166.233C306.881 166.208 306.859 166.17 306.826 166.145C307.487 165.56 308.227 165.106 309.017 164.801L309.791 165.065L315.306 166.974L315.338 169.549L315.371 173.079Z" fill="#2F2E41"/>
<path d="M361.811 173.116C361.484 173.317 361.157 173.518 360.83 173.707C360.754 173.757 360.689 173.795 360.623 173.832C360.187 174.084 359.762 174.335 359.326 174.573C359.315 174.586 359.293 174.586 359.293 174.598C359.272 174.611 359.239 174.624 359.217 174.636C358.237 175.176 357.245 175.679 356.231 176.143C355.25 176.583 354.258 176.998 353.245 177.362C353.234 177.362 353.234 177.374 353.223 177.374C351.817 177.877 350.389 178.316 348.95 178.681C348.934 177.649 349.052 176.62 349.299 175.628L349.31 175.453L350.248 157.968L348.994 150.469L352.591 149.854L372.372 162.126C372.372 162.126 370.192 164.638 361.244 169.989C360.453 170.462 361.615 172.036 361.811 173.116Z" fill="#2F2E41"/>
<path d="M342.913 176.696C341.495 176.847 340.057 176.922 338.618 176.922C337.223 176.922 335.839 176.859 334.455 176.709C334.542 177.701 334.618 178.718 334.695 179.773C335.992 179.899 337.31 179.962 338.618 179.962C340.132 179.967 341.646 179.883 343.152 179.711C345.101 179.5 347.037 179.156 348.95 178.681C348.934 177.649 349.052 176.62 349.299 175.628L349.31 175.453C347.206 176.043 345.068 176.458 342.913 176.696ZM384.098 106.206C381.795 98.5815 378.077 91.6278 373.203 85.8298C368.328 80.0317 362.415 75.5288 355.875 72.635C349.336 69.7413 342.327 68.5264 335.338 69.075C328.349 69.6236 321.548 71.9226 315.409 75.8116C309.271 79.7005 303.942 85.086 299.795 91.5922C295.647 98.0985 292.781 105.569 291.397 113.483C290.012 121.397 290.142 129.564 291.777 137.414C293.412 145.264 296.514 152.609 300.865 158.935C301.301 159.563 301.748 160.191 302.206 160.794C302.249 160.845 302.271 160.882 302.303 160.92C303.429 162.416 304.626 163.837 305.889 165.178C306.195 165.505 306.51 165.831 306.826 166.145C306.859 166.17 306.881 166.208 306.914 166.233C307.568 166.911 308.243 167.552 308.941 168.167C309.039 168.255 309.126 168.331 309.213 168.419C309.399 168.582 309.584 168.745 309.769 168.909C310.881 169.876 312.036 170.767 313.213 171.634C313.235 171.634 313.246 171.647 313.268 171.659C313.606 171.898 313.954 172.137 314.292 172.363C314.641 172.601 315.001 172.84 315.371 173.079C315.644 173.254 315.927 173.43 316.199 173.594L316.603 173.832C317.54 174.385 318.488 174.912 319.469 175.402C319.665 175.503 319.883 175.603 320.079 175.704L320.123 175.729C320.581 175.942 321.038 176.156 321.507 176.357C323.041 177.033 324.605 177.611 326.193 178.09C326.466 178.178 326.728 178.254 327 178.316C329.526 179.047 332.099 179.534 334.695 179.773C335.992 179.899 337.31 179.962 338.618 179.962C340.132 179.967 341.645 179.883 343.152 179.711C345.101 179.5 347.037 179.156 348.95 178.681C350.389 178.316 351.817 177.877 353.223 177.374C353.233 177.374 353.233 177.362 353.245 177.362C354.258 176.998 355.25 176.583 356.23 176.143C357.244 175.679 358.236 175.176 359.217 174.636C359.239 174.624 359.271 174.611 359.293 174.598C359.293 174.586 359.315 174.586 359.326 174.573C359.762 174.335 360.187 174.083 360.623 173.832C360.688 173.795 360.753 173.757 360.83 173.707C361.157 173.518 361.483 173.317 361.811 173.116C361.833 173.104 361.843 173.091 361.865 173.079C362.726 172.526 363.576 171.948 364.416 171.333C364.645 171.169 364.873 171.006 365.102 170.818C365.44 170.579 365.767 170.315 366.083 170.052C366.508 169.712 366.933 169.361 367.347 168.996C367.485 168.895 367.616 168.781 367.74 168.657C368.753 167.778 369.734 166.849 370.671 165.869C377.779 158.57 382.849 149.005 385.239 138.385C387.629 127.765 387.232 116.566 384.098 106.206L384.098 106.206ZM369.854 162.628C368.674 163.907 367.437 165.115 366.149 166.246C365.865 166.497 365.571 166.748 365.277 166.974C364.993 167.225 364.71 167.464 364.416 167.69C364.165 167.891 363.915 168.092 363.653 168.281C363.631 168.306 363.598 168.318 363.577 168.343C363.391 168.494 363.195 168.632 363.01 168.77C362.432 169.185 361.833 169.599 361.244 169.989C361.103 170.077 360.972 170.177 360.83 170.265C360.753 170.315 360.677 170.366 360.59 170.416C360.263 170.629 359.936 170.818 359.609 171.019C359.566 171.056 359.511 171.069 359.468 171.107C359.451 171.11 359.436 171.118 359.424 171.132C359.195 171.27 358.966 171.396 358.738 171.521C358.541 171.634 358.356 171.747 358.16 171.848C357.364 172.287 356.547 172.702 355.729 173.091C354.868 173.493 353.997 173.857 353.114 174.196C352.895 174.284 352.667 174.385 352.438 174.46C351.402 174.837 350.367 175.176 349.31 175.453C347.206 176.043 345.068 176.458 342.913 176.696C341.495 176.847 340.057 176.922 338.619 176.922C337.223 176.922 335.839 176.859 334.455 176.709C331.986 176.448 329.54 175.953 327.142 175.226C327.055 175.201 326.957 175.176 326.869 175.151C324.902 174.56 322.975 173.804 321.104 172.89C321.006 172.84 320.897 172.802 320.81 172.752C320.701 172.702 320.603 172.664 320.515 172.614C320.406 172.564 320.308 172.513 320.21 172.463C319.393 172.049 318.597 171.596 317.802 171.132L317.431 170.906C316.723 170.479 316.025 170.039 315.338 169.549C315.099 169.398 314.848 169.223 314.608 169.047C314.336 168.858 314.063 168.657 313.801 168.456C313.737 168.406 313.671 168.356 313.606 168.306C312.995 167.828 312.374 167.351 311.786 166.836C311.372 166.484 310.968 166.145 310.565 165.781C310.303 165.555 310.042 165.316 309.791 165.065C309.628 164.927 309.464 164.764 309.3 164.6C309.083 164.387 308.865 164.173 308.647 163.947C308.309 163.633 307.993 163.281 307.687 162.955C306.46 161.651 305.299 160.267 304.211 158.81C303.84 158.332 303.491 157.855 303.154 157.353C303.075 157.254 303.002 157.149 302.936 157.039C297.449 149.056 294.096 139.405 293.288 129.264C292.479 119.123 294.248 108.93 298.38 99.9281C302.513 90.9263 308.829 83.5051 316.558 78.5699C324.288 73.6346 333.097 71.3987 341.91 72.1348C350.723 72.871 359.16 76.5474 366.192 82.7156C373.223 88.8838 378.544 97.277 381.507 106.871C384.47 116.466 384.946 126.847 382.876 136.747C380.807 146.648 376.282 155.641 369.854 162.628L369.854 162.628Z" fill="#3F3D56"/>
<path d="M117.54 411.683L126.357 411.682L130.551 372.488L117.539 372.489L117.54 411.683Z" fill="#FFB8B8"/>
<path d="M115.291 408.365L132.655 408.365H132.656C135.59 408.365 138.405 409.709 140.48 412.1C142.555 414.492 143.721 417.735 143.721 421.117V421.532L115.292 421.533L115.291 408.365Z" fill="#2F2E41"/>
<path d="M150.622 411.683L159.439 411.682L163.634 372.488L150.621 372.489L150.622 411.683Z" fill="#FFB8B8"/>
<path d="M148.373 408.365L165.737 408.365H165.738C168.673 408.365 171.487 409.709 173.562 412.1C175.637 414.492 176.803 417.735 176.804 421.117V421.532L148.374 421.533L148.373 408.365Z" fill="#2F2E41"/>
<path d="M90.7869 256.808C91.5085 255.917 92.0519 254.855 92.3789 253.697C92.7058 252.538 92.8083 251.311 92.6792 250.101C92.5501 248.892 92.1924 247.73 91.6315 246.697C91.0705 245.664 90.3199 244.786 89.4325 244.123L95.5586 215.359L82.9784 220.525L79.0896 247.048C78.223 248.84 77.9568 250.936 78.3415 252.939C78.7262 254.942 79.7351 256.713 81.1769 257.916C82.6188 259.119 84.3934 259.67 86.1646 259.466C87.9358 259.262 89.5804 258.316 90.7869 256.808V256.808Z" fill="#FFB8B8"/>
<path d="M184.382 254.321C183.66 253.431 183.116 252.369 182.79 251.21C182.463 250.051 182.36 248.824 182.489 247.615C182.618 246.405 182.976 245.243 183.537 244.211C184.098 243.178 184.849 242.299 185.736 241.637L179.61 212.872L192.19 218.038L196.079 244.562C196.945 246.354 197.212 248.45 196.827 250.453C196.442 252.456 195.433 254.226 193.992 255.429C192.55 256.632 190.775 257.184 189.004 256.98C187.233 256.776 185.588 255.83 184.382 254.321V254.321Z" fill="#FFB8B8"/>
<path d="M102.387 236.645L114.608 401.638L132.49 399.759L139.647 272.242L146.017 322.733L147.293 402.937L163.475 401.693L172.46 315.411L170.256 231.85L108.826 224.68L102.387 236.645Z" fill="#2F2E41"/>
<path d="M141.306 40.9593C142.191 40.7369 143.119 40.7467 143.966 40.9872C144.811 41.2949 145.432 41.9872 146.054 42.6237C148.437 45.0903 151.421 47.0759 154.818 48.4548C157.289 49.439 160.424 50.6563 160.498 53.2709C160.447 54.1478 160.225 55.0195 159.84 55.8495C158.415 59.727 153.301 63.44 154.567 67.3482C152.012 64.8191 154.483 62.9018 151.928 60.3728C150.712 59.1684 148.748 57.9143 147.437 59.0412C146.998 59.4185 146.768 59.9956 146.303 60.3411C145.192 61.1653 143.688 60.2373 142.462 59.6087C138.235 57.441 133.075 59.1279 128.602 60.8372C126.49 61.6442 124.186 62.6195 123.21 64.6218C121.927 67.2543 125.69 69.1781 126.997 71.6619C127.105 71.8741 127.151 72.1086 127.129 72.3453C127.107 72.5821 127.019 72.8141 126.871 73.0215C126.724 73.2288 126.523 73.4054 126.284 73.5361C126.045 73.6668 125.776 73.7477 125.499 73.7719C124.089 73.9038 122.426 74.1025 122.252 73.6003C120.513 73.9652 118.341 74.1798 117.316 72.7702C116.978 72.2005 116.744 71.5861 116.62 70.9471C115.882 68.4037 114.162 66.2704 112.862 63.9565C111.561 61.6426 110.671 58.8178 111.732 56.3711C112.119 55.5508 112.642 54.7766 113.283 54.073C120.31 45.8475 130.937 42.8005 141.306 40.9593Z" fill="#2F2E41"/>
<path d="M136.006 86.5046C146.248 86.5046 154.55 76.9359 154.55 65.1323C154.55 53.3287 146.248 43.76 136.006 43.76C125.764 43.76 117.461 53.3287 117.461 65.1323C117.461 76.9359 125.764 86.5046 136.006 86.5046Z" fill="#FFB8B8"/>
<path d="M116.708 93.8052H149.367L172.46 234.356C172.46 234.356 152.327 236.34 140.821 241.313C129.314 246.286 110.185 229.953 110.185 229.953L116.708 93.8052Z" fill="#61DAFB"/>
<path d="M120.786 109.677V93.8052L117.088 93.7793L90.0703 113.576L95.9328 222.04C95.9328 222.04 102.871 258.226 113.396 257.85C123.92 257.475 132.035 128.476 120.786 109.677Z" fill="#2F2E41"/>
<path d="M98.7485 116.572L90.0703 113.576C90.0703 113.576 83.6458 115.744 83.6458 123.203C83.6458 130.663 78.1104 236.645 78.1104 236.645L95.6948 238.436L99.4677 184.537L98.7485 116.572Z" fill="#2F2E41"/>
<path d="M146.934 104.14L145.204 93.8052L150.17 92.9504L168.149 101.239C168.149 101.239 184.331 237.583 177.139 241.727C169.947 245.871 165.091 242.661 165.091 242.661C165.091 242.661 141.437 142.101 145.623 128.508L146.934 104.14Z" fill="#2F2E41"/>
<path d="M155.564 103.311L158.632 101.772C158.632 101.772 167.639 96.6282 172.748 107.015C177.858 117.401 195.838 233.439 195.838 233.439L181.044 236.645L169.984 194.885L155.564 103.311Z" fill="#2F2E41"/>
<path d="M137.419 42.0781C138.217 41.8825 139.05 41.873 139.831 42.0508C140.562 42.3462 141.198 42.7834 141.695 43.3303C143.887 45.3172 146.559 46.8617 149.537 47.8645C151.76 48.6112 154.582 49.5333 154.6 51.6386C154.534 52.3573 154.315 53.0661 153.955 53.7286C152.588 56.9091 152.43 60.3361 153.504 63.4909L146.692 57.5213C145.611 56.5737 143.852 55.6 142.642 56.5325C142.236 56.8448 142.017 57.3141 141.589 57.6011C140.565 58.286 139.218 57.5665 138.118 57.083C134.323 55.4155 129.61 56.8714 125.52 58.3324C123.589 59.0222 121.48 59.8512 120.557 61.4827C119.023 64.1941 121.675 67.2425 121.021 70.1751C120.667 70.0397 120.352 69.8425 120.094 69.5951C119.836 69.3477 119.64 69.0552 119.519 68.7349C117.935 69.0615 115.96 69.2752 115.057 68.1586C114.763 67.7103 114.561 67.2181 114.46 66.7026C113.838 64.6672 112.317 62.9805 111.181 61.1405C110.044 59.3005 109.29 57.0411 110.297 55.0498C110.675 54.3688 111.163 53.735 111.748 53.1691C118.278 46.41 127.976 43.7559 137.419 42.0781Z" fill="#2F2E41"/>
</g>
<defs>
<filter id="filter0_d_38_167" x="-4" y="0" width="658" height="430" filterUnits="userSpaceOnUse" color-interpolation-filters="sRGB">
<feFlood flood-opacity="0" result="BackgroundImageFix"/>
<feColorMatrix in="SourceAlpha" type="matrix" values="0 0 0 0 0 0 0 0 0 0 0 0 0 0 0 0 0 0 127 0" result="hardAlpha"/>
<feOffset dy="4"/>
<feGaussianBlur stdDeviation="2"/>
<feComposite in2="hardAlpha" operator="out"/>
<feColorMatrix type="matrix" values="0 0 0 0 0 0 0 0 0 0 0 0 0 0 0 0 0 0 0.25 0"/>
<feBlend mode="normal" in2="BackgroundImageFix" result="effect1_dropShadow_38_167"/>
<feBlend mode="normal" in="SourceGraphic" in2="effect1_dropShadow_38_167" result="shape"/>
</filter>
</defs>
</svg>
