<svg width="76" height="76" viewBox="0 0 76 76" fill="none" xmlns="http://www.w3.org/2000/svg">
<g id="js-svgrepo-com(2) 1" clip-path="url(#clip0_27_23)">
<g id="Group">
<path id="Vector" d="M76 0H0V76H76V0Z" fill="#F1DC50"/>
<path id="Vector_2" d="M38 34.8334C38 49.8725 38 58.317 38 60.1667C38 62.9413 36.3442 66.5 31.6667 66.5C24.113 66.5 23.75 60.1667 23.75 60.1667M65.8349 42.8008C63.9346 39.6003 61.4156 38 58.2779 38C53.3784 38 50.6667 41.1667 50.6667 44.3334C50.6667 47.5 52.25 50.6667 58.61 52.25C62.6571 53.2576 66.5 55.4167 66.5 60.1667C66.5 64.9167 62.3344 66.5 58.5833 66.5C53.7895 66.5 50.6228 64.3889 49.0833 60.1667" stroke="#333333" stroke-width="6"/>
</g>
</g>
<defs>
<clipPath id="clip0_27_23">
<rect width="76" height="76" fill="white"/>
</clipPath>
</defs>
</svg>
