<svg width="100%" height="31" viewBox="0 0 60 31" fill="none" xmlns="http://www.w3.org/2000/svg">
<g id="logo" filter="url(#filter0_d_3_3)">
<path d="M8.5 1H1.5H1V26.5H9V17H18V26.5H26V1H18V10.5H9V1H8.5Z" fill="white"/>
<path d="M38 26.5H30V1H36.5L47 13.5V1H55V26.5H48.5L38 14V26.5Z" fill="white"/>
<path d="M8.5 1H1.5H1V26.5H9V17H18V26.5H26V1H18V10.5H9V1H8.5Z" stroke="black"/>
<path d="M38 26.5H30V1H36.5L47 13.5V1H55V26.5H48.5L38 14V26.5Z" stroke="black"/>
</g>
<defs>
<filter id="filter0_d_3_3" x="0.5" y="0.5" width="59" height="30.5" filterUnits="userSpaceOnUse" color-interpolation-filters="sRGB">
<feFlood flood-opacity="0" result="BackgroundImageFix"/>
<feColorMatrix in="SourceAlpha" type="matrix" values="0 0 0 0 0 0 0 0 0 0 0 0 0 0 0 0 0 0 127 0" result="hardAlpha"/>
<feOffset dx="4" dy="4"/>
<feComposite in2="hardAlpha" operator="out"/>
<feColorMatrix type="matrix" values="0 0 0 0 0.380392 0 0 0 0 0.854902 0 0 0 0 0.984314 0 0 0 1 0"/>
<feBlend mode="normal" in2="BackgroundImageFix" result="effect1_dropShadow_3_3"/>
<feBlend mode="normal" in="SourceGraphic" in2="effect1_dropShadow_3_3" result="shape"/>
</filter>
</defs>
</svg>
