<svg width="100%" viewBox="0 0 76 80" fill="none" xmlns="http://www.w3.org/2000/svg">
<g filter="url(#filter0_d_38_145)">
<path d="M38 71.25C37.1029 71.2503 36.2215 71.0144 35.4445 70.566L27.3125 65.7519C26.0989 65.0726 26.6903 64.8327 27.0917 64.6926C28.3824 64.2939 29.6183 63.7354 30.7705 63.0301C30.867 62.9855 30.9732 62.9662 31.0792 62.9741C31.1852 62.982 31.2874 63.0168 31.3762 63.0752L37.6248 66.7874C37.7411 66.8489 37.8708 66.8811 38.0024 66.8811C38.1341 66.8811 38.2637 66.8489 38.38 66.7874L62.7475 52.7226C62.8616 52.6543 62.9559 52.5575 63.0213 52.4418C63.0866 52.326 63.1208 52.1953 63.1204 52.0624V23.9281C63.1205 23.7931 63.0858 23.6603 63.0197 23.5426C62.9535 23.4249 62.8582 23.3262 62.7428 23.256L38.3753 9.20312C38.2604 9.1384 38.1307 9.10441 37.9989 9.10441C37.867 9.10441 37.7373 9.1384 37.6224 9.20312L13.2692 23.2607C13.153 23.3294 13.0566 23.427 12.9891 23.5439C12.9217 23.6608 12.8857 23.7932 12.8844 23.9281V52.0505C12.8848 52.1831 12.9203 52.3133 12.9875 52.4276C13.0547 52.542 13.1511 52.6364 13.2668 52.7012L19.95 56.5582C23.5719 58.368 25.7902 56.2352 25.7902 54.093V26.3269C25.7902 26.1379 25.8652 25.9567 25.9989 25.8231C26.1325 25.6894 26.3137 25.6144 26.5027 25.6144H29.5902C29.7791 25.6144 29.9604 25.6894 30.094 25.8231C30.2276 25.9567 30.3027 26.1379 30.3027 26.3269V54.0954C30.3027 58.9285 27.6712 61.6954 23.0874 61.6954C21.1099 61.7298 19.1635 61.201 17.4753 60.1706L11.0699 56.4965C10.2923 56.0437 9.6471 55.3948 9.19868 54.6146C8.75025 53.8345 8.51432 52.9503 8.51442 52.0505V23.9281C8.51211 23.0269 8.74705 22.1409 9.19563 21.3592C9.64421 20.5775 10.2906 19.9277 11.0699 19.475L35.4398 5.40549C36.2248 4.97601 37.1052 4.75092 38 4.75092C38.8949 4.75092 39.7753 4.97601 40.5603 5.40549L64.9278 19.475C65.7053 19.9269 66.3507 20.5749 66.7995 21.3542C67.2483 22.1335 67.4849 23.0169 67.4857 23.9162V52.0505C67.4843 52.9503 67.2475 53.8342 66.7988 54.6141C66.3501 55.3941 65.705 56.0431 64.9278 56.4965L40.5603 70.566C39.7819 71.0151 38.8988 71.2511 38 71.25V71.25Z" fill="#83CD29"/>
<path d="M33.3782 42.6384C33.3782 42.4494 33.4532 42.2682 33.5869 42.1346C33.7205 42.0009 33.9017 41.9259 34.0907 41.9259H37.2423C37.4107 41.9264 37.5735 41.9866 37.7017 42.0957C37.83 42.2048 37.9154 42.3559 37.9429 42.522C38.4179 45.7306 39.8429 47.348 46.2863 47.348C51.4187 47.348 53.606 46.1866 53.606 43.4625C53.606 41.8926 52.9862 40.7265 45.0085 39.9451C38.3395 39.2849 34.2165 37.8076 34.2165 32.4781C34.2165 27.5619 38.3609 24.6288 45.3078 24.6288C53.1144 24.6288 56.9786 27.3386 57.4678 33.1526C57.4753 33.2497 57.4628 33.3473 57.4311 33.4393C57.3994 33.5314 57.3492 33.6159 57.2835 33.6878C57.2179 33.7597 57.1382 33.8174 57.0494 33.8573C56.9606 33.8971 56.8645 33.9184 56.7672 33.9198H53.5942C53.435 33.9175 53.2811 33.8621 53.1572 33.7622C53.0332 33.6623 52.9462 33.5238 52.9102 33.3688C52.1525 29.9939 50.2977 28.9156 45.3102 28.9156C39.7052 28.9156 39.0544 30.8679 39.0544 32.3309C39.0544 34.1026 39.8239 34.6204 47.3907 35.6203C54.8791 36.6106 58.4368 38.0119 58.4368 43.2749C58.4368 48.5854 54.0098 51.6254 46.2887 51.6254C35.613 51.6396 33.3782 46.7448 33.3782 42.6384Z" fill="#83CD29"/>
</g>
<defs>
<filter id="filter0_d_38_145" x="-4" y="0" width="84" height="84" filterUnits="userSpaceOnUse" color-interpolation-filters="sRGB">
<feFlood flood-opacity="0" result="BackgroundImageFix"/>
<feColorMatrix in="SourceAlpha" type="matrix" values="0 0 0 0 0 0 0 0 0 0 0 0 0 0 0 0 0 0 127 0" result="hardAlpha"/>
<feOffset dy="4"/>
<feGaussianBlur stdDeviation="2"/>
<feComposite in2="hardAlpha" operator="out"/>
<feColorMatrix type="matrix" values="0 0 0 0 0 0 0 0 0 0 0 0 0 0 0 0 0 0 0.25 0"/>
<feBlend mode="normal" in2="BackgroundImageFix" result="effect1_dropShadow_38_145"/>
<feBlend mode="normal" in="SourceGraphic" in2="effect1_dropShadow_38_145" result="shape"/>
</filter>
</defs>
</svg>
