<svg width="100%" viewBox="0 0 76 76" fill="none" xmlns="http://www.w3.org/2000/svg">
<path d="M62.4873 26.0726C61.6988 25.8013 60.8819 25.5445 60.0407 25.3017C60.179 24.7374 60.3059 24.1805 60.4187 23.633C62.2707 14.6433 61.0598 7.40117 56.925 5.01674C52.9602 2.73039 46.4762 5.11428 39.9276 10.8133C39.2979 11.3613 38.6664 11.9415 38.0352 12.5496C37.6146 12.1473 37.1947 11.7585 36.7759 11.3866C29.9128 5.29284 23.0335 2.72484 18.9028 5.11617C14.9418 7.40915 13.7688 14.2175 15.4359 22.7371C15.5969 23.56 15.785 24.4003 15.9978 25.2547C15.0242 25.5311 14.0843 25.8258 13.185 26.1392C5.13871 28.9445 0 33.341 0 37.9014C0 42.6114 5.51641 47.3357 13.8972 50.2002C14.5586 50.4262 15.2449 50.64 15.9521 50.8429C15.7225 51.767 15.5229 52.6725 15.3552 53.5558C13.7657 61.9275 15.007 68.575 18.9575 70.8535C23.0379 73.2065 29.886 70.7879 36.5543 64.959C37.0813 64.4982 37.6103 64.0096 38.1401 63.4974C38.827 64.1588 39.5127 64.7847 40.1948 65.3719C46.6538 70.9301 53.0331 73.1745 56.9799 70.8896C61.0563 68.5298 62.3811 61.3888 60.6611 52.7007C60.5298 52.0371 60.3769 51.3593 60.2052 50.6693C60.6861 50.5272 61.1583 50.3804 61.6186 50.2278C70.3313 47.3411 76 42.6743 76 37.9014C76 33.3245 70.6956 28.8984 62.4873 26.0726ZM60.5975 47.146C60.182 47.2836 59.7556 47.4166 59.321 47.5455C58.3592 44.5005 57.0611 41.2626 55.4725 37.9173C56.9884 34.6516 58.2364 31.4551 59.1713 28.4299C59.9487 28.6548 60.7033 28.8921 61.4305 29.1425C68.4633 31.5636 72.7533 35.1432 72.7533 37.9014C72.7533 40.8394 68.1203 44.6533 60.5975 47.146ZM57.4761 53.3312C58.2367 57.173 58.3453 60.6464 57.8415 63.3618C57.3889 65.8016 56.4786 67.4284 55.353 68.0799C52.9579 69.4662 47.836 67.6642 42.3122 62.9107C41.6789 62.3658 41.0411 61.784 40.4012 61.1682C42.5427 58.8261 44.6829 56.1034 46.7718 53.0795C50.4458 52.7534 53.9169 52.2204 57.0647 51.4928C57.2198 52.1182 57.3575 52.7315 57.4761 53.3312ZM25.9101 67.8403C23.5701 68.6667 21.7063 68.6904 20.5797 68.0408C18.1824 66.6581 17.1858 61.3208 18.5453 54.1613C18.701 53.3414 18.8863 52.4991 19.0999 51.6382C22.2132 52.3266 25.6589 52.822 29.3417 53.1206C31.4447 56.0796 33.6467 58.7993 35.8658 61.1808C35.381 61.6488 34.8981 62.0945 34.4178 62.5144C31.4691 65.0918 28.5142 66.9205 25.9101 67.8403ZM14.9472 47.128C11.2414 45.8614 8.181 44.2152 6.08323 42.4188C4.19825 40.8045 3.24656 39.2019 3.24656 37.9014C3.24656 35.134 7.37243 31.6042 14.2537 29.205C15.0886 28.9139 15.9626 28.6396 16.8697 28.3819C17.8207 31.4754 19.0682 34.7098 20.5738 37.9804C19.0488 41.2996 17.7835 44.5856 16.8232 47.7154C16.1765 47.5295 15.55 47.3339 14.9472 47.128ZM18.6221 22.1136C17.1938 14.8142 18.1424 9.30779 20.5294 7.92605C23.072 6.45408 28.6943 8.5528 34.6201 13.8145C34.9988 14.1508 35.3791 14.5028 35.7605 14.8669C33.5523 17.238 31.3704 19.9373 29.2861 22.8788C25.7118 23.2101 22.2903 23.7423 19.1445 24.455C18.9468 23.6594 18.7716 22.8778 18.6221 22.1136ZM51.4051 30.2085C50.653 28.9096 49.881 27.6413 49.094 26.4077C51.5188 26.7143 53.8421 27.1212 56.0239 27.6192C55.3689 29.7184 54.5525 31.9133 53.5914 34.1634C52.9021 32.8546 52.1729 31.5349 51.4051 30.2085ZM38.0363 17.1872C39.5338 18.8096 41.0335 20.621 42.5086 22.5864C41.0221 22.5162 39.5173 22.4796 38 22.4796C36.4971 22.4796 35.0033 22.5153 33.5261 22.5843C35.0026 20.6373 36.5153 18.8283 38.0363 17.1872ZM24.5818 30.231C23.8306 31.5336 23.115 32.8461 22.4364 34.161C21.491 31.9187 20.6821 29.7138 20.0214 27.5848C22.1898 27.0995 24.5021 26.7028 26.9116 26.402C26.1134 27.647 25.335 28.9246 24.5818 30.2307V30.231ZM26.981 49.6324C24.4916 49.3547 22.1445 48.9784 19.9766 48.5065C20.6479 46.3395 21.4746 44.0875 22.4401 41.7969C23.1204 43.1109 23.8389 44.4239 24.5947 45.7294H24.5948C25.3647 47.0593 26.1623 48.362 26.981 49.6324ZM38.1261 58.8445C36.5873 57.1842 35.0524 55.3477 33.5534 53.3722C35.0086 53.4293 36.4922 53.4585 38 53.4585C39.5491 53.4585 41.0804 53.4236 42.5877 53.3565C41.1078 55.3676 39.6135 57.207 38.1261 58.8445ZM53.6224 41.6802C54.6382 43.9955 55.4945 46.2357 56.1745 48.3658C53.9709 48.8685 51.5918 49.2734 49.085 49.5743C49.874 48.324 50.6528 47.034 51.4181 45.707C52.1923 44.3645 52.9274 43.02 53.6224 41.6802ZM48.6057 44.085C47.4177 46.1449 46.198 48.1113 44.9598 49.9675C42.7046 50.1288 40.3747 50.2118 38 50.2118C35.6349 50.2118 33.3344 50.1384 31.119 49.9946C29.8309 48.1141 28.5847 46.1418 27.4043 44.1028H27.4045C26.2272 42.0692 25.1436 40.0186 24.1618 37.9794C25.1434 35.9354 26.2241 33.8824 27.3947 31.8526L27.3944 31.853C28.5681 29.8177 29.8033 27.8551 31.0795 25.9863C33.3398 25.8155 35.6575 25.7263 37.9999 25.7263H38C40.3529 25.7263 42.6736 25.8162 44.9332 25.9885C46.1899 27.8436 47.4168 29.7998 48.595 31.8354C49.7867 33.8938 50.8814 35.9331 51.8714 37.9332C50.8844 39.9677 49.7921 42.0276 48.6057 44.085ZM55.3033 7.82946C57.8483 9.2971 58.838 15.2161 57.239 22.9777C57.137 23.473 57.0221 23.9774 56.8974 24.4887C53.7443 23.7611 50.3204 23.2197 46.7356 22.8834C44.6473 19.9096 42.4833 17.2061 40.3111 14.8655C40.8951 14.3036 41.4783 13.7679 42.059 13.2624C47.6699 8.3795 52.914 6.45164 55.3033 7.82946ZM38 31.1149C41.748 31.1149 44.7865 34.1533 44.7865 37.9014C44.7865 41.6495 41.748 44.688 38 44.688C34.252 44.688 31.2135 41.6495 31.2135 37.9014C31.2135 34.1533 34.252 31.1149 38 31.1149Z" fill="#00D8FF"/>
</svg>
