<svg width="76" height="73" viewBox="0 0 76 73" fill="none" xmlns="http://www.w3.org/2000/svg">
<path d="M52.66 50.3894C55.4647 50.0993 57.5923 47.6813 57.4956 44.7798C57.3989 41.8783 54.9811 39.5571 52.0797 39.5571H51.8863C48.8882 39.6539 46.567 42.1685 46.6638 45.1667C46.7605 46.6175 47.3407 47.8748 48.2112 48.7452C44.9229 55.2252 39.8938 59.9644 32.3502 63.9297C27.2244 66.6378 21.9052 67.605 16.5859 66.928C12.2339 66.3477 8.84889 64.4133 6.7212 61.2217C3.62638 56.4826 3.33624 51.3566 5.9475 46.2306C7.78505 42.5554 10.6864 39.8473 12.524 38.4933C12.1371 37.2359 11.5569 35.1082 11.2667 33.5607C-2.75669 43.716 -1.30599 57.4497 2.94939 63.9297C6.14092 68.7656 12.6207 71.7638 19.7775 71.7638C21.7117 71.7638 23.646 71.5704 25.5803 71.0868C37.9596 68.6689 47.3407 61.3184 52.66 50.3894ZM69.6815 38.3965C62.3313 29.7888 51.4994 25.0496 39.1201 25.0496H37.5727C36.7023 23.3087 34.8647 22.1481 32.8338 22.1481H32.6403C29.6422 22.2448 27.3211 24.7595 27.4178 27.7577C27.5145 30.6592 29.9324 32.9804 32.8338 32.9804H33.0272C35.1549 32.8837 36.9924 31.5296 37.7661 29.692H39.507C46.8572 29.692 53.8205 31.8198 60.1069 35.9786C64.9425 39.1703 68.4242 43.3291 70.3585 48.3584C72.0026 52.4205 71.9059 56.3858 70.1651 59.7709C67.4571 64.8969 62.9116 67.7017 56.9153 67.7017C53.0468 67.7017 49.3717 66.5411 47.4375 65.6707C46.3736 66.6378 44.4394 68.1853 43.0854 69.1525C47.244 71.0868 51.4994 72.1507 55.5614 72.1507C64.8458 72.1507 71.7125 67.0247 74.3237 61.8987C77.1284 56.2891 76.935 46.6175 69.6815 38.3965ZM20.5512 52.0336C20.6479 54.9351 23.0657 57.2563 25.9671 57.2563H26.1606C29.1587 57.1596 31.4798 54.6449 31.3831 51.6467C31.2864 48.7452 28.8685 46.424 25.9671 46.424H25.7737C25.5803 46.424 25.2901 46.424 25.0967 46.5207C21.1315 39.944 19.4873 32.787 20.0676 25.0496C20.4545 19.2466 22.3887 14.2174 25.7737 10.0585C28.5784 6.48002 33.9943 4.73912 37.6694 4.6424C47.921 4.44897 52.2731 17.2156 52.5633 22.3416C53.8205 22.6317 55.9482 23.3087 57.3989 23.7923C56.2384 8.1242 46.567 0 37.2826 0C28.5784 0 20.5512 6.28659 17.3597 15.5714C12.9108 27.9511 15.8122 39.8473 21.2282 49.2288C20.7446 49.9058 20.4545 50.9697 20.5512 52.0336Z" fill="#764ABC"/>
</svg>
