<svg width="76" height="76" viewBox="0 0 76 76" fill="none" xmlns="http://www.w3.org/2000/svg">
<path d="M38.4062 44.4125C37.2638 44.9374 36.0122 45.6214 33.5066 46.9965C32.5566 47.5309 31.5638 48.0653 30.6399 48.5688C30.5758 48.5046 30.5093 48.4239 30.4452 48.3574C25.4886 43.0611 16.3211 39.3205 16.7106 32.2074C16.8554 29.6163 17.7461 22.8143 34.3164 14.554C47.9537 7.83276 58.8051 9.69476 60.6789 13.8249C63.3722 19.7125 54.8626 30.6684 40.7788 32.2573C39.2201 32.5734 37.6102 32.5352 36.0682 32.1455C34.5262 31.7558 33.0915 31.0245 31.8702 30.0058C31.1244 29.1959 31.0128 29.1484 30.7373 29.3099C30.2837 29.5474 30.5758 30.2813 30.7373 30.7016C31.2745 31.6743 32.0013 32.5294 32.8747 33.2163C33.7481 33.9033 34.7503 34.4082 35.8222 34.7011C41.3645 35.8991 47.1431 35.3267 52.3427 33.0648C60.8784 29.7611 67.5427 20.577 65.5904 12.8773C63.6311 5.07063 50.6731 2.49613 38.4133 6.85188C30.7356 9.43919 23.6421 13.5121 17.5371 18.8385C10.7826 25.156 9.71381 30.647 10.1508 32.946C11.7231 41.1089 22.9758 46.4218 27.4883 50.3571C27.2508 50.4878 27.0513 50.5946 26.8732 50.6968C24.6217 51.8154 16.0384 56.3018 13.8986 61.047C11.4689 66.424 14.2881 70.2786 16.1501 70.7964C18.9561 71.4685 21.902 71.2476 24.5764 70.1644C27.2507 69.0812 29.5201 67.1898 31.0674 64.7544C32.3815 62.7349 33.1884 60.4279 33.4195 58.0296C33.6506 55.6313 33.2992 53.2127 32.3951 50.9794C32.9285 50.5539 33.4974 50.1749 34.0956 49.8465C35.2451 49.1673 36.3399 48.4975 37.3113 47.9798C40.6372 46.4219 44.2668 45.6197 47.9394 45.6309C55.6487 46.5381 57.1711 51.3475 56.8789 53.3734C56.7423 54.0921 56.4532 54.7733 56.0313 55.371C55.6093 55.9687 55.0642 56.4691 54.4327 56.8385C53.8983 57.1781 53.7202 57.2921 53.7677 57.5344C53.8318 57.8906 54.0907 57.874 54.5443 57.8099C55.7026 57.4438 56.723 56.7359 57.4716 55.7793C58.2201 54.8226 58.6618 53.6618 58.7386 52.4495C58.9761 47.6995 54.4469 42.4888 46.4289 42.5363C44.0281 42.5404 41.6512 43.014 39.4322 43.9304C39.0759 44.0776 38.73 44.236 38.3943 44.4054L38.4062 44.4125ZM26.9468 63.0301C24.3866 65.816 20.8241 66.8681 19.2851 65.9775C17.6226 65.0275 18.2804 60.9069 21.4226 57.9595C23.2835 56.2828 25.2949 54.781 27.4313 53.4731C27.8042 53.2356 28.3552 52.9221 29.0178 52.5231C29.1318 52.459 29.1959 52.4258 29.1959 52.4258L29.5854 52.1883C30.1458 54.0671 30.1968 56.0612 29.7332 57.9662C29.2695 59.8713 28.3079 61.6189 26.9468 63.0301V63.0301Z" fill="#CD6799"/>
</svg>
