<svg width="100%" viewBox="0 0 550 519" fill="none" xmlns="http://www.w3.org/2000/svg">
<g clip-path="url(#clip0_23_2)">
<path d="M399.303 294.512V437.882L423.233 476.965L425.055 479.937H519.479L521.387 294.512H399.303Z" fill="#E6E6E6"/>
<path opacity="0.1" d="M399.303 294.512V437.882L423.233 476.965L424.702 294.512H399.303Z" fill="black"/>
<path d="M171.349 290.688V434.059L147.418 473.142L145.597 476.114H51.1729L49.265 290.688H171.349Z" fill="#E6E6E6"/>
<path opacity="0.1" d="M171.349 290.688V434.059L147.418 473.142L145.95 290.688H171.349Z" fill="black"/>
<path d="M550 287.821V296.423H36.8657V283.997L84.5546 259.146H508.034L550 287.821Z" fill="#E6E6E6"/>
<path opacity="0.1" d="M550 287.821V296.423H36.8657V283.997L550 287.821Z" fill="black"/>
<path d="M110.307 330.832H87.4161L77.8783 324.141H120.799L110.307 330.832Z" fill="#3F3D56"/>
<path d="M110.307 358.55H87.4161L77.8783 351.86H120.799L110.307 358.55Z" fill="#3F3D56"/>
<path d="M110.307 397.739H87.4161L77.8783 391.047H120.799L110.307 397.739Z" fill="#3F3D56"/>
<path d="M110.307 436.926H87.4161L77.8783 430.236H120.799L110.307 436.926Z" fill="#3F3D56"/>
<path d="M460.344 334.655H483.236L492.773 327.964H449.853L460.344 334.655Z" fill="#3F3D56"/>
<path d="M460.344 362.373H483.236L492.773 355.683H449.853L460.344 362.373Z" fill="#3F3D56"/>
<path d="M460.344 401.562H483.236L492.773 394.871H449.853L460.344 401.562Z" fill="#3F3D56"/>
<path d="M460.344 440.749H483.236L492.773 434.059H449.853L460.344 440.749Z" fill="#3F3D56"/>
<path d="M475.933 93.3529H283.224C282.267 93.3528 281.319 93.5416 280.435 93.9086C279.551 94.2756 278.747 94.8135 278.07 95.4917C277.394 96.1699 276.857 96.9751 276.491 97.8613C276.124 98.7474 275.936 99.6972 275.936 100.656V230.745C275.936 231.704 276.124 232.654 276.491 233.54C276.857 234.426 277.394 235.231 278.07 235.91C278.747 236.588 279.551 237.126 280.435 237.493C281.319 237.86 282.267 238.049 283.224 238.049H356.378L353.637 255.584C353.637 255.584 337.975 263.922 348.987 264.167C360 264.413 411.883 264.167 411.883 264.167C411.883 264.167 421.916 264.167 406.009 255.338L403.431 238.049H475.933C476.89 238.049 477.838 237.86 478.722 237.493C479.606 237.126 480.41 236.588 481.086 235.91C481.763 235.231 482.3 234.426 482.666 233.54C483.032 232.654 483.221 231.704 483.221 230.745V100.656C483.221 99.6972 483.032 98.7474 482.666 97.8613C482.3 96.9751 481.763 96.1699 481.086 95.4917C480.41 94.8135 479.606 94.2756 478.722 93.9086C477.838 93.5416 476.89 93.3528 475.933 93.3529Z" fill="#3F3D56"/>
<path d="M476.246 101.078H282.911V209.477H476.246V101.078Z" fill="#F2F2F2"/>
<path d="M379.578 98.8709C380.254 98.8709 380.802 98.3219 380.802 97.6447C380.802 96.9675 380.254 96.4185 379.578 96.4185C378.903 96.4185 378.355 96.9675 378.355 97.6447C378.355 98.3219 378.903 98.8709 379.578 98.8709Z" fill="#F2F2F2"/>
<path d="M379.579 232.776C382.147 232.776 384.228 230.69 384.228 228.116C384.228 225.543 382.147 223.456 379.579 223.456C377.011 223.456 374.929 225.543 374.929 228.116C374.929 230.69 377.011 232.776 379.579 232.776Z" fill="#F2F2F2"/>
<path d="M372.333 277.411V279.864H240.669V277.901L240.85 277.411L244.095 268.582H369.641L372.333 277.411Z" fill="#3F3D56"/>
<path d="M423.001 275.01C422.761 276.037 421.856 277.121 419.81 278.146C412.468 281.825 397.54 277.165 397.54 277.165C397.54 277.165 386.037 275.203 386.037 270.053C386.36 269.832 386.697 269.631 387.046 269.452C390.132 267.816 400.367 263.778 418.514 269.623C419.851 270.044 421.045 270.828 421.963 271.889C422.37 272.29 422.676 272.782 422.857 273.324C423.037 273.867 423.087 274.444 423.001 275.01Z" fill="#3F3D56"/>
<path opacity="0.1" d="M423.001 275.01C414.015 278.46 406.005 278.718 397.784 272.996C394.676 270.693 390.912 269.451 387.046 269.452C390.132 267.816 400.367 263.778 418.514 269.623C419.851 270.044 421.045 270.828 421.963 271.889C422.37 272.29 422.676 272.782 422.857 273.324C423.037 273.867 423.087 274.444 423.001 275.01Z" fill="black"/>
<path d="M411.734 272.996C413.491 272.996 414.915 272.557 414.915 272.015C414.915 271.473 413.491 271.034 411.734 271.034C409.977 271.034 408.552 271.473 408.552 272.015C408.552 272.557 409.977 272.996 411.734 272.996Z" fill="#F2F2F2"/>
<path opacity="0.1" d="M372.333 277.411V279.864H240.669V277.901L240.85 277.411H372.333Z" fill="black"/>
<path d="M73.2068 0.000111179C71.8706 -0.109833 70.5325 0.189706 69.37 0.859036C68.2285 1.6424 67.5091 3.01477 66.7747 4.29185C63.9669 9.23291 60.1657 13.5358 55.6119 16.9278C52.295 19.3629 48.0781 22.399 48.6456 26.8886C48.945 28.3712 49.4915 29.7927 50.2624 31.0933C53.3222 37.2832 61.6721 42.0667 60.8508 49.1298C63.8908 44.0297 59.8245 41.5078 62.8646 36.4076C64.3124 33.9788 66.8274 31.2371 69.0132 32.7624C69.7451 33.2732 70.2256 34.1892 70.9877 34.6373C72.806 35.7066 74.7404 33.6623 76.35 32.2144C81.9003 27.2214 89.7932 28.5294 96.6999 30.0851C99.9606 30.8196 103.542 31.7832 105.47 34.9062C108.004 39.0122 103.062 43.4469 101.813 48.0892C101.711 48.4848 101.706 48.8992 101.799 49.297C101.892 49.6949 102.079 50.0643 102.345 50.3737C102.612 50.6831 102.949 50.9232 103.328 51.0736C103.707 51.224 104.117 51.2802 104.522 51.2373C106.594 51.0325 109.049 50.8645 109.172 49.9532C111.779 50.0462 114.974 49.7503 116.091 47.0295C116.433 45.953 116.613 44.8318 116.627 43.7023C117.037 39.1321 118.973 34.9626 120.255 30.6127C121.537 26.2629 122.095 21.1652 119.931 17.3086C119.159 16.0254 118.203 14.8621 117.096 13.8555C104.816 1.9464 88.6701 -0.0175664 73.2068 0.000111179Z" fill="#2F2E41"/>
<path d="M63.5215 58.0511C63.5215 58.0511 66.1922 80.3542 56.3996 82.1384C46.607 83.9227 65.302 114.255 65.302 114.255L109.814 119.608L99.1309 83.9226C99.1309 83.9226 92.0091 81.2463 96.4602 63.4038C100.911 45.5613 63.5215 58.0511 63.5215 58.0511Z" fill="#FFB8B8"/>
<path d="M36.3693 441.218L39.9306 490.285H58.6248L53.2841 441.218H36.3693Z" fill="#FFB8B8"/>
<path d="M173.466 348.437L176.136 389.475L196.612 380.554L188.599 346.653L173.466 348.437Z" fill="#FFB8B8"/>
<path d="M23.0157 253.872C23.0157 253.872 23.906 305.615 29.2474 322.566C34.5889 339.516 33.6986 340.408 32.8084 343.085C31.9181 345.761 31.0279 343.977 31.0279 348.437C31.0279 352.898 29.2474 423.376 31.0279 429.621C32.8084 435.865 25.6865 446.571 31.0279 447.463C36.3693 448.355 61.2959 447.463 62.1861 442.11C63.0764 436.758 55.0643 434.973 58.6252 431.405C62.1862 427.836 67.5276 354.682 67.5276 354.682L79.9909 303.831L103.137 277.067H152.1L167.234 335.948C167.234 335.948 161.002 352.898 165.453 352.898C169.905 352.898 196.612 358.251 196.612 338.624C196.612 318.997 187.709 261.009 185.929 259.225C184.148 257.441 186.819 251.196 184.148 248.519C181.478 245.843 150.319 227.109 138.746 223.54C127.173 219.972 110.938 215.724 110.938 215.724L23.0157 253.872Z" fill="#2F2E41"/>
<path d="M196.612 373.417C196.612 373.417 183.258 368.956 177.027 382.338C170.795 395.72 173.466 399.288 173.466 399.288C173.466 399.288 193.941 406.425 197.502 402.857C199.051 401.304 203.971 400.765 209.035 400.651C216.747 400.478 218.799 389.543 211.515 386.997C211.298 386.921 211.078 386.855 210.856 386.799C203.734 385.014 196.612 373.417 196.612 373.417Z" fill="#2F2E41"/>
<path d="M83.5518 72.7711C98.3017 72.7711 110.259 60.7886 110.259 46.0074C110.259 31.2262 98.3017 19.2437 83.5518 19.2437C68.8019 19.2437 56.8447 31.2262 56.8447 46.0074C56.8447 60.7886 68.8019 72.7711 83.5518 72.7711Z" fill="#FFB8B8"/>
<path d="M48.8326 93.29C48.8326 93.29 92.4541 102.211 103.137 87.9372C113.82 73.6632 118.271 128.083 118.271 128.083L123.612 185.179L115.6 216.403C115.6 216.403 73.7592 250.304 60.4056 252.98C47.0521 255.656 26.5767 257.441 26.5767 257.441C26.5767 257.441 32.8084 158.415 32.8084 156.631C32.8084 154.846 48.8326 93.29 48.8326 93.29Z" fill="#61DAFB"/>
<path d="M62.099 76.5585C62.099 76.5585 52.3936 70.9869 49.7229 76.3396C47.0521 81.6923 22.1255 95.0742 19.4548 95.0742C16.7841 95.0742 24.7962 169.12 21.2353 178.042C17.6744 186.963 0.759882 252.088 10.5525 257.441C20.3451 262.793 13.2232 252.088 23.0158 265.47C32.8084 278.852 80.8811 278.852 83.5518 273.499C86.2225 268.146 62.1861 228.001 66.6373 190.531C71.0885 153.062 78.2104 101.319 71.9787 94.1821C65.7471 87.0451 62.099 76.5585 62.099 76.5585Z" fill="#2F2E41"/>
<path d="M94.2346 82.5845L95.4746 78.308C95.4746 78.308 132.515 90.6136 134.295 98.6427C136.076 106.672 135.185 162.876 128.954 167.336C122.722 171.797 113.82 178.934 120.051 189.639C126.283 200.345 133.405 211.942 138.746 212.835C144.088 213.727 153.88 219.971 151.21 226.216C148.539 232.461 116.491 220.864 116.491 220.864C116.491 220.864 95.1249 204.805 96.0151 179.826C96.9053 154.846 94.2346 82.5845 94.2346 82.5845Z" fill="#2F2E41"/>
<path d="M125.393 187.855L104.027 228.001C104.027 228.001 72.869 260.117 90.6738 263.686C108.479 267.254 118.271 234.245 118.271 234.245L141.417 201.237L125.393 187.855Z" fill="#FFB8B8"/>
<path d="M74.5079 7.00279C73.4314 6.92285 72.3531 7.13243 71.3845 7.60987C70.5088 8.25084 69.787 9.07979 69.2719 10.0362C66.8974 13.6155 63.8021 16.6576 60.1849 18.9672C57.4848 20.6883 54.0521 22.8342 54.514 26.0074C54.7648 27.0713 55.2111 28.0791 55.8301 28.9793C58.3296 33.3984 59.3246 38.5132 58.6646 43.5497L66.0889 32.7354C67.2674 31.0187 69.3148 29.0809 71.0941 30.159C71.6899 30.52 72.0811 31.1674 72.7014 31.4841C74.1816 32.2399 75.7563 30.7951 77.0666 29.7716C81.5847 26.2426 88.0099 27.1671 93.6323 28.2667C96.2866 28.7858 99.202 29.4668 100.771 31.6742C103.379 35.3423 100.656 40.6425 102.178 44.8801C102.604 44.5812 102.965 44.1996 103.242 43.758C103.518 43.3164 103.703 42.8238 103.785 42.3093C105.908 42.375 108.508 42.1659 109.418 40.2428C109.694 39.4892 109.842 38.6941 109.854 37.8912C110.188 34.661 111.763 31.714 112.807 28.6396C113.851 25.5651 114.305 21.9621 112.543 19.2363C111.899 18.3127 111.121 17.4902 110.235 16.7957C100.239 8.3784 87.0956 6.99029 74.5079 7.00279Z" fill="#2F2E41"/>
<path d="M125.393 95.0742L133.687 97.2805C133.687 97.2805 152.99 146.817 148.539 180.718C144.088 214.619 141.417 207.482 141.417 207.482C141.417 207.482 134.295 191.424 118.271 194.992L125.393 95.0742Z" fill="#2F2E41"/>
<path d="M37.6027 483.8C35.4559 486.724 35.8863 490.903 33.9847 493.992C32.3364 496.67 29.2298 498.074 27.1681 500.447C26.5102 501.235 25.9237 502.08 25.4155 502.973C23.503 506.184 21.9484 510.298 23.832 513.526C25.3473 516.122 28.5323 517.137 31.4534 517.828C35.1454 518.703 38.9815 519.402 42.7162 518.734C46.4508 518.066 50.1008 515.775 51.4324 512.215C51.6941 511.32 52.0052 510.44 52.3644 509.579C54.3886 505.586 60.7378 505.543 62.8095 501.574C64.2593 498.796 62.9266 495.438 61.5944 492.602L57.5257 483.94C56.1755 481.066 50.7019 482.719 47.8484 482.03C44.1269 481.132 40.28 480.142 37.6027 483.8Z" fill="#2F2E41"/>
<path d="M7.88184 205.698L45.2717 263.686C45.2717 263.686 68.4179 293.126 75.5397 279.744C82.6616 266.362 50.6131 244.059 50.6131 244.059L26.5768 199.453L7.88184 205.698Z" fill="#FFB8B8"/>
<path d="M26.5767 96.8584L19.4548 95.0742C19.4548 95.0742 5.21106 99.5348 1.65012 118.269C-1.91081 137.004 0.759884 211.942 5.21106 212.835C9.66224 213.727 27.1954 199.786 30.0019 202.742C32.8084 205.698 23.906 190.531 26.5767 182.502C29.2474 174.473 26.5767 96.8584 26.5767 96.8584Z" fill="#2F2E41"/>
<path d="M361.279 136.68H338.27V142.231H361.279V136.68Z" fill="#61DAFB"/>
<path d="M440.959 136.68H432.863V142.231H440.959V136.68Z" fill="#61DAFB"/>
<path d="M457.151 136.68H449.055V142.231H457.151V136.68Z" fill="#61DAFB"/>
<path d="M424.341 136.68H369.375V142.231H424.341V136.68Z" fill="#61DAFB"/>
<path d="M332.305 172.548H309.296V178.099H332.305V172.548Z" fill="#61DAFB"/>
<path d="M411.985 172.548H403.889V178.099H411.985V172.548Z" fill="#61DAFB"/>
<path d="M428.176 172.548H420.08V178.099H428.176V172.548Z" fill="#61DAFB"/>
<path d="M395.367 172.548H340.401V178.099H395.367V172.548Z" fill="#61DAFB"/>
<path d="M427.324 149.063H404.315V154.614H427.324V149.063Z" fill="#61DAFB"/>
<path d="M458.429 149.063H435.42V154.614H458.429V149.063Z" fill="#61DAFB"/>
<path d="M317.392 149.063H309.296V154.614H317.392V149.063Z" fill="#61DAFB"/>
<path d="M333.583 149.063H325.488V154.614H333.583V149.063Z" fill="#61DAFB"/>
<path d="M396.645 149.063H341.679V154.614H396.645V149.063Z" fill="#61DAFB"/>
<path d="M379.602 161.019H356.592V166.57H379.602V161.019Z" fill="#61DAFB"/>
<path d="M348.497 161.019H325.488V166.57H348.497V161.019Z" fill="#61DAFB"/>
<path d="M317.392 161.019H309.296V166.57H317.392V161.019Z" fill="#61DAFB"/>
<path d="M458.429 161.019H450.333V166.57H458.429V161.019Z" fill="#61DAFB"/>
<path d="M442.237 161.019H387.271V166.57H442.237V161.019Z" fill="#61DAFB"/>
</g>
<defs>
<clipPath id="clip0_23_2">
<rect width="550" height="519" fill="white"/>
</clipPath>
</defs>
</svg>
