<svg width="100%" viewBox="0 0 431 125" fill="none" xmlns="http://www.w3.org/2000/svg">
<path d="M9.888 74.232H8.888V74.7702L9.33722 75.0667L9.888 74.232ZM9.888 65.88L9.3387 65.0444L8.888 65.3406V65.88H9.888ZM47.712 41.016H48.712V39.1619L47.1627 40.1804L47.712 41.016ZM47.712 55.32L48.2452 56.166L48.712 55.8718V55.32H47.712ZM24.864 69.72L24.3308 68.874L23.864 69.1682V69.72H24.864ZM24.864 70.392H23.864V70.9438L24.3308 71.238L24.864 70.392ZM47.712 84.792H48.712V84.2402L48.2452 83.946L47.712 84.792ZM47.712 99.192L47.1612 100.027L48.712 101.05V99.192H47.712ZM10.888 74.232V65.88H8.888V74.232H10.888ZM10.4373 66.7156L48.2613 41.8516L47.1627 40.1804L9.3387 65.0444L10.4373 66.7156ZM46.712 41.016V55.32H48.712V41.016H46.712ZM47.1788 54.474L24.3308 68.874L25.3972 70.566L48.2452 56.166L47.1788 54.474ZM23.864 69.72V70.392H25.864V69.72H23.864ZM24.3308 71.238L47.1788 85.638L48.2452 83.946L25.3972 69.546L24.3308 71.238ZM46.712 84.792V99.192H48.712V84.792H46.712ZM48.2628 98.3574L10.4388 73.3973L9.33722 75.0667L47.1612 100.027L48.2628 98.3574ZM71.6745 97.176L71.2272 98.0705L71.2386 98.076L71.6745 97.176ZM61.2105 89.304L60.4999 88.6004L59.8357 89.2713L60.4672 89.973L61.2105 89.304ZM70.8105 79.608L71.5584 78.9442L70.8504 78.1464L70.0999 78.9044L70.8105 79.608ZM95.5785 85.08L96.227 85.8412L95.5785 85.08ZM96.6345 74.616L95.8536 75.2407L95.8615 75.2505L95.8696 75.2601L96.6345 74.616ZM90.3945 72.024L90.5359 71.034L90.5238 71.0324L90.3945 72.024ZM83.7705 71.16L83.8998 70.1684L83.8956 70.1679L83.7705 71.16ZM68.1225 64.728L67.4019 65.4214L67.4087 65.4283L68.1225 64.728ZM64.9545 42.936L64.0465 42.5169L64.9545 42.936ZM69.8505 36.504L69.2148 35.7321L69.2091 35.7367L69.2035 35.7415L69.8505 36.504ZM77.7225 32.376L78.0208 33.3306L78.0329 33.3266L77.7225 32.376ZM101.723 33.24L102.107 32.3169L101.723 33.24ZM111.611 40.248L112.321 40.9516L112.984 40.2823L112.355 39.5807L111.611 40.248ZM101.915 50.04L101.157 50.6929L101.864 51.5126L102.625 50.7436L101.915 50.04ZM96.0585 45.528L95.5814 46.4068L95.5962 46.4149L95.6113 46.4224L96.0585 45.528ZM80.2185 45.432L80.8028 46.2435L80.2185 45.432ZM79.6425 55.224L78.9984 55.9889L79.008 55.997L79.0178 56.0049L79.6425 55.224ZM85.7865 57.432L85.9439 56.4445L85.9436 56.4444L85.7865 57.432ZM92.4105 58.488L92.2531 59.4755L92.255 59.4758L92.4105 58.488ZM107.771 64.92L107.077 65.6409L107.085 65.6478L107.771 64.92ZM105.947 94.104L105.296 93.3447L105.29 93.3494L105.285 93.3542L105.947 94.104ZM97.7865 98.616L98.0858 99.5701L98.0943 99.5675L98.1027 99.5647L97.7865 98.616ZM86.6505 99.152C80.8708 99.152 76.0367 98.1778 72.1104 96.276L71.2386 98.076C75.5043 100.142 80.6543 101.152 86.6505 101.152V99.152ZM72.1217 96.2816C68.1304 94.2859 64.7449 91.7362 61.9538 88.635L60.4672 89.973C63.4361 93.2718 67.0266 95.9701 71.2273 98.0704L72.1217 96.2816ZM61.9211 90.0076L71.5211 80.3116L70.0999 78.9044L60.4999 88.6004L61.9211 90.0076ZM70.0626 80.2718C74.7902 85.5987 80.6594 88.288 87.6105 88.288V86.288C81.2496 86.288 75.9188 83.8573 71.5584 78.9442L70.0626 80.2718ZM87.6105 88.288C91.302 88.288 94.2389 87.5347 96.227 85.8412L94.93 84.3188C93.4621 85.5693 91.087 86.288 87.6105 86.288V88.288ZM96.227 85.8412C98.1955 84.1644 99.1705 81.9252 99.1705 79.224H97.1705C97.1705 81.3868 96.4175 83.0516 94.93 84.3188L96.227 85.8412ZM99.1705 79.224C99.1705 77.1739 98.6 75.3976 97.3994 73.9719L95.8696 75.2601C96.717 76.2664 97.1705 77.5621 97.1705 79.224H99.1705ZM97.4154 73.9913C96.1382 72.3949 93.7183 71.4887 90.5359 71.034L90.2531 73.0139C93.3427 73.4553 95.0828 74.2771 95.8536 75.2407L97.4154 73.9913ZM90.5238 71.0324L83.8998 70.1684L83.6412 72.1516L90.2652 73.0156L90.5238 71.0324ZM83.8956 70.1679C76.907 69.2864 71.9442 67.1953 68.8363 64.0277L67.4087 65.4283C70.9568 69.0447 76.426 71.2416 83.6454 72.1521L83.8956 70.1679ZM68.8431 64.0346C65.7926 60.8646 64.2265 56.6195 64.2265 51.192H62.2265C62.2265 57.0285 63.9244 61.8074 67.4019 65.4214L68.8431 64.0346ZM64.2265 51.192C64.2265 48.3149 64.7766 45.7077 65.8625 43.3551L64.0465 42.5169C62.8284 45.1563 62.2265 48.0531 62.2265 51.192H64.2265ZM65.8625 43.3551C66.953 40.9922 68.4956 38.9651 70.4975 37.2665L69.2035 35.7415C66.9814 37.6269 65.26 39.8878 64.0465 42.5169L65.8625 43.3551ZM70.4862 37.2759C72.5494 35.5768 75.0546 34.2574 78.0208 33.3305L77.4242 31.4215C74.2463 32.4146 71.5035 33.8472 69.2148 35.7321L70.4862 37.2759ZM78.0329 33.3266C81.0508 32.3412 84.4952 31.84 88.3785 31.84V29.84C84.3258 29.84 80.6663 30.3628 77.4121 31.4254L78.0329 33.3266ZM88.3785 31.84C93.3302 31.84 97.643 32.6235 101.338 34.1631L102.107 32.3169C98.122 30.6565 93.5388 29.84 88.3785 29.84V31.84ZM101.338 34.1631C105.041 35.7062 108.214 37.9553 110.866 40.9152L112.355 39.5807C109.503 36.3967 106.084 33.9738 102.107 32.3169L101.338 34.1631ZM110.9 39.5444L101.204 49.3364L102.625 50.7436L112.321 40.9516L110.9 39.5444ZM102.672 49.3871C100.981 47.4257 98.9219 45.8417 96.5057 44.6336L95.6113 46.4224C97.8031 47.5183 99.6479 48.9423 101.157 50.6929L102.672 49.3871ZM96.5356 44.6491C94.1063 43.3304 91.0804 42.704 87.5145 42.704V44.704C90.8606 44.704 93.5307 45.2936 95.5814 46.4068L96.5356 44.6491ZM87.5145 42.704C84.1657 42.704 81.4835 43.289 79.6342 44.6205L80.8028 46.2435C82.1535 45.271 84.3353 44.704 87.5145 44.704V42.704ZM79.6342 44.6205C77.7615 45.9688 76.8185 47.8771 76.8185 50.232H78.8185C78.8185 48.4909 79.4755 47.1992 80.8028 46.2435L79.6342 44.6205ZM76.8185 50.232C76.8185 52.6945 77.4698 54.7017 78.9984 55.9889L80.2866 54.4591C79.3832 53.6983 78.8185 52.3775 78.8185 50.232H76.8185ZM79.0178 56.0049C80.4995 57.1902 82.7523 57.9619 85.6294 58.4196L85.9436 56.4444C83.1887 56.0061 81.3455 55.3058 80.2672 54.4431L79.0178 56.0049ZM85.6291 58.4195L92.2531 59.4755L92.5679 57.5005L85.9439 56.4445L85.6291 58.4195ZM92.255 59.4758C99.0626 60.5474 103.955 62.6387 107.077 65.6408L108.464 64.1992C104.93 60.8012 99.5824 58.6046 92.566 57.5002L92.255 59.4758ZM107.085 65.6478C110.161 68.5463 111.763 72.7316 111.763 78.36H113.763C113.763 72.3404 112.036 67.5657 108.456 64.1922L107.085 65.6478ZM111.763 78.36C111.763 81.4374 111.209 84.2458 110.115 86.7981L111.954 87.5859C113.164 84.7621 113.763 81.6826 113.763 78.36H111.763ZM110.115 86.7981C109.024 89.3441 107.421 91.5235 105.296 93.3447L106.597 94.8633C108.952 92.8445 110.741 90.4159 111.954 87.5859L110.115 86.7981ZM105.285 93.3542C103.226 95.1705 100.63 96.614 97.4703 97.6673L98.1027 99.5647C101.471 98.442 104.315 96.8775 106.608 94.8538L105.285 93.3542ZM97.4872 97.6618C94.3383 98.6497 90.7301 99.152 86.6505 99.152V101.152C90.8909 101.152 94.7067 100.63 98.0858 99.5701L97.4872 97.6618ZM124.093 27.96V26.96H123.093V27.96H124.093ZM138.301 27.96H139.301V26.96H138.301V27.96ZM138.301 69.912H137.301V70.912H138.301V69.912ZM138.877 69.912V70.912H139.41L139.707 70.4687L138.877 69.912ZM145.117 60.6L144.351 59.9568L144.316 59.9983L144.286 60.0433L145.117 60.6ZM155.197 48.6V47.6H154.731L154.431 47.9568L155.197 48.6ZM170.941 48.6L171.695 49.2566L173.137 47.6H170.941V48.6ZM154.141 67.896L153.387 67.2394L152.909 67.7882L153.284 68.4117L154.141 67.896ZM172.861 99V100H174.63L173.718 98.4843L172.861 99ZM155.965 99L155.082 99.4694L155.364 100H155.965V99ZM144.637 77.688L145.52 77.2187L144.846 75.951L143.89 77.0224L144.637 77.688ZM138.301 84.792L137.554 84.1264L137.301 84.4108V84.792H138.301ZM138.301 99V100H139.301V99H138.301ZM124.093 99H123.093V100H124.093V99ZM124.093 28.96H138.301V26.96H124.093V28.96ZM137.301 27.96V69.912H139.301V27.96H137.301ZM138.301 70.912H138.877V68.912H138.301V70.912ZM139.707 70.4687L145.947 61.1567L144.286 60.0433L138.046 69.3553L139.707 70.4687ZM145.882 61.2432L155.962 49.2432L154.431 47.9568L144.351 59.9568L145.882 61.2432ZM155.197 49.6H170.941V47.6H155.197V49.6ZM170.187 47.9434L153.387 67.2394L154.895 68.5526L171.695 49.2566L170.187 47.9434ZM153.284 68.4117L172.004 99.5157L173.718 98.4843L154.998 67.3803L153.284 68.4117ZM172.861 98H155.965V100H172.861V98ZM156.848 98.5306L145.52 77.2187L143.754 78.1573L155.082 99.4694L156.848 98.5306ZM143.89 77.0224L137.554 84.1264L139.047 85.4576L145.383 78.3536L143.89 77.0224ZM137.301 84.792V99H139.301V84.792H137.301ZM138.301 98H124.093V100H138.301V98ZM125.093 99V27.96H123.093V99H125.093ZM180.267 41.304L179.543 41.9937L179.56 42.0113L179.577 42.0281L180.267 41.304ZM180.267 29.112L179.56 28.4049V28.4049L180.267 29.112ZM192.843 29.112L192.119 29.8017L192.136 29.8193L192.153 29.8361L192.843 29.112ZM192.843 41.304L193.55 42.0111L192.843 41.304ZM179.499 48.6V47.6H178.499V48.6H179.499ZM193.707 48.6H194.707V47.6H193.707V48.6ZM193.707 99V100H194.707V99H193.707ZM179.499 99H178.499V100H179.499V99ZM186.603 42.224C183.843 42.224 182.035 41.6066 180.957 40.5799L179.577 42.0281C181.187 43.5614 183.603 44.224 186.603 44.224V42.224ZM180.991 40.6143C179.907 39.4762 179.347 38.0362 179.347 36.216H177.347C177.347 38.4918 178.067 40.4438 179.543 41.9937L180.991 40.6143ZM179.347 36.216V34.104H177.347V36.216H179.347ZM179.347 34.104C179.347 32.2832 179.907 30.8863 180.974 29.8191L179.56 28.4049C178.067 29.8977 177.347 31.8287 177.347 34.104H179.347ZM180.974 29.8191C182.053 28.7401 183.854 28.096 186.603 28.096V26.096C183.592 26.096 181.169 26.7959 179.56 28.4049L180.974 29.8191ZM186.603 28.096C189.358 28.096 191.11 28.7423 192.119 29.8017L193.567 28.4223C192.016 26.7937 189.608 26.096 186.603 26.096V28.096ZM192.153 29.8361C193.278 30.9068 193.859 32.2984 193.859 34.104H195.859C195.859 31.8136 195.096 29.8772 193.533 28.3879L192.153 29.8361ZM193.859 34.104V36.216H195.859V34.104H193.859ZM193.859 36.216C193.859 38.0215 193.277 39.4559 192.136 40.5969L193.55 42.0111C195.097 40.4641 195.859 38.5065 195.859 36.216H193.859ZM192.136 40.5969C191.128 41.6043 189.369 42.224 186.603 42.224V44.224C189.597 44.224 191.998 43.5637 193.55 42.0111L192.136 40.5969ZM179.499 49.6H193.707V47.6H179.499V49.6ZM192.707 48.6V99H194.707V48.6H192.707ZM193.707 98H179.499V100H193.707V98ZM180.499 99V48.6H178.499V99H180.499ZM210.328 95.448L209.601 96.1353L209.611 96.1454L210.328 95.448ZM206.968 27.96V26.96H205.968V27.96H206.968ZM221.176 27.96H222.176V26.96H221.176V27.96ZM221.176 87.96H220.176V88.96H221.176V87.96ZM227.512 87.96H228.512V86.96H227.512V87.96ZM227.512 99V100H228.512V99H227.512ZM221.08 98C216.358 98 213.087 96.8497 211.044 94.7506L209.611 96.1454C212.177 98.7823 216.073 100 221.08 100V98ZM211.054 94.7608C209.047 92.6386 207.968 89.4974 207.968 85.176H205.968C205.968 89.8146 207.129 93.5213 209.601 96.1352L211.054 94.7608ZM207.968 85.176V27.96H205.968V85.176H207.968ZM206.968 28.96H221.176V26.96H206.968V28.96ZM220.176 27.96V87.96H222.176V27.96H220.176ZM221.176 88.96H227.512V86.96H221.176V88.96ZM226.512 87.96V99H228.512V87.96H226.512ZM227.512 98H221.08V100H227.512V98ZM238.64 95.448L237.914 96.1353L237.924 96.1454L238.64 95.448ZM235.28 27.96V26.96H234.28V27.96H235.28ZM249.488 27.96H250.488V26.96H249.488V27.96ZM249.488 87.96H248.488V88.96H249.488V87.96ZM255.824 87.96H256.824V86.96H255.824V87.96ZM255.824 99V100H256.824V99H255.824ZM249.392 98C244.671 98 241.399 96.8497 239.357 94.7506L237.924 96.1454C240.489 98.7823 244.386 100 249.392 100V98ZM239.367 94.7608C237.359 92.6386 236.28 89.4974 236.28 85.176H234.28C234.28 89.8146 235.441 93.5213 237.914 96.1352L239.367 94.7608ZM236.28 85.176V27.96H234.28V85.176H236.28ZM235.28 28.96H249.488V26.96H235.28V28.96ZM248.488 27.96V87.96H250.488V27.96H248.488ZM249.488 88.96H255.824V86.96H249.488V88.96ZM254.824 87.96V99H256.824V87.96H254.824ZM255.824 98H249.392V100H255.824V98ZM269.143 97.848L268.709 98.7493L268.717 98.7527L268.724 98.756L269.143 97.848ZM260.215 91.128L259.504 90.4249L258.836 91.0999L259.476 91.8015L260.215 91.128ZM268.567 82.68L269.309 82.0097L268.6 81.2244L267.856 81.9769L268.567 82.68ZM274.519 87.384L274.987 86.5002L274.519 87.384ZM287.767 87.864L288.374 88.6584L288.389 88.6474L288.402 88.6359L287.767 87.864ZM284.311 80.088L284.442 79.0966L284.433 79.0955L284.311 80.088ZM278.839 79.416L278.715 80.4084L278.717 80.4085L278.839 79.416ZM263.191 57.24L262.285 56.8156L262.282 56.822L262.279 56.8284L263.191 57.24ZM267.127 52.056L267.773 52.8194L267.775 52.8172L267.127 52.056ZM273.271 48.696L273.579 49.6472L273.587 49.6447L273.594 49.6422L273.271 48.696ZM288.343 48.024L288.153 49.0058L288.171 49.0092L288.188 49.012L288.343 48.024ZM293.719 49.56L293.302 50.4691L293.324 50.4793L293.347 50.4885L293.719 49.56ZM298.039 52.056L297.414 52.8369L297.435 52.8539L297.458 52.8697L298.039 52.056ZM301.975 55.32L302.69 56.0188L303.399 55.2935L302.664 54.595L301.975 55.32ZM293.815 63.672L293.108 64.3791L293.823 65.0945L294.53 64.3708L293.815 63.672ZM288.343 59.928L287.907 60.8282L287.924 60.8365L287.942 60.8442L288.343 59.928ZM276.535 65.88L275.798 66.5557L275.827 66.5878L275.859 66.6171L276.535 65.88ZM280.759 67.416L280.604 68.404L280.614 68.4056L280.624 68.4069L280.759 67.416ZM286.423 68.184L286.288 69.1749L286.291 69.1753L286.423 68.184ZM297.079 95.448L297.7 96.2315L297.703 96.2289L297.079 95.448ZM290.263 98.904L289.967 97.9487L289.961 97.9508L290.263 98.904ZM281.431 99.152C276.666 99.152 272.723 98.399 269.562 96.94L268.724 98.756C272.219 100.369 276.467 101.152 281.431 101.152V99.152ZM269.576 96.9467C266.37 95.4054 263.496 93.245 260.954 90.4545L259.476 91.8015C262.181 94.771 265.26 97.0906 268.709 98.7493L269.576 96.9467ZM260.926 91.8311L269.278 83.3831L267.856 81.9769L259.504 90.4249L260.926 91.8311ZM267.825 83.3503C269.688 85.4135 271.763 87.0567 274.051 88.2678L274.987 86.5002C272.922 85.4073 271.029 83.9145 269.309 82.0097L267.825 83.3503ZM274.051 88.2678C276.387 89.5047 279.015 90.112 281.911 90.112V88.112C279.302 88.112 277.002 87.5673 274.987 86.5002L274.051 88.2678ZM281.911 90.112C284.755 90.112 287.004 89.706 288.374 88.6584L287.159 87.0696C286.353 87.686 284.699 88.112 281.911 88.112V90.112ZM288.402 88.6359C289.733 87.5405 290.399 86.0676 290.399 84.312H288.399C288.399 85.5005 287.977 86.3955 287.131 87.0921L288.402 88.6359ZM290.399 84.312C290.399 82.8558 289.861 81.6201 288.766 80.7106C287.713 79.837 286.23 79.3327 284.442 79.0966L284.18 81.0794C285.784 81.2913 286.844 81.715 287.488 82.2494C288.088 82.7479 288.399 83.4002 288.399 84.312H290.399ZM284.433 79.0955L278.961 78.4235L278.717 80.4085L284.189 81.0805L284.433 79.0955ZM278.962 78.4236C273.409 77.7334 269.391 76.1331 266.77 73.7343C264.18 71.3638 262.847 68.1147 262.847 63.864H260.847C260.847 68.5733 262.346 72.3962 265.42 75.2097C268.463 77.9949 272.94 79.6906 278.715 80.4084L278.962 78.4236ZM262.847 63.864C262.847 61.5572 263.271 59.4918 264.102 57.6516L262.279 56.8284C261.318 58.9562 260.847 61.3068 260.847 63.864H262.847ZM264.096 57.6644C264.997 55.7417 266.223 54.1309 267.773 52.8194L266.481 51.2926C264.703 52.7971 263.304 54.6423 262.285 56.8156L264.096 57.6644ZM267.775 52.8172C269.394 51.4381 271.324 50.3787 273.579 49.6472L272.962 47.7448C270.482 48.5493 268.315 49.7299 266.478 51.2948L267.775 52.8172ZM273.594 49.6422C275.906 48.8513 278.515 48.448 281.431 48.448V46.448C278.331 46.448 275.499 46.8767 272.947 47.7498L273.594 49.6422ZM281.431 48.448C284.009 48.448 286.247 48.6369 288.153 49.0058L288.533 47.0422C286.471 46.6431 284.101 46.448 281.431 46.448V48.448ZM288.188 49.012C290.165 49.3209 291.866 49.8108 293.302 50.4691L294.135 48.6509C292.5 47.9012 290.616 47.3671 288.497 47.036L288.188 49.012ZM293.347 50.4885C294.861 51.0939 296.215 51.8773 297.414 52.8369L298.663 51.2751C297.303 50.1867 295.777 49.3061 294.09 48.6315L293.347 50.4885ZM297.458 52.8697C298.761 53.8009 300.037 54.8589 301.286 56.045L302.664 54.595C301.352 53.3491 300.004 52.2311 298.62 51.2423L297.458 52.8697ZM301.259 54.6212L293.099 62.9732L294.53 64.3708L302.69 56.0188L301.259 54.6212ZM294.522 62.9649C292.835 61.2778 290.907 59.9584 288.744 59.0118L287.942 60.8442C289.874 61.6896 291.595 62.8662 293.108 64.3791L294.522 62.9649ZM288.778 59.0278C286.665 58.0051 284.468 57.488 282.199 57.488V59.488C284.153 59.488 286.053 59.9309 287.907 60.8282L288.778 59.0278ZM282.199 57.488C279.717 57.488 277.71 57.8688 276.415 58.84L277.615 60.44C278.368 59.8752 279.816 59.488 282.199 59.488V57.488ZM276.415 58.84C275.139 59.7969 274.479 61.1172 274.479 62.712H276.479C276.479 61.7468 276.843 61.0191 277.615 60.44L276.415 58.84ZM274.479 62.712C274.479 64.2313 274.88 65.5547 275.798 66.5557L277.272 65.2043C276.782 64.6693 276.479 63.8807 276.479 62.712H274.479ZM275.859 66.6171C276.858 67.5325 278.521 68.0785 280.604 68.404L280.913 66.428C278.9 66.1135 277.748 65.6355 277.21 65.1428L275.859 66.6171ZM280.624 68.4069L286.288 69.1749L286.557 67.1931L280.893 66.4251L280.624 68.4069ZM286.291 69.1753C291.718 69.8968 295.644 71.4805 298.204 73.8184C300.733 76.1273 302.031 79.2659 302.031 83.352H304.031C304.031 78.7981 302.561 75.0887 299.553 72.3416C296.577 69.6236 292.199 67.9432 286.555 67.1927L286.291 69.1753ZM302.031 83.352C302.031 85.6386 301.551 87.7242 300.6 89.6248L302.389 90.5192C303.487 88.3238 304.031 85.9294 304.031 83.352H302.031ZM300.6 89.6248C299.646 91.534 298.27 93.2147 296.454 94.6671L297.703 96.2289C299.728 94.6093 301.296 92.706 302.389 90.5192L300.6 89.6248ZM296.457 94.6645C294.715 96.0466 292.559 97.1466 289.967 97.9487L290.558 99.8593C293.343 98.9974 295.731 97.7934 297.7 96.2315L296.457 94.6645ZM289.961 97.9508C287.45 98.7466 284.611 99.152 281.431 99.152V101.152C284.779 101.152 287.827 100.725 290.565 99.8572L289.961 97.9508ZM329.069 113.496L328.121 113.179L327.68 114.496H329.069V113.496ZM357.677 27.96V26.96H356.957L356.729 27.6428L357.677 27.96ZM369.389 27.96L370.338 28.2772L370.778 26.96H369.389V27.96ZM340.781 113.496V114.496H341.501L341.73 113.813L340.781 113.496ZM330.018 113.813L358.626 28.2772L356.729 27.6428L328.121 113.179L330.018 113.813ZM357.677 28.96H369.389V26.96H357.677V28.96ZM368.441 27.6428L339.833 113.179L341.73 113.813L370.338 28.2772L368.441 27.6428ZM340.781 112.496H329.069V114.496H340.781V112.496ZM382.826 84.792L382.292 83.946L381.826 84.2402V84.792H382.826ZM405.673 70.392L406.207 71.238L406.673 70.9438V70.392H405.673ZM405.673 69.72H406.673V69.1682L406.207 68.874L405.673 69.72ZM382.826 55.32H381.826V55.8718L382.292 56.166L382.826 55.32ZM382.826 41.016L383.373 40.1794L381.826 39.1659V41.016H382.826ZM420.65 65.784H421.65V65.2435L421.197 64.9474L420.65 65.784ZM420.65 74.136L421.202 74.9697L421.65 74.6731V74.136H420.65ZM382.826 99.192H381.826V101.054L383.378 100.026L382.826 99.192ZM383.359 85.638L406.207 71.238L405.14 69.546L382.292 83.946L383.359 85.638ZM406.673 70.392V69.72H404.673V70.392H406.673ZM406.207 68.874L383.359 54.474L382.292 56.166L405.14 70.566L406.207 68.874ZM383.826 55.32V41.016H381.826V55.32H383.826ZM382.278 41.8526L420.102 66.6206L421.197 64.9474L383.373 40.1794L382.278 41.8526ZM419.65 65.784V74.136H421.65V65.784H419.65ZM420.097 73.3023L382.273 98.3583L383.378 100.026L421.202 74.9697L420.097 73.3023ZM383.826 99.192V84.792H381.826V99.192H383.826Z" fill="#61DAFB" fill-opacity="0.3"/>
</svg>
