<svg width="76" height="76" viewBox="0 0 76 76" fill="none" xmlns="http://www.w3.org/2000/svg">
<g clip-path="url(#clip0_38_138)">
<path d="M0 38V0H76V76H0" fill="#007ACC"/>
<path d="M16.6631 38.133V41.23H26.5431V69.35H33.5541V41.23H43.4341V38.19C43.4341 36.48 43.4341 35.093 43.3581 35.055C43.3581 34.998 37.3351 34.979 30.0201 34.979L16.7201 35.036V38.152L16.6631 38.133V38.133ZM61.0661 34.96C63.0041 35.416 64.4861 36.29 65.8161 37.677C66.5191 38.437 67.5641 39.767 67.6401 40.109C67.6401 40.223 64.3531 42.446 62.3581 43.681C62.2821 43.738 61.9781 43.415 61.6741 42.921C60.6861 41.515 59.6791 40.907 58.1021 40.793C55.8221 40.641 54.3021 41.838 54.3021 43.833C54.3021 44.441 54.4161 44.783 54.6441 45.277C55.1571 46.322 56.1071 46.949 59.0521 48.241C64.4861 50.578 66.8421 52.117 68.2671 54.321C69.8821 56.791 70.2431 60.667 69.1601 63.574C67.9441 66.747 64.9801 68.894 60.7431 69.597C59.4131 69.825 56.3731 69.787 54.9481 69.54C51.9081 68.97 49.0011 67.45 47.2151 65.493C46.5121 64.733 45.1631 62.7 45.2391 62.567L45.9611 62.111L48.8111 60.458L50.9581 59.204L51.4521 59.869C52.0791 60.857 53.4851 62.187 54.3021 62.643C56.7721 63.916 60.0781 63.745 61.7121 62.263C62.4151 61.617 62.7191 60.933 62.7191 59.983C62.7191 59.109 62.5861 58.71 62.1491 58.045C61.5411 57.209 60.3251 56.525 56.9051 55.005C52.9721 53.333 51.3001 52.269 49.7421 50.635C48.8491 49.647 48.0321 48.108 47.6521 46.835C47.3671 45.733 47.2721 43.035 47.5381 41.952C48.3551 38.152 51.2241 35.492 55.3281 34.732C56.6581 34.466 59.7931 34.58 61.1041 34.922L61.0661 34.96V34.96Z" fill="white"/>
</g>
<defs>
<clipPath id="clip0_38_138">
<rect width="76" height="76" fill="white"/>
</clipPath>
</defs>
</svg>
