<svg width="231" height="169" viewBox="0 0 231 169" fill="none" xmlns="http://www.w3.org/2000/svg">
<path d="M56.32 145.208C51.712 145.208 47.5733 144.227 43.904 142.264C40.32 140.301 37.5467 137.528 35.584 133.944C33.7067 130.445 32.9387 126.307 33.28 121.528L34.56 102.968C34.7307 100.237 33.9627 98.0613 32.256 96.44C30.5493 94.8187 28.3307 94.008 25.6 94.008H9.6V76.088H25.6C28.3307 76.088 30.5493 75.2773 32.256 73.656C33.9627 71.9493 34.7307 69.7733 34.56 67.128L33.28 47.8C33.024 43.1067 33.8347 39.0533 35.712 35.64C37.5893 32.1413 40.32 29.4533 43.904 27.576C47.488 25.6987 51.6267 24.76 56.32 24.76H67.2V42.68H60.16C57.7707 42.68 55.8507 43.2773 54.4 44.472C52.9493 45.6667 52.3093 47.6293 52.48 50.36L53.76 69.688C54.1013 74.3813 52.4373 78.1787 48.768 81.08C45.184 83.896 40.2347 85.304 33.92 85.304V84.408C40.2347 84.408 45.184 85.9013 48.768 88.888C52.4373 91.7893 54.1013 95.6293 53.76 100.408L52.48 119.608C52.3947 121.912 53.0773 123.789 54.528 125.24C55.9787 126.605 57.856 127.288 60.16 127.288H67.2V145.208H56.32ZM85.198 131V37.56H104.398V73.4H125.902V37.56H145.102V131H125.902V91.32H104.398V131H85.198ZM163.1 145.208V127.288H170.14C172.444 127.288 174.321 126.605 175.772 125.24C177.308 123.789 177.991 121.912 177.82 119.608L176.54 100.408C176.199 95.6293 177.863 91.7893 181.532 88.888C185.201 85.9013 190.151 84.408 196.38 84.408V85.304C190.151 85.304 185.201 83.896 181.532 81.08C177.863 78.1787 176.199 74.3813 176.54 69.688L177.82 50.36C177.991 47.6293 177.351 45.6667 175.9 44.472C174.535 43.2773 172.615 42.68 170.14 42.68H163.1V24.76H173.98C178.673 24.76 182.812 25.6987 186.396 27.576C189.98 29.4533 192.711 32.1413 194.588 35.64C196.551 39.0533 197.361 43.1067 197.02 47.8L195.74 67.128C195.569 69.7733 196.337 71.9493 198.044 73.656C199.836 75.2773 202.055 76.088 204.7 76.088H220.7V94.008H204.7C202.055 94.008 199.836 94.8187 198.044 96.44C196.337 98.0613 195.569 100.237 195.74 102.968L197.02 121.528C197.361 126.307 196.551 130.445 194.588 133.944C192.711 137.528 189.98 140.301 186.396 142.264C182.812 144.227 178.673 145.208 173.98 145.208H163.1Z" fill="url(#paint0_linear_2_27)"/>
<defs>
<linearGradient id="paint0_linear_2_27" x1="231" y1="169" x2="3.19956e-08" y2="-4.37336e-08" gradientUnits="userSpaceOnUse">
<stop stop-color="#8095D1"/>
<stop offset="1" stop-color="#4463B9"/>
</linearGradient>
</defs>
</svg>
