<svg width="461" height="169" viewBox="0 0 461 169" fill="none" xmlns="http://www.w3.org/2000/svg">
<g filter="url(#filter0_d_2_27)">
<g filter="url(#filter1_d_2_27)">
<path d="M56.32 145.208C51.712 145.208 47.5733 144.227 43.904 142.264C40.32 140.301 37.5467 137.528 35.584 133.944C33.7067 130.445 32.9387 126.307 33.28 121.528L34.56 102.968C34.7307 100.237 33.9627 98.0613 32.256 96.44C30.5493 94.8187 28.3307 94.008 25.6 94.008H9.6V76.088H25.6C28.3307 76.088 30.5493 75.2773 32.256 73.656C33.9627 71.9493 34.7307 69.7733 34.56 67.128L33.28 47.8C33.024 43.1067 33.8347 39.0533 35.712 35.64C37.5893 32.1413 40.32 29.4533 43.904 27.576C47.488 25.6987 51.6267 24.76 56.32 24.76H67.2V42.68H60.16C57.7707 42.68 55.8507 43.2773 54.4 44.472C52.9493 45.6667 52.3093 47.6293 52.48 50.36L53.76 69.688C54.1013 74.3813 52.4373 78.1787 48.768 81.08C45.184 83.896 40.2347 85.304 33.92 85.304V84.408C40.2347 84.408 45.184 85.9013 48.768 88.888C52.4373 91.7893 54.1013 95.6293 53.76 100.408L52.48 119.608C52.3947 121.912 53.0773 123.789 54.528 125.24C55.9787 126.605 57.856 127.288 60.16 127.288H67.2V145.208H56.32ZM85.198 131V37.56H104.398V73.4H125.902V37.56H145.102V131H125.902V91.32H104.398V131H85.198ZM182.812 132.28C175.729 132.28 170.097 130.36 165.916 126.52C161.82 122.68 159.772 117.475 159.772 110.904C159.772 103.821 162.204 98.4027 167.068 94.648C172.017 90.808 179.1 88.888 188.316 88.888H202.908V83.64C202.908 80.9093 201.927 78.7333 199.964 77.112C198.087 75.4907 195.527 74.68 192.284 74.68C189.297 74.68 186.823 75.3627 184.86 76.728C182.897 78.0933 181.703 79.9707 181.276 82.36H162.716C163.484 75.2773 166.556 69.688 171.932 65.592C177.393 61.4107 184.391 59.32 192.924 59.32C201.884 59.32 208.967 61.5387 214.172 65.976C219.463 70.328 222.108 76.216 222.108 83.64V131H203.548V119.48H200.476L203.676 115C203.676 120.291 201.756 124.515 197.916 127.672C194.161 130.744 189.127 132.28 182.812 132.28ZM189.98 118.2C193.735 118.2 196.807 117.219 199.196 115.256C201.671 113.208 202.908 110.563 202.908 107.32V99.768H188.7C185.799 99.768 183.452 100.621 181.66 102.328C179.868 103.949 178.972 106.125 178.972 108.856C178.972 111.757 179.953 114.061 181.916 115.768C183.879 117.389 186.567 118.2 189.98 118.2ZM280.17 131C275.221 131 270.869 129.976 267.114 127.928C263.359 125.795 260.415 122.851 258.282 119.096C256.234 115.341 255.21 110.989 255.21 106.04V54.84H233.45V37.56H274.41V106.04C274.41 108.344 275.093 110.221 276.458 111.672C277.909 113.037 279.786 113.72 282.09 113.72H302.57V131H280.17ZM314.68 131V37.56H337.08L361.272 109.88C361.016 106.723 360.717 103.096 360.376 99C360.035 94.8187 359.736 90.68 359.48 86.584C359.309 82.4027 359.224 78.8613 359.224 75.96V37.56H376.12V131H353.72L329.784 58.68C330.04 61.4107 330.296 64.6533 330.552 68.408C330.808 72.1627 331.021 75.96 331.192 79.8C331.448 83.64 331.576 87.0533 331.576 90.04V131H314.68ZM393.35 145.208V127.288H400.39C402.694 127.288 404.571 126.605 406.022 125.24C407.558 123.789 408.241 121.912 408.07 119.608L406.79 100.408C406.449 95.6293 408.113 91.7893 411.782 88.888C415.451 85.9013 420.401 84.408 426.63 84.408V85.304C420.401 85.304 415.451 83.896 411.782 81.08C408.113 78.1787 406.449 74.3813 406.79 69.688L408.07 50.36C408.241 47.6293 407.601 45.6667 406.15 44.472C404.785 43.2773 402.865 42.68 400.39 42.68H393.35V24.76H404.23C408.923 24.76 413.062 25.6987 416.646 27.576C420.23 29.4533 422.961 32.1413 424.838 35.64C426.801 39.0533 427.611 43.1067 427.27 47.8L425.99 67.128C425.819 69.7733 426.587 71.9493 428.294 73.656C430.086 75.2773 432.305 76.088 434.95 76.088H450.95V94.008H434.95C432.305 94.008 430.086 94.8187 428.294 96.44C426.587 98.0613 425.819 100.237 425.99 102.968L427.27 121.528C427.611 126.307 426.801 130.445 424.838 133.944C422.961 137.528 420.23 140.301 416.646 142.264C413.062 144.227 408.923 145.208 404.23 145.208H393.35Z" fill="#4463B9"/>
<path d="M43.904 142.264L43.4237 143.141L43.4324 143.146L43.904 142.264ZM35.584 133.944L34.7028 134.417L34.7069 134.424L35.584 133.944ZM33.28 121.528L34.2775 121.599L34.2776 121.597L33.28 121.528ZM34.56 102.968L35.5577 103.037L35.5581 103.03L34.56 102.968ZM32.256 96.44L31.5673 97.165L31.5673 97.165L32.256 96.44ZM9.6 94.008H8.6V95.008H9.6V94.008ZM9.6 76.088V75.088H8.6V76.088H9.6ZM32.256 73.656L32.9447 74.381L32.954 74.3722L32.9631 74.3631L32.256 73.656ZM34.56 67.128L35.5579 67.0636L35.5578 67.0619L34.56 67.128ZM33.28 47.8L32.2814 47.8545L32.2822 47.8661L33.28 47.8ZM35.712 35.64L36.5883 36.1219L36.5932 36.1128L35.712 35.64ZM67.2 24.76H68.2V23.76H67.2V24.76ZM67.2 42.68V43.68H68.2V42.68H67.2ZM54.4 44.472L53.7643 43.7001L53.7643 43.7001L54.4 44.472ZM52.48 50.36L51.4819 50.4224L51.4822 50.4261L52.48 50.36ZM53.76 69.688L52.7622 69.7541L52.7626 69.7605L53.76 69.688ZM48.768 81.08L49.3858 81.8663L49.3882 81.8644L48.768 81.08ZM33.92 85.304H32.92V86.304H33.92V85.304ZM33.92 84.408V83.408H32.92V84.408H33.92ZM48.768 88.888L48.1278 89.6562L48.1377 89.6644L48.1478 89.6724L48.768 88.888ZM53.76 100.408L52.7625 100.337L52.7622 100.341L53.76 100.408ZM52.48 119.608L51.4822 119.541L51.4812 119.556L51.4807 119.571L52.48 119.608ZM54.528 125.24L53.8209 125.947L53.8316 125.958L53.8426 125.968L54.528 125.24ZM67.2 127.288H68.2V126.288H67.2V127.288ZM67.2 145.208V146.208H68.2V145.208H67.2ZM56.32 144.208C51.8586 144.208 47.8848 143.259 44.3757 141.382L43.4324 143.146C47.2619 145.194 51.5654 146.208 56.32 146.208V144.208ZM44.3843 141.387C40.9677 139.516 38.3321 136.88 36.4611 133.464L34.7069 134.424C36.7613 138.176 39.6723 141.087 43.4237 143.141L44.3843 141.387ZM36.4652 133.471C34.6942 130.171 33.9468 126.228 34.2775 121.599L32.2825 121.457C31.9305 126.385 32.7191 130.72 34.7028 134.417L36.4652 133.471ZM34.2776 121.597L35.5576 103.037L33.5624 102.899L32.2824 121.459L34.2776 121.597ZM35.5581 103.03C35.7438 100.058 34.9019 97.5743 32.9447 95.715L31.5673 97.165C33.0235 98.5484 33.7175 100.417 33.5619 102.906L35.5581 103.03ZM32.9447 95.715C31.0226 93.889 28.543 93.008 25.6 93.008V95.008C28.1183 95.008 30.0761 95.7484 31.5673 97.165L32.9447 95.715ZM25.6 93.008H9.6V95.008H25.6V93.008ZM10.6 94.008V76.088H8.6V94.008H10.6ZM9.6 77.088H25.6V75.088H9.6V77.088ZM25.6 77.088C28.543 77.088 31.0226 76.207 32.9447 74.381L31.5673 72.931C30.0761 74.3476 28.1183 75.088 25.6 75.088V77.088ZM32.9631 74.3631C34.8946 72.4316 35.7451 69.9643 35.5579 67.0636L33.5621 67.1924C33.7163 69.5824 33.0308 71.467 31.5489 72.9489L32.9631 74.3631ZM35.5578 67.0619L34.2778 47.7339L32.2822 47.8661L33.5622 67.1941L35.5578 67.0619ZM34.2785 47.7455C34.0306 43.2001 34.8181 39.3404 36.5882 36.1219L34.8358 35.1581C32.8513 38.7663 32.0174 43.0132 32.2815 47.8545L34.2785 47.7455ZM36.5932 36.1128C38.374 32.794 40.9577 30.2482 44.368 28.4618L43.44 26.6902C39.6823 28.6585 36.8047 31.4887 34.8308 35.1672L36.5932 36.1128ZM44.368 28.4618C47.7875 26.6707 51.7623 25.76 56.32 25.76V23.76C51.491 23.76 47.1885 24.7267 43.44 26.6902L44.368 28.4618ZM56.32 25.76H67.2V23.76H56.32V25.76ZM66.2 24.76V42.68H68.2V24.76H66.2ZM67.2 41.68H60.16V43.68H67.2V41.68ZM60.16 41.68C57.603 41.68 55.438 42.3217 53.7643 43.7001L55.0357 45.2439C56.2633 44.233 57.9383 43.68 60.16 43.68V41.68ZM53.7643 43.7001C51.9671 45.1801 51.3009 47.5257 51.482 50.4224L53.4781 50.2976C53.3178 47.733 53.9316 46.1532 55.0357 45.2439L53.7643 43.7001ZM51.4822 50.4261L52.7622 69.7541L54.7578 69.6219L53.4778 50.2939L51.4822 50.4261ZM52.7626 69.7605C53.0801 74.1258 51.5553 77.6012 48.1478 80.2956L49.3882 81.8644C53.3194 78.7561 55.1226 74.6369 54.7574 69.6155L52.7626 69.7605ZM48.1502 80.2937C44.7993 82.9265 40.0957 84.304 33.92 84.304V86.304C40.3737 86.304 45.5687 84.8655 49.3858 81.8663L48.1502 80.2937ZM34.92 85.304V84.408H32.92V85.304H34.92ZM33.92 85.408C40.0835 85.408 44.7783 86.8649 48.1278 89.6562L49.4082 88.1198C45.5898 84.9377 40.3858 83.408 33.92 83.408V85.408ZM48.1478 89.6724C51.5501 92.3626 53.081 95.8786 52.7625 100.337L54.7575 100.479C55.1217 95.3801 53.3246 91.216 49.3882 88.1036L48.1478 89.6724ZM52.7622 100.341L51.4822 119.541L53.4778 119.675L54.7578 100.475L52.7622 100.341ZM51.4807 119.571C51.3865 122.115 52.1482 124.274 53.8209 125.947L55.2351 124.533C54.0064 123.304 53.4029 121.709 53.4793 119.645L51.4807 119.571ZM53.8426 125.968C55.5078 127.535 57.644 128.288 60.16 128.288V126.288C58.068 126.288 56.4496 125.675 55.2134 124.512L53.8426 125.968ZM60.16 128.288H67.2V126.288H60.16V128.288ZM66.2 127.288V145.208H68.2V127.288H66.2ZM67.2 144.208H56.32V146.208H67.2V144.208ZM85.198 131H84.198V132H85.198V131ZM85.198 37.56V36.56H84.198V37.56H85.198ZM104.398 37.56H105.398V36.56H104.398V37.56ZM104.398 73.4H103.398V74.4H104.398V73.4ZM125.902 73.4V74.4H126.902V73.4H125.902ZM125.902 37.56V36.56H124.902V37.56H125.902ZM145.102 37.56H146.102V36.56H145.102V37.56ZM145.102 131V132H146.102V131H145.102ZM125.902 131H124.902V132H125.902V131ZM125.902 91.32H126.902V90.32H125.902V91.32ZM104.398 91.32V90.32H103.398V91.32H104.398ZM104.398 131V132H105.398V131H104.398ZM86.198 131V37.56H84.198V131H86.198ZM85.198 38.56H104.398V36.56H85.198V38.56ZM103.398 37.56V73.4H105.398V37.56H103.398ZM104.398 74.4H125.902V72.4H104.398V74.4ZM126.902 73.4V37.56H124.902V73.4H126.902ZM125.902 38.56H145.102V36.56H125.902V38.56ZM144.102 37.56V131H146.102V37.56H144.102ZM145.102 130H125.902V132H145.102V130ZM126.902 131V91.32H124.902V131H126.902ZM125.902 90.32H104.398V92.32H125.902V90.32ZM103.398 91.32V131H105.398V91.32H103.398ZM104.398 130H85.198V132H104.398V130ZM165.916 126.52L165.232 127.25L165.24 127.257L165.916 126.52ZM167.068 94.648L167.679 95.4396L167.681 95.4381L167.068 94.648ZM202.908 88.888V89.888H203.908V88.888H202.908ZM199.964 77.112L199.31 77.8688L199.319 77.876L199.327 77.883L199.964 77.112ZM184.86 76.728L184.289 75.9071L184.289 75.9071L184.86 76.728ZM181.276 82.36V83.36H182.113L182.26 82.5358L181.276 82.36ZM162.716 82.36L161.722 82.2522L161.602 83.36H162.716V82.36ZM171.932 65.592L172.538 66.3874L172.54 66.386L171.932 65.592ZM214.172 65.976L213.523 66.737L213.53 66.7427L213.537 66.7483L214.172 65.976ZM222.108 131V132H223.108V131H222.108ZM203.548 131H202.548V132H203.548V131ZM203.548 119.48H204.548V118.48H203.548V119.48ZM200.476 119.48L199.662 118.899L198.533 120.48H200.476V119.48ZM203.676 115H204.676V111.88L202.862 114.419L203.676 115ZM197.916 127.672L198.549 128.446L198.551 128.444L197.916 127.672ZM199.196 115.256L199.831 116.029L199.834 116.026L199.196 115.256ZM202.908 99.768H203.908V98.768H202.908V99.768ZM181.66 102.328L182.331 103.07L182.34 103.061L182.35 103.052L181.66 102.328ZM181.916 115.768L181.26 116.523L181.269 116.531L181.279 116.539L181.916 115.768ZM182.812 131.28C175.915 131.28 170.547 129.415 166.592 125.783L165.24 127.257C169.648 131.305 175.544 133.28 182.812 133.28V131.28ZM166.6 125.79C162.74 122.172 160.772 117.25 160.772 110.904H158.772C158.772 117.7 160.9 123.188 165.232 127.25L166.6 125.79ZM160.772 110.904C160.772 104.078 163.1 98.9744 167.679 95.4396L166.457 93.8564C161.308 97.8309 158.772 103.565 158.772 110.904H160.772ZM167.681 95.4381C172.389 91.7851 179.221 89.888 188.316 89.888V87.888C178.979 87.888 171.645 89.8309 166.455 93.8579L167.681 95.4381ZM188.316 89.888H202.908V87.888H188.316V89.888ZM203.908 88.888V83.64H201.908V88.888H203.908ZM203.908 83.64C203.908 80.6358 202.812 78.1676 200.601 76.341L199.327 77.883C201.041 79.2991 201.908 81.1829 201.908 83.64H203.908ZM200.618 76.3552C198.509 74.534 195.692 73.68 192.284 73.68V75.68C195.362 75.68 197.664 76.4473 199.31 77.8688L200.618 76.3552ZM192.284 73.68C189.144 73.68 186.457 74.399 184.289 75.9071L185.431 77.5489C187.188 76.3263 189.45 75.68 192.284 75.68V73.68ZM184.289 75.9071C182.105 77.4266 180.764 79.5379 180.292 82.1842L182.26 82.5358C182.641 80.4034 183.69 78.76 185.431 77.5489L184.289 75.9071ZM181.276 81.36H162.716V83.36H181.276V81.36ZM163.71 82.4678C164.45 75.6413 167.393 70.3073 172.538 66.3874L171.326 64.7966C165.719 69.0687 162.518 74.9133 161.722 82.2522L163.71 82.4678ZM172.54 66.386C177.788 62.3677 184.556 60.32 192.924 60.32V58.32C184.225 58.32 176.998 60.4536 171.324 64.798L172.54 66.386ZM192.924 60.32C201.721 60.32 208.549 62.4964 213.523 66.737L214.821 65.215C209.385 60.5809 202.047 58.32 192.924 58.32V60.32ZM213.537 66.7483C218.575 70.8929 221.108 76.4865 221.108 83.64H223.108C223.108 75.9455 220.35 69.7631 214.807 65.2037L213.537 66.7483ZM221.108 83.64V131H223.108V83.64H221.108ZM222.108 130H203.548V132H222.108V130ZM204.548 131V119.48H202.548V131H204.548ZM203.548 118.48H200.476V120.48H203.548V118.48ZM201.29 120.061L204.49 115.581L202.862 114.419L199.662 118.899L201.29 120.061ZM202.676 115C202.676 120.014 200.873 123.946 197.281 126.9L198.551 128.444C202.639 125.084 204.676 120.568 204.676 115H202.676ZM197.283 126.898C193.755 129.785 188.966 131.28 182.812 131.28V133.28C189.287 133.28 194.568 131.703 198.549 128.446L197.283 126.898ZM189.98 119.2C193.915 119.2 197.226 118.168 199.831 116.029L198.561 114.483C196.387 116.269 193.555 117.2 189.98 117.2V119.2ZM199.834 116.026C202.54 113.786 203.908 110.857 203.908 107.32H201.908C201.908 110.268 200.801 112.63 198.558 114.486L199.834 116.026ZM203.908 107.32V99.768H201.908V107.32H203.908ZM202.908 98.768H188.7V100.768H202.908V98.768ZM188.7 98.768C185.589 98.768 182.98 99.6899 180.97 101.604L182.35 103.052C183.924 101.553 186.008 100.768 188.7 100.768V98.768ZM180.989 101.586C178.959 103.423 177.972 105.883 177.972 108.856H179.972C179.972 106.367 180.777 104.476 182.331 103.07L180.989 101.586ZM177.972 108.856C177.972 112.009 179.052 114.603 181.26 116.523L182.572 115.013C180.855 113.52 179.972 111.505 179.972 108.856H177.972ZM181.279 116.539C183.474 118.352 186.414 119.2 189.98 119.2V117.2C186.72 117.2 184.283 116.427 182.553 114.997L181.279 116.539ZM267.114 127.928L266.62 128.797L266.628 128.802L266.635 128.806L267.114 127.928ZM258.282 119.096L257.404 119.575L257.408 119.582L257.413 119.59L258.282 119.096ZM255.21 54.84H256.21V53.84H255.21V54.84ZM233.45 54.84H232.45V55.84H233.45V54.84ZM233.45 37.56V36.56H232.45V37.56H233.45ZM274.41 37.56H275.41V36.56H274.41V37.56ZM276.458 111.672L275.73 112.357L275.751 112.379L275.773 112.4L276.458 111.672ZM302.57 113.72H303.57V112.72H302.57V113.72ZM302.57 131V132H303.57V131H302.57ZM280.17 130C275.361 130 271.179 129.006 267.593 127.05L266.635 128.806C270.558 130.946 275.08 132 280.17 132V130ZM267.608 127.059C264.01 125.014 261.196 122.2 259.151 118.602L257.413 119.59C259.635 123.501 262.709 126.575 266.62 128.797L267.608 127.059ZM259.16 118.617C257.204 115.031 256.21 110.849 256.21 106.04H254.21C254.21 111.13 255.264 115.652 257.404 119.575L259.16 118.617ZM256.21 106.04V54.84H254.21V106.04H256.21ZM255.21 53.84H233.45V55.84H255.21V53.84ZM234.45 54.84V37.56H232.45V54.84H234.45ZM233.45 38.56H274.41V36.56H233.45V38.56ZM273.41 37.56V106.04H275.41V37.56H273.41ZM273.41 106.04C273.41 108.556 274.163 110.692 275.73 112.357L277.186 110.987C276.023 109.75 275.41 108.132 275.41 106.04H273.41ZM275.773 112.4C277.438 113.967 279.574 114.72 282.09 114.72V112.72C279.998 112.72 278.38 112.107 277.143 110.944L275.773 112.4ZM282.09 114.72H302.57V112.72H282.09V114.72ZM301.57 113.72V131H303.57V113.72H301.57ZM302.57 130H280.17V132H302.57V130ZM314.68 131H313.68V132H314.68V131ZM314.68 37.56V36.56H313.68V37.56H314.68ZM337.08 37.56L338.028 37.2428L337.8 36.56H337.08V37.56ZM361.272 109.88L360.324 110.197L362.269 109.799L361.272 109.88ZM360.376 99L359.379 99.0814L359.379 99.083L360.376 99ZM359.48 86.584L358.481 86.6248L358.481 86.6356L358.482 86.6464L359.48 86.584ZM359.224 37.56V36.56H358.224V37.56H359.224ZM376.12 37.56H377.12V36.56H376.12V37.56ZM376.12 131V132H377.12V131H376.12ZM353.72 131L352.771 131.314L352.998 132H353.72V131ZM329.784 58.68L330.733 58.3658L328.788 58.7733L329.784 58.68ZM330.552 68.408L331.55 68.34L331.55 68.34L330.552 68.408ZM331.192 79.8L330.193 79.8444L330.193 79.8555L330.194 79.8665L331.192 79.8ZM331.576 131V132H332.576V131H331.576ZM315.68 131V37.56H313.68V131H315.68ZM314.68 38.56H337.08V36.56H314.68V38.56ZM336.132 37.8772L360.324 110.197L362.22 109.563L338.028 37.2428L336.132 37.8772ZM362.269 109.799C362.013 106.641 361.714 103.013 361.373 98.917L359.379 99.083C359.721 103.179 360.019 106.804 360.275 109.961L362.269 109.799ZM361.373 98.9186C361.032 94.7435 360.734 90.6111 360.478 86.5216L358.482 86.6464C358.738 90.7488 359.037 94.8938 359.379 99.0814L361.373 98.9186ZM360.479 86.5432C360.309 82.3701 360.224 78.8433 360.224 75.96H358.224C358.224 78.8794 358.31 82.4352 358.481 86.6248L360.479 86.5432ZM360.224 75.96V37.56H358.224V75.96H360.224ZM359.224 38.56H376.12V36.56H359.224V38.56ZM375.12 37.56V131H377.12V37.56H375.12ZM376.12 130H353.72V132H376.12V130ZM354.669 130.686L330.733 58.3658L328.835 58.9942L352.771 131.314L354.669 130.686ZM328.788 58.7733C329.043 61.4931 329.299 64.7269 329.554 68.476L331.55 68.34C331.293 64.5797 331.037 61.3282 330.78 58.5867L328.788 58.7733ZM329.554 68.476C329.81 72.2227 330.023 76.0121 330.193 79.8444L332.191 79.7556C332.02 75.9079 331.806 72.1027 331.55 68.34L329.554 68.476ZM330.194 79.8665C330.449 83.6903 330.576 87.0808 330.576 90.04H332.576C332.576 87.0259 332.447 83.5897 332.19 79.7335L330.194 79.8665ZM330.576 90.04V131H332.576V90.04H330.576ZM331.576 130H314.68V132H331.576V130ZM393.35 145.208H392.35V146.208H393.35V145.208ZM393.35 127.288V126.288H392.35V127.288H393.35ZM406.022 125.24L406.707 125.968L406.709 125.967L406.022 125.24ZM408.07 119.608L407.072 119.675L407.073 119.682L408.07 119.608ZM406.79 100.408L407.788 100.341L407.787 100.337L406.79 100.408ZM411.782 88.888L412.402 89.6724L412.408 89.668L412.413 89.6636L411.782 88.888ZM426.63 84.408H427.63V83.408H426.63V84.408ZM426.63 85.304V86.304H427.63V85.304H426.63ZM411.782 81.08L411.162 81.8644L411.167 81.8689L411.173 81.8733L411.782 81.08ZM406.79 69.688L407.787 69.7605L407.788 69.7541L406.79 69.688ZM408.07 50.36L409.068 50.4261L409.068 50.4224L408.07 50.36ZM406.15 44.472L405.491 45.2246L405.503 45.2344L405.514 45.2439L406.15 44.472ZM393.35 42.68H392.35V43.68H393.35V42.68ZM393.35 24.76V23.76H392.35V24.76H393.35ZM416.646 27.576L416.182 28.4618L416.182 28.4618L416.646 27.576ZM424.838 35.64L423.957 36.1128L423.964 36.1257L423.971 36.1385L424.838 35.64ZM427.27 47.8L426.273 47.7275L426.272 47.7339L427.27 47.8ZM425.99 67.128L424.992 67.0619L424.992 67.0636L425.99 67.128ZM428.294 73.656L427.587 74.3631L427.605 74.3808L427.623 74.3975L428.294 73.656ZM450.95 76.088H451.95V75.088H450.95V76.088ZM450.95 94.008V95.008H451.95V94.008H450.95ZM428.294 96.44L427.623 95.6985L427.614 95.7066L427.605 95.715L428.294 96.44ZM425.99 102.968L424.992 103.03L424.992 103.037L425.99 102.968ZM427.27 121.528L426.272 121.597L426.273 121.599L427.27 121.528ZM424.838 133.944L423.966 133.455L423.959 133.467L423.952 133.48L424.838 133.944ZM416.646 142.264L416.166 141.387L416.166 141.387L416.646 142.264ZM394.35 145.208V127.288H392.35V145.208H394.35ZM393.35 128.288H400.39V126.288H393.35V128.288ZM400.39 128.288C402.906 128.288 405.042 127.535 406.707 125.968L405.337 124.512C404.1 125.675 402.482 126.288 400.39 126.288V128.288ZM406.709 125.967C408.486 124.289 409.258 122.106 409.067 119.534L407.073 119.682C407.224 121.718 406.63 123.29 405.335 124.513L406.709 125.967ZM409.068 119.541L407.788 100.341L405.792 100.475L407.072 119.675L409.068 119.541ZM407.787 100.337C407.469 95.8786 409 92.3626 412.402 89.6724L411.162 88.1036C407.225 91.216 405.428 95.3801 405.793 100.479L407.787 100.337ZM412.413 89.6636C415.855 86.8625 420.557 85.408 426.63 85.408V83.408C420.244 83.408 415.048 84.9402 411.151 88.1124L412.413 89.6636ZM425.63 84.408V85.304H427.63V84.408H425.63ZM426.63 84.304C420.545 84.304 415.834 82.9289 412.391 80.2867L411.173 81.8733C415.069 84.8631 420.256 86.304 426.63 86.304V84.304ZM412.402 80.2956C408.995 77.6012 407.47 74.1258 407.787 69.7605L405.793 69.6155C405.427 74.6369 407.231 78.7561 411.162 81.8644L412.402 80.2956ZM407.788 69.7541L409.068 50.4261L407.072 50.2939L405.792 69.6219L407.788 69.7541ZM409.068 50.4224C409.249 47.5257 408.583 45.1801 406.786 43.7001L405.514 45.2439C406.618 46.1532 407.232 47.733 407.072 50.2976L409.068 50.4224ZM406.809 43.7194C405.204 42.3152 403.018 41.68 400.39 41.68V43.68C402.711 43.68 404.366 44.2394 405.491 45.2246L406.809 43.7194ZM400.39 41.68H393.35V43.68H400.39V41.68ZM394.35 42.68V24.76H392.35V42.68H394.35ZM393.35 25.76H404.23V23.76H393.35V25.76ZM404.23 25.76C408.788 25.76 412.763 26.6707 416.182 28.4618L417.11 26.6902C413.361 24.7267 409.059 23.76 404.23 23.76V25.76ZM416.182 28.4618C419.592 30.2482 422.176 32.794 423.957 36.1128L425.719 35.1672C423.745 31.4887 420.868 28.6585 417.11 26.6902L416.182 28.4618ZM423.971 36.1385C425.816 39.3473 426.602 43.1937 426.273 47.7275L428.267 47.8725C428.62 43.0196 427.785 38.7593 425.705 35.1415L423.971 36.1385ZM426.272 47.7339L424.992 67.0619L426.988 67.1941L428.268 47.8661L426.272 47.7339ZM424.992 67.0636C424.805 69.9643 425.655 72.4316 427.587 74.3631L429.001 72.9489C427.519 71.467 426.834 69.5824 426.988 67.1924L424.992 67.0636ZM427.623 74.3975C429.617 76.2015 432.082 77.088 434.95 77.088V75.088C432.527 75.088 430.555 74.3531 428.965 72.9145L427.623 74.3975ZM434.95 77.088H450.95V75.088H434.95V77.088ZM449.95 76.088V94.008H451.95V76.088H449.95ZM450.95 93.008H434.95V95.008H450.95V93.008ZM434.95 93.008C432.082 93.008 429.617 93.8945 427.623 95.6985L428.965 97.1815C430.555 95.7429 432.527 95.008 434.95 95.008V93.008ZM427.605 95.715C425.648 97.5743 424.806 100.058 424.992 103.03L426.988 102.906C426.833 100.417 427.527 98.5484 428.983 97.165L427.605 95.715ZM424.992 103.037L426.272 121.597L428.268 121.459L426.988 102.899L424.992 103.037ZM426.273 121.599C426.603 126.221 425.816 130.157 423.966 133.455L425.71 134.433C427.786 130.733 428.62 126.392 428.267 121.457L426.273 121.599ZM423.952 133.48C422.167 136.887 419.579 139.518 416.166 141.387L417.126 143.141C420.881 141.085 423.754 138.169 425.724 134.408L423.952 133.48ZM416.166 141.387C412.75 143.258 408.781 144.208 404.23 144.208V146.208C409.066 146.208 413.374 145.196 417.126 143.141L416.166 141.387ZM404.23 144.208H393.35V146.208H404.23V144.208Z" fill="#37364C"/>
</g>
</g>
<defs>
<filter id="filter0_d_2_27" x="5.59998" y="24.76" width="449.35" height="128.448" filterUnits="userSpaceOnUse" color-interpolation-filters="sRGB">
<feFlood flood-opacity="0" result="BackgroundImageFix"/>
<feColorMatrix in="SourceAlpha" type="matrix" values="0 0 0 0 0 0 0 0 0 0 0 0 0 0 0 0 0 0 127 0" result="hardAlpha"/>
<feOffset dy="4"/>
<feGaussianBlur stdDeviation="2"/>
<feComposite in2="hardAlpha" operator="out"/>
<feColorMatrix type="matrix" values="0 0 0 0 0 0 0 0 0 0 0 0 0 0 0 0 0 0 0.25 0"/>
<feBlend mode="normal" in2="BackgroundImageFix" result="effect1_dropShadow_2_27"/>
<feBlend mode="normal" in="SourceGraphic" in2="effect1_dropShadow_2_27" result="shape"/>
</filter>
<filter id="filter1_d_2_27" x="9.59998" y="24.76" width="449.35" height="128.448" filterUnits="userSpaceOnUse" color-interpolation-filters="sRGB">
<feFlood flood-opacity="0" result="BackgroundImageFix"/>
<feColorMatrix in="SourceAlpha" type="matrix" values="0 0 0 0 0 0 0 0 0 0 0 0 0 0 0 0 0 0 127 0" result="hardAlpha"/>
<feOffset dx="8" dy="8"/>
<feComposite in2="hardAlpha" operator="out"/>
<feColorMatrix type="matrix" values="0 0 0 0 0.184314 0 0 0 0 0.180392 0 0 0 0 0.254902 0 0 0 1 0"/>
<feBlend mode="normal" in2="BackgroundImageFix" result="effect1_dropShadow_2_27"/>
<feBlend mode="normal" in="SourceGraphic" in2="effect1_dropShadow_2_27" result="shape"/>
</filter>
</defs>
</svg>
