<svg width="384" height="169" viewBox="0 0 384 169" fill="none" xmlns="http://www.w3.org/2000/svg">
<g filter="url(#filter0_d_2_27)">
<g filter="url(#filter1_d_2_27)">
<path d="M8.448 131V37.56H27.648V73.4H49.152V37.56H68.352V131H49.152V91.32H27.648V131H8.448ZM106.062 132.28C98.9793 132.28 93.3473 130.36 89.166 126.52C85.07 122.68 83.022 117.475 83.022 110.904C83.022 103.821 85.454 98.4027 90.318 94.648C95.2673 90.808 102.35 88.888 111.566 88.888H126.158V83.64C126.158 80.9093 125.177 78.7333 123.214 77.112C121.337 75.4907 118.777 74.68 115.534 74.68C112.547 74.68 110.073 75.3627 108.11 76.728C106.147 78.0933 104.953 79.9707 104.526 82.36H85.966C86.734 75.2773 89.806 69.688 95.182 65.592C100.643 61.4107 107.641 59.32 116.174 59.32C125.134 59.32 132.217 61.5387 137.422 65.976C142.713 70.328 145.358 76.216 145.358 83.64V131H126.798V119.48H123.726L126.926 115C126.926 120.291 125.006 124.515 121.166 127.672C117.411 130.744 112.377 132.28 106.062 132.28ZM113.23 118.2C116.985 118.2 120.057 117.219 122.446 115.256C124.921 113.208 126.158 110.563 126.158 107.32V99.768H111.95C109.049 99.768 106.702 100.621 104.91 102.328C103.118 103.949 102.222 106.125 102.222 108.856C102.222 111.757 103.203 114.061 105.166 115.768C107.129 117.389 109.817 118.2 113.23 118.2ZM203.42 131C198.471 131 194.119 129.976 190.364 127.928C186.609 125.795 183.665 122.851 181.532 119.096C179.484 115.341 178.46 110.989 178.46 106.04V54.84H156.7V37.56H197.66V106.04C197.66 108.344 198.343 110.221 199.708 111.672C201.159 113.037 203.036 113.72 205.34 113.72H225.82V131H203.42ZM286.57 145.208C281.962 145.208 277.823 144.227 274.154 142.264C270.57 140.301 267.797 137.528 265.834 133.944C263.957 130.445 263.189 126.307 263.53 121.528L264.81 102.968C264.981 100.237 264.213 98.0613 262.506 96.44C260.799 94.8187 258.581 94.008 255.85 94.008H239.85V76.088H255.85C258.581 76.088 260.799 75.2773 262.506 73.656C264.213 71.9493 264.981 69.7733 264.81 67.128L263.53 47.8C263.274 43.1067 264.085 39.0533 265.962 35.64C267.839 32.1413 270.57 29.4533 274.154 27.576C277.738 25.6987 281.877 24.76 286.57 24.76H297.45V42.68H290.41C288.021 42.68 286.101 43.2773 284.65 44.472C283.199 45.6667 282.559 47.6293 282.73 50.36L284.01 69.688C284.351 74.3813 282.687 78.1787 279.018 81.08C275.434 83.896 270.485 85.304 264.17 85.304V84.408C270.485 84.408 275.434 85.9013 279.018 88.888C282.687 91.7893 284.351 95.6293 284.01 100.408L282.73 119.608C282.645 121.912 283.327 123.789 284.778 125.24C286.229 126.605 288.106 127.288 290.41 127.288H297.45V145.208H286.57ZM316.6 145.208V127.288H323.64C325.944 127.288 327.821 126.605 329.272 125.24C330.808 123.789 331.491 121.912 331.32 119.608L330.04 100.408C329.699 95.6293 331.363 91.7893 335.032 88.888C338.701 85.9013 343.651 84.408 349.88 84.408V85.304C343.651 85.304 338.701 83.896 335.032 81.08C331.363 78.1787 329.699 74.3813 330.04 69.688L331.32 50.36C331.491 47.6293 330.851 45.6667 329.4 44.472C328.035 43.2773 326.115 42.68 323.64 42.68H316.6V24.76H327.48C332.173 24.76 336.312 25.6987 339.896 27.576C343.48 29.4533 346.211 32.1413 348.088 35.64C350.051 39.0533 350.861 43.1067 350.52 47.8L349.24 67.128C349.069 69.7733 349.837 71.9493 351.544 73.656C353.336 75.2773 355.555 76.088 358.2 76.088H374.2V94.008H358.2C355.555 94.008 353.336 94.8187 351.544 96.44C349.837 98.0613 349.069 100.237 349.24 102.968L350.52 121.528C350.861 126.307 350.051 130.445 348.088 133.944C346.211 137.528 343.48 140.301 339.896 142.264C336.312 144.227 332.173 145.208 327.48 145.208H316.6Z" fill="#4463B9"/>
<path d="M8.448 131H5.448V134H8.448V131ZM8.448 37.56V34.56H5.448V37.56H8.448ZM27.648 37.56H30.648V34.56H27.648V37.56ZM27.648 73.4H24.648V76.4H27.648V73.4ZM49.152 73.4V76.4H52.152V73.4H49.152ZM49.152 37.56V34.56H46.152V37.56H49.152ZM68.352 37.56H71.352V34.56H68.352V37.56ZM68.352 131V134H71.352V131H68.352ZM49.152 131H46.152V134H49.152V131ZM49.152 91.32H52.152V88.32H49.152V91.32ZM27.648 91.32V88.32H24.648V91.32H27.648ZM27.648 131V134H30.648V131H27.648ZM11.448 131V37.56H5.448V131H11.448ZM8.448 40.56H27.648V34.56H8.448V40.56ZM24.648 37.56V73.4H30.648V37.56H24.648ZM27.648 76.4H49.152V70.4H27.648V76.4ZM52.152 73.4V37.56H46.152V73.4H52.152ZM49.152 40.56H68.352V34.56H49.152V40.56ZM65.352 37.56V131H71.352V37.56H65.352ZM68.352 128H49.152V134H68.352V128ZM52.152 131V91.32H46.152V131H52.152ZM49.152 88.32H27.648V94.32H49.152V88.32ZM24.648 91.32V131H30.648V91.32H24.648ZM27.648 128H8.448V134H27.648V128ZM89.166 126.52L87.1142 128.709L87.1254 128.719L87.1368 128.73L89.166 126.52ZM90.318 94.648L92.1512 97.0228L92.157 97.0183L90.318 94.648ZM126.158 88.888V91.888H129.158V88.888H126.158ZM123.214 77.112L121.253 79.3825L121.278 79.4039L121.303 79.4249L123.214 77.112ZM108.11 76.728L106.397 74.2653L106.397 74.2653L108.11 76.728ZM104.526 82.36V85.36H107.038L107.479 82.8874L104.526 82.36ZM85.966 82.36L82.9835 82.0366L82.6231 85.36H85.966V82.36ZM95.182 65.592L97.0001 67.9783L97.0057 67.974L95.182 65.592ZM137.422 65.976L135.476 68.259L135.496 68.2761L135.516 68.2929L137.422 65.976ZM145.358 131V134H148.358V131H145.358ZM126.798 131H123.798V134H126.798V131ZM126.798 119.48H129.798V116.48H126.798V119.48ZM123.726 119.48L121.285 117.736L117.896 122.48H123.726V119.48ZM126.926 115H129.926V105.639L124.485 113.256L126.926 115ZM121.166 127.672L123.066 129.994L123.071 129.989L121.166 127.672ZM122.446 115.256L124.35 117.574L124.359 117.567L122.446 115.256ZM126.158 99.768H129.158V96.768H126.158V99.768ZM104.91 102.328L106.923 104.553L106.951 104.527L106.979 104.5L104.91 102.328ZM105.166 115.768L103.197 118.032L103.226 118.057L103.255 118.081L105.166 115.768ZM106.062 129.28C99.5367 129.28 94.6949 127.524 91.1952 124.31L87.1368 128.73C91.9997 133.196 98.422 135.28 106.062 135.28V129.28ZM91.2178 124.331C87.8306 121.156 86.022 116.799 86.022 110.904H80.022C80.022 118.15 82.3094 124.204 87.1142 128.709L91.2178 124.331ZM86.022 110.904C86.022 104.59 88.1415 100.118 92.1512 97.0228L88.4848 92.2732C82.7665 96.6874 80.022 103.052 80.022 110.904H86.022ZM92.157 97.0183C96.3833 93.7392 102.714 91.888 111.566 91.888V85.888C101.986 85.888 94.1514 87.8768 88.479 92.2777L92.157 97.0183ZM111.566 91.888H126.158V85.888H111.566V91.888ZM129.158 88.888V83.64H123.158V88.888H129.158ZM129.158 83.64C129.158 80.0887 127.832 77.036 125.125 74.7991L121.303 79.4249C122.521 80.4306 123.158 81.7299 123.158 83.64H129.158ZM125.175 74.8415C122.603 72.6207 119.271 71.68 115.534 71.68V77.68C118.282 77.68 120.07 78.3606 121.253 79.3825L125.175 74.8415ZM115.534 71.68C112.088 71.68 108.975 72.4716 106.397 74.2653L109.823 79.1907C111.17 78.2537 113.006 77.68 115.534 77.68V71.68ZM106.397 74.2653C103.769 76.0932 102.137 78.6725 101.573 81.8326L107.479 82.8874C107.768 81.2688 108.525 80.0935 109.823 79.1907L106.397 74.2653ZM104.526 79.36H85.966V85.36H104.526V79.36ZM88.9485 82.6834C89.6332 76.3694 92.3175 71.546 97.0001 67.9783L93.3639 63.2057C87.2945 67.83 83.8348 74.1853 82.9835 82.0366L88.9485 82.6834ZM97.0057 67.974C101.828 64.2818 108.138 62.32 116.174 62.32V56.32C107.143 56.32 99.4585 58.5395 93.3583 63.21L97.0057 67.974ZM116.174 62.32C124.645 62.32 130.963 64.4119 135.476 68.259L139.368 63.693C133.471 58.6655 125.623 56.32 116.174 56.32V62.32ZM135.516 68.2929C140.051 72.0228 142.358 77.0274 142.358 83.64H148.358C148.358 75.4045 145.375 68.6332 139.328 63.6591L135.516 68.2929ZM142.358 83.64V131H148.358V83.64H142.358ZM145.358 128H126.798V134H145.358V128ZM129.798 131V119.48H123.798V131H129.798ZM126.798 116.48H123.726V122.48H126.798V116.48ZM126.167 121.224L129.367 116.744L124.485 113.256L121.285 117.736L126.167 121.224ZM123.926 115C123.926 119.459 122.358 122.808 119.261 125.355L123.071 129.989C127.654 126.221 129.926 121.122 129.926 115H123.926ZM119.266 125.35C116.191 127.866 111.896 129.28 106.062 129.28V135.28C112.858 135.28 118.632 133.622 123.066 129.994L119.266 125.35ZM113.23 121.2C117.525 121.2 121.316 120.067 124.35 117.574L120.542 112.938C118.797 114.371 116.444 115.2 113.23 115.2V121.2ZM124.359 117.567C127.53 114.943 129.158 111.447 129.158 107.32H123.158C123.158 109.679 122.312 111.473 120.533 112.945L124.359 117.567ZM129.158 107.32V99.768H123.158V107.32H129.158ZM126.158 96.768H111.95V102.768H126.158V96.768ZM111.95 96.768C108.42 96.768 105.286 97.8271 102.841 100.156L106.979 104.5C108.118 103.416 109.677 102.768 111.95 102.768V96.768ZM102.897 100.103C100.391 102.371 99.222 105.4 99.222 108.856H105.222C105.222 106.851 105.845 105.528 106.923 104.553L102.897 100.103ZM99.222 108.856C99.222 112.513 100.499 115.686 103.197 118.032L107.135 113.504C105.907 112.437 105.222 111.001 105.222 108.856H99.222ZM103.255 118.081C105.915 120.278 109.358 121.2 113.23 121.2V115.2C110.276 115.2 108.343 114.501 107.077 113.455L103.255 118.081ZM190.364 127.928L188.882 130.536L188.905 130.549L188.927 130.562L190.364 127.928ZM181.532 119.096L178.898 120.533L178.911 120.555L178.924 120.578L181.532 119.096ZM178.46 54.84H181.46V51.84H178.46V54.84ZM156.7 54.84H153.7V57.84H156.7V54.84ZM156.7 37.56V34.56H153.7V37.56H156.7ZM197.66 37.56H200.66V34.56H197.66V37.56ZM199.708 111.672L197.523 113.728L197.586 113.794L197.652 113.857L199.708 111.672ZM225.82 113.72H228.82V110.72H225.82V113.72ZM225.82 131V134H228.82V131H225.82ZM203.42 128C198.893 128 195.05 127.067 191.801 125.294L188.927 130.562C193.188 132.885 198.048 134 203.42 134V128ZM191.846 125.32C188.561 123.453 186.007 120.899 184.14 117.614L178.924 120.578C181.324 124.803 184.657 128.136 188.882 130.536L191.846 125.32ZM184.166 117.659C182.393 114.41 181.46 110.567 181.46 106.04H175.46C175.46 111.412 176.575 116.272 178.898 120.533L184.166 117.659ZM181.46 106.04V54.84H175.46V106.04H181.46ZM178.46 51.84H156.7V57.84H178.46V51.84ZM159.7 54.84V37.56H153.7V54.84H159.7ZM156.7 40.56H197.66V34.56H156.7V40.56ZM194.66 37.56V106.04H200.66V37.56H194.66ZM194.66 106.04C194.66 108.98 195.553 111.634 197.523 113.728L201.893 109.616C201.133 108.809 200.66 107.708 200.66 106.04H194.66ZM197.652 113.857C199.746 115.827 202.4 116.72 205.34 116.72V110.72C203.672 110.72 202.571 110.247 201.764 109.487L197.652 113.857ZM205.34 116.72H225.82V110.72H205.34V116.72ZM222.82 113.72V131H228.82V113.72H222.82ZM225.82 128H203.42V134H225.82V128ZM274.154 142.264L272.713 144.895L272.726 144.902L272.739 144.909L274.154 142.264ZM265.834 133.944L263.191 135.362L263.197 135.374L263.203 135.385L265.834 133.944ZM263.53 121.528L266.522 121.742L266.523 121.734L263.53 121.528ZM264.81 102.968L267.803 103.174L267.804 103.165L267.804 103.155L264.81 102.968ZM262.506 96.44L260.44 98.615L260.44 98.615L262.506 96.44ZM239.85 94.008H236.85V97.008H239.85V94.008ZM239.85 76.088V73.088H236.85V76.088H239.85ZM262.506 73.656L264.572 75.831L264.6 75.8045L264.627 75.7773L262.506 73.656ZM264.81 67.128L267.804 66.9349L267.803 66.9298L264.81 67.128ZM263.53 47.8L260.534 47.9634L260.535 47.9808L260.537 47.9982L263.53 47.8ZM265.962 35.64L268.591 37.0857L268.598 37.0721L268.605 37.0584L265.962 35.64ZM297.45 24.76H300.45V21.76H297.45V24.76ZM297.45 42.68V45.68H300.45V42.68H297.45ZM284.65 44.472L282.743 42.1562L282.743 42.1562L284.65 44.472ZM282.73 50.36L279.736 50.5471L279.737 50.5582L282.73 50.36ZM284.01 69.688L281.017 69.8862L281.017 69.8959L281.018 69.9056L284.01 69.688ZM279.018 81.08L280.871 83.439L280.879 83.4332L279.018 81.08ZM264.17 85.304H261.17V88.304H264.17V85.304ZM264.17 84.408V81.408H261.17V84.408H264.17ZM279.018 88.888L277.097 91.1927L277.127 91.2173L277.157 91.2412L279.018 88.888ZM284.01 100.408L281.018 100.194L281.017 100.201L281.017 100.208L284.01 100.408ZM282.73 119.608L279.737 119.408L279.734 119.453L279.732 119.497L282.73 119.608ZM284.778 125.24L282.657 127.361L282.689 127.393L282.722 127.425L284.778 125.24ZM297.45 127.288H300.45V124.288H297.45V127.288ZM297.45 145.208V148.208H300.45V145.208H297.45ZM286.57 142.208C282.402 142.208 278.758 141.324 275.569 139.619L272.739 144.909C276.889 147.129 281.522 148.208 286.57 148.208V142.208ZM275.595 139.633C272.513 137.945 270.153 135.585 268.465 132.503L263.203 135.385C265.44 139.471 268.627 142.658 272.713 144.895L275.595 139.633ZM268.477 132.526C266.919 129.622 266.213 126.072 266.522 121.742L260.538 121.314C260.164 126.541 260.994 131.269 263.191 135.362L268.477 132.526ZM266.523 121.734L267.803 103.174L261.817 102.762L260.537 121.322L266.523 121.734ZM267.804 103.155C268.02 99.6986 267.03 96.6001 264.572 94.265L260.44 98.615C261.395 99.5225 261.941 100.776 261.816 102.781L267.804 103.155ZM264.572 94.265C262.219 92.0295 259.218 91.008 255.85 91.008V97.008C257.944 97.008 259.38 97.6078 260.44 98.615L264.572 94.265ZM255.85 91.008H239.85V97.008H255.85V91.008ZM242.85 94.008V76.088H236.85V94.008H242.85ZM239.85 79.088H255.85V73.088H239.85V79.088ZM255.85 79.088C259.218 79.088 262.219 78.0665 264.572 75.831L260.44 71.481C259.38 72.4882 257.944 73.088 255.85 73.088V79.088ZM264.627 75.7773C267.008 73.3963 268.024 70.3462 267.804 66.9349L261.816 67.3211C261.937 69.2004 261.417 70.5024 260.385 71.5347L264.627 75.7773ZM267.803 66.9298L266.523 47.6018L260.537 47.9982L261.817 67.3262L267.803 66.9298ZM266.526 47.6366C266.294 43.387 267.035 39.9145 268.591 37.0857L263.333 34.1942C261.135 38.1921 260.254 42.8264 260.534 47.9634L266.526 47.6366ZM268.605 37.0584C270.193 34.0993 272.483 31.8379 275.546 30.2335L272.762 24.9185C268.657 27.0687 265.485 30.1834 263.319 34.2215L268.605 37.0584ZM275.546 30.2335C278.636 28.6147 282.284 27.76 286.57 27.76V21.76C281.47 21.76 276.84 22.7826 272.762 24.9185L275.546 30.2335ZM286.57 27.76H297.45V21.76H286.57V27.76ZM294.45 24.76V42.68H300.45V24.76H294.45ZM297.45 39.68H290.41V45.68H297.45V39.68ZM290.41 39.68C287.518 39.68 284.863 40.4104 282.743 42.1562L286.557 46.7878C287.339 46.1442 288.524 45.68 290.41 45.68V39.68ZM282.743 42.1562C280.253 44.2071 279.534 47.3183 279.736 50.5471L285.724 50.1729C285.585 47.9403 286.146 47.1263 286.557 46.7878L282.743 42.1562ZM279.737 50.5582L281.017 69.8862L287.003 69.4898L285.723 50.1618L279.737 50.5582ZM281.018 69.9056C281.288 73.6146 280.041 76.4464 277.157 78.7268L280.879 83.4332C285.333 79.9109 287.415 75.1481 287.002 69.4704L281.018 69.9056ZM277.165 78.721C274.28 80.9876 270.068 82.304 264.17 82.304V88.304C270.902 88.304 276.588 86.8044 280.871 83.439L277.165 78.721ZM267.17 85.304V84.408H261.17V85.304H267.17ZM264.17 87.408C270.031 87.408 274.217 88.7921 277.097 91.1927L280.939 86.5833C276.651 83.0106 270.938 81.408 264.17 81.408V87.408ZM277.157 91.2412C280.026 93.5092 281.29 96.3771 281.018 100.194L287.002 100.622C287.412 94.8815 285.349 90.0694 280.879 86.5347L277.157 91.2412ZM281.017 100.208L279.737 119.408L285.723 119.808L287.003 100.608L281.017 100.208ZM279.732 119.497C279.62 122.521 280.54 125.245 282.657 127.361L286.899 123.119C286.115 122.334 285.669 121.303 285.728 119.719L279.732 119.497ZM282.722 127.425C284.816 129.395 287.47 130.288 290.41 130.288V124.288C288.742 124.288 287.641 123.815 286.834 123.055L282.722 127.425ZM290.41 130.288H297.45V124.288H290.41V130.288ZM294.45 127.288V145.208H300.45V127.288H294.45ZM297.45 142.208H286.57V148.208H297.45V142.208ZM316.6 145.208H313.6V148.208H316.6V145.208ZM316.6 127.288V124.288H313.6V127.288H316.6ZM329.272 125.24L331.328 127.425L331.332 127.421L329.272 125.24ZM331.32 119.608L328.327 119.808L328.327 119.819L328.328 119.83L331.32 119.608ZM330.04 100.408L333.033 100.208L333.033 100.201L333.032 100.194L330.04 100.408ZM335.032 88.888L336.893 91.2412L336.909 91.2281L336.926 91.2147L335.032 88.888ZM349.88 84.408H352.88V81.408H349.88V84.408ZM349.88 85.304V88.304H352.88V85.304H349.88ZM335.032 81.08L333.171 83.4332L333.188 83.4467L333.206 83.4599L335.032 81.08ZM330.04 69.688L333.032 69.9056L333.033 69.8959L333.033 69.8862L330.04 69.688ZM331.32 50.36L334.313 50.5582L334.314 50.5471L331.32 50.36ZM329.4 44.472L327.424 46.7297L327.458 46.7593L327.493 46.7878L329.4 44.472ZM316.6 42.68H313.6V45.68H316.6V42.68ZM316.6 24.76V21.76H313.6V24.76H316.6ZM339.896 27.576L338.504 30.2335L338.504 30.2335L339.896 27.576ZM348.088 35.64L345.445 37.0584L345.465 37.0972L345.487 37.1354L348.088 35.64ZM350.52 47.8L347.528 47.5824L347.527 47.5921L347.527 47.6018L350.52 47.8ZM349.24 67.128L346.247 66.9298L346.246 66.9349L349.24 67.128ZM351.544 73.656L349.423 75.7773L349.476 75.8303L349.531 75.8806L351.544 73.656ZM374.2 76.088H377.2V73.088H374.2V76.088ZM374.2 94.008V97.008H377.2V94.008H374.2ZM351.544 96.44L349.531 94.2154L349.504 94.2399L349.478 94.265L351.544 96.44ZM349.24 102.968L346.246 103.155L346.246 103.165L346.247 103.174L349.24 102.968ZM350.52 121.528L347.527 121.734L347.528 121.742L350.52 121.528ZM348.088 133.944L345.472 132.476L345.45 132.514L345.431 132.552L348.088 133.944ZM339.896 142.264L338.455 139.633L338.455 139.633L339.896 142.264ZM319.6 145.208V127.288H313.6V145.208H319.6ZM316.6 130.288H323.64V124.288H316.6V130.288ZM323.64 130.288C326.58 130.288 329.234 129.395 331.328 127.425L327.216 123.055C326.409 123.815 325.308 124.288 323.64 124.288V130.288ZM331.332 127.421C333.591 125.287 334.542 122.495 334.312 119.386L328.328 119.83C328.439 121.329 328.025 122.291 327.212 123.059L331.332 127.421ZM334.313 119.408L333.033 100.208L327.047 100.608L328.327 119.808L334.313 119.408ZM333.032 100.194C332.76 96.3771 334.024 93.5092 336.893 91.2412L333.171 86.5348C328.701 90.0694 326.638 94.8815 327.048 100.622L333.032 100.194ZM336.926 91.2147C339.911 88.7847 344.12 87.408 349.88 87.408V81.408C343.181 81.408 337.491 83.0179 333.138 86.5613L336.926 91.2147ZM346.88 84.408V85.304H352.88V84.408H346.88ZM349.88 82.304C344.084 82.304 339.848 80.9946 336.858 78.7001L333.206 83.4599C337.554 86.7974 343.217 88.304 349.88 88.304V82.304ZM336.893 78.7268C334.009 76.4464 332.762 73.6146 333.032 69.9056L327.048 69.4704C326.635 75.1481 328.717 79.9109 333.171 83.4332L336.893 78.7268ZM333.033 69.8862L334.313 50.5582L328.327 50.1618L327.047 69.4898L333.033 69.8862ZM334.314 50.5471C334.516 47.3183 333.797 44.2071 331.307 42.1562L327.493 46.7878C327.904 47.1263 328.465 47.9403 328.326 50.1729L334.314 50.5471ZM331.376 42.2143C329.292 40.391 326.576 39.68 323.64 39.68V45.68C325.654 45.68 326.777 46.1636 327.424 46.7297L331.376 42.2143ZM323.64 39.68H316.6V45.68H323.64V39.68ZM319.6 42.68V24.76H313.6V42.68H319.6ZM316.6 27.76H327.48V21.76H316.6V27.76ZM327.48 27.76C331.766 27.76 335.414 28.6147 338.504 30.2335L341.288 24.9185C337.21 22.7826 332.58 21.76 327.48 21.76V27.76ZM338.504 30.2335C341.567 31.8379 343.857 34.0993 345.445 37.0584L350.731 34.2215C348.565 30.1834 345.393 27.0687 341.288 24.9185L338.504 30.2335ZM345.487 37.1354C347.097 39.9353 347.834 43.3677 347.528 47.5824L353.512 48.0176C353.888 42.8456 353.004 38.1714 350.689 34.1446L345.487 37.1354ZM347.527 47.6018L346.247 66.9298L352.233 67.3262L353.513 47.9982L347.527 47.6018ZM346.246 66.9349C346.026 70.3462 347.042 73.3963 349.423 75.7773L353.665 71.5347C352.633 70.5024 352.113 69.2004 352.234 67.3211L346.246 66.9349ZM349.531 75.8806C351.929 78.0499 354.887 79.088 358.2 79.088V73.088C356.222 73.088 354.743 72.5047 353.557 71.4314L349.531 75.8806ZM358.2 79.088H374.2V73.088H358.2V79.088ZM371.2 76.088V94.008H377.2V76.088H371.2ZM374.2 91.008H358.2V97.008H374.2V91.008ZM358.2 91.008C354.887 91.008 351.929 92.0461 349.531 94.2154L353.557 98.6646C354.743 97.5912 356.222 97.008 358.2 97.008V91.008ZM349.478 94.265C347.02 96.6001 346.03 99.6986 346.246 103.155L352.234 102.781C352.109 100.776 352.655 99.5225 353.61 98.615L349.478 94.265ZM346.247 103.174L347.527 121.734L353.513 121.322L352.233 102.762L346.247 103.174ZM347.528 121.742C347.835 126.051 347.095 129.582 345.472 132.476L350.704 135.412C353.006 131.309 353.887 126.563 353.512 121.314L347.528 121.742ZM345.431 132.552C343.831 135.606 341.526 137.951 338.455 139.633L341.337 144.895C345.434 142.652 348.591 139.45 350.745 135.336L345.431 132.552ZM338.455 139.633C335.375 141.32 331.745 142.208 327.48 142.208V148.208C332.601 148.208 337.249 147.134 341.337 144.895L338.455 139.633ZM327.48 142.208H316.6V148.208H327.48V142.208Z" fill="#2F2E41"/>
</g>
</g>
<defs>
<filter id="filter0_d_2_27" x="4.448" y="24.76" width="373.752" height="128.448" filterUnits="userSpaceOnUse" color-interpolation-filters="sRGB">
<feFlood flood-opacity="0" result="BackgroundImageFix"/>
<feColorMatrix in="SourceAlpha" type="matrix" values="0 0 0 0 0 0 0 0 0 0 0 0 0 0 0 0 0 0 127 0" result="hardAlpha"/>
<feOffset dy="4"/>
<feGaussianBlur stdDeviation="2"/>
<feComposite in2="hardAlpha" operator="out"/>
<feColorMatrix type="matrix" values="0 0 0 0 0 0 0 0 0 0 0 0 0 0 0 0 0 0 0.25 0"/>
<feBlend mode="normal" in2="BackgroundImageFix" result="effect1_dropShadow_2_27"/>
<feBlend mode="normal" in="SourceGraphic" in2="effect1_dropShadow_2_27" result="shape"/>
</filter>
<filter id="filter1_d_2_27" x="8.448" y="24.76" width="373.752" height="128.448" filterUnits="userSpaceOnUse" color-interpolation-filters="sRGB">
<feFlood flood-opacity="0" result="BackgroundImageFix"/>
<feColorMatrix in="SourceAlpha" type="matrix" values="0 0 0 0 0 0 0 0 0 0 0 0 0 0 0 0 0 0 127 0" result="hardAlpha"/>
<feOffset dx="8" dy="8"/>
<feComposite in2="hardAlpha" operator="out"/>
<feColorMatrix type="matrix" values="0 0 0 0 0.901961 0 0 0 0 0.901961 0 0 0 0 0.901961 0 0 0 1 0"/>
<feBlend mode="normal" in2="BackgroundImageFix" result="effect1_dropShadow_2_27"/>
<feBlend mode="normal" in="SourceGraphic" in2="effect1_dropShadow_2_27" result="shape"/>
</filter>
</defs>
</svg>
