<svg width="300" height="300" viewBox="0 0 300 300" fill="none" xmlns="http://www.w3.org/2000/svg">
<rect width="300" height="300" rx="50" fill="#2075C4"/>
<mask id="path-2-outside-1_201_6" maskUnits="userSpaceOnUse" x="47" y="105" width="207" height="94" fill="black">
<rect fill="white" x="47" y="105" width="207" height="94"/>
<path d="M49.9375 191.125V113.312C49.9375 111.688 50.5208 110.292 51.6875 109.125C52.8542 107.958 54.2917 107.375 56 107.375H67.625C69.25 107.375 70.625 107.958 71.75 109.125C72.9167 110.292 73.5 111.688 73.5 113.312V141.438H116.5V113.312C116.5 111.688 117.083 110.292 118.25 109.125C119.417 107.958 120.812 107.375 122.438 107.375H134.062C135.771 107.375 137.188 107.958 138.312 109.125C139.479 110.292 140.062 111.688 140.062 113.312V191.125C140.062 192.75 139.458 194.146 138.25 195.312C137.083 196.438 135.688 197 134.062 197H122.438C120.812 197 119.417 196.458 118.25 195.375C117.083 194.25 116.5 192.875 116.5 191.25V159.125H73.5V191.25C73.5 192.875 72.9167 194.25 71.75 195.375C70.625 196.458 69.25 197 67.625 197H56C54.375 197 52.9583 196.438 51.75 195.312C50.5417 194.146 49.9375 192.75 49.9375 191.125ZM158.062 191.125V113.312C158.062 111.688 158.625 110.292 159.75 109.125C160.875 107.958 162.25 107.375 163.875 107.375H182.25C183.708 107.375 185.25 107.958 186.875 109.125C188.5 110.292 189.833 111.688 190.875 113.312L228.625 171.375V113.188C228.625 111.562 229.188 110.188 230.312 109.062C231.479 107.938 232.875 107.375 234.5 107.375H245.25C246.875 107.375 248.25 107.938 249.375 109.062C250.542 110.188 251.125 111.604 251.125 113.312V191.125C251.125 192.75 250.542 194.146 249.375 195.312C248.25 196.438 246.875 197 245.25 197H224.5C222.875 197 221.208 196.438 219.5 195.312C217.792 194.146 216.438 192.75 215.438 191.125L180.875 137.5V191.125C180.875 192.75 180.292 194.146 179.125 195.312C178 196.438 176.625 197 175 197H164C162.375 197 160.979 196.438 159.812 195.312C158.646 194.146 158.062 192.75 158.062 191.125Z"/>
</mask>
<path d="M49.9375 191.125V113.312C49.9375 111.688 50.5208 110.292 51.6875 109.125C52.8542 107.958 54.2917 107.375 56 107.375H67.625C69.25 107.375 70.625 107.958 71.75 109.125C72.9167 110.292 73.5 111.688 73.5 113.312V141.438H116.5V113.312C116.5 111.688 117.083 110.292 118.25 109.125C119.417 107.958 120.812 107.375 122.438 107.375H134.062C135.771 107.375 137.188 107.958 138.312 109.125C139.479 110.292 140.062 111.688 140.062 113.312V191.125C140.062 192.75 139.458 194.146 138.25 195.312C137.083 196.438 135.688 197 134.062 197H122.438C120.812 197 119.417 196.458 118.25 195.375C117.083 194.25 116.5 192.875 116.5 191.25V159.125H73.5V191.25C73.5 192.875 72.9167 194.25 71.75 195.375C70.625 196.458 69.25 197 67.625 197H56C54.375 197 52.9583 196.438 51.75 195.312C50.5417 194.146 49.9375 192.75 49.9375 191.125ZM158.062 191.125V113.312C158.062 111.688 158.625 110.292 159.75 109.125C160.875 107.958 162.25 107.375 163.875 107.375H182.25C183.708 107.375 185.25 107.958 186.875 109.125C188.5 110.292 189.833 111.688 190.875 113.312L228.625 171.375V113.188C228.625 111.562 229.188 110.188 230.312 109.062C231.479 107.938 232.875 107.375 234.5 107.375H245.25C246.875 107.375 248.25 107.938 249.375 109.062C250.542 110.188 251.125 111.604 251.125 113.312V191.125C251.125 192.75 250.542 194.146 249.375 195.312C248.25 196.438 246.875 197 245.25 197H224.5C222.875 197 221.208 196.438 219.5 195.312C217.792 194.146 216.438 192.75 215.438 191.125L180.875 137.5V191.125C180.875 192.75 180.292 194.146 179.125 195.312C178 196.438 176.625 197 175 197H164C162.375 197 160.979 196.438 159.812 195.312C158.646 194.146 158.062 192.75 158.062 191.125Z" fill="white"/>
<path d="M71.75 109.125L70.3103 110.513L70.3229 110.526L70.3358 110.539L71.75 109.125ZM73.5 141.438H71.5V143.438H73.5V141.438ZM116.5 141.438V143.438H118.5V141.438H116.5ZM138.312 109.125L136.873 110.513L136.885 110.526L136.898 110.539L138.312 109.125ZM138.25 195.312L139.638 196.752L139.639 196.751L138.25 195.312ZM118.25 195.375L116.862 196.815L116.875 196.828L116.889 196.841L118.25 195.375ZM116.5 159.125H118.5V157.125H116.5V159.125ZM73.5 159.125V157.125H71.5V159.125H73.5ZM71.75 195.375L73.1373 196.816L73.1383 196.815L71.75 195.375ZM51.75 195.312L50.3608 196.751L50.3739 196.764L50.3872 196.776L51.75 195.312ZM49.9375 191.125H51.9375V113.312H49.9375H47.9375V191.125H49.9375ZM49.9375 113.312H51.9375C51.9375 112.227 52.3037 111.337 53.1017 110.539L51.6875 109.125L50.2733 107.711C48.738 109.246 47.9375 111.148 47.9375 113.312H49.9375ZM51.6875 109.125L53.1017 110.539C53.8787 109.762 54.8011 109.375 56 109.375V107.375V105.375C53.7822 105.375 51.8296 106.154 50.2733 107.711L51.6875 109.125ZM56 107.375V109.375H67.625V107.375V105.375H56V107.375ZM67.625 107.375V109.375C68.7086 109.375 69.5634 109.739 70.3103 110.513L71.75 109.125L73.1897 107.737C71.6866 106.178 69.7914 105.375 67.625 105.375V107.375ZM71.75 109.125L70.3358 110.539C71.1338 111.337 71.5 112.227 71.5 113.312H73.5H75.5C75.5 111.148 74.6995 109.246 73.1642 107.711L71.75 109.125ZM73.5 113.312H71.5V141.438H73.5H75.5V113.312H73.5ZM73.5 141.438V143.438H116.5V141.438V139.438H73.5V141.438ZM116.5 141.438H118.5V113.312H116.5H114.5V141.438H116.5ZM116.5 113.312H118.5C118.5 112.227 118.866 111.337 119.664 110.539L118.25 109.125L116.836 107.711C115.301 109.246 114.5 111.148 114.5 113.312H116.5ZM118.25 109.125L119.664 110.539C120.462 109.741 121.352 109.375 122.438 109.375V107.375V105.375C120.273 105.375 118.371 106.176 116.836 107.711L118.25 109.125ZM122.438 107.375V109.375H134.062V107.375V105.375H122.438V107.375ZM134.062 107.375V109.375C135.261 109.375 136.147 109.761 136.873 110.513L138.312 109.125L139.752 107.737C138.228 106.156 136.281 105.375 134.062 105.375V107.375ZM138.312 109.125L136.898 110.539C137.696 111.337 138.062 112.227 138.062 113.312H140.062H142.062C142.062 111.148 141.262 109.246 139.727 107.711L138.312 109.125ZM140.062 113.312H138.062V191.125H140.062H142.062V113.312H140.062ZM140.062 191.125H138.062C138.062 192.187 137.694 193.07 136.861 193.874L138.25 195.312L139.639 196.751C141.223 195.222 142.062 193.313 142.062 191.125H140.062ZM138.25 195.312L136.862 193.873C136.069 194.637 135.171 195 134.062 195V197V199C136.204 199 138.098 198.238 139.638 196.752L138.25 195.312ZM134.062 197V195H122.438V197V199H134.062V197ZM122.438 197V195C121.306 195 120.399 194.641 119.611 193.909L118.25 195.375L116.889 196.841C118.434 198.275 120.319 199 122.438 199V197ZM118.25 195.375L119.638 193.935C118.864 193.188 118.5 192.334 118.5 191.25H116.5H114.5C114.5 193.416 115.303 195.312 116.862 196.815L118.25 195.375ZM116.5 191.25H118.5V159.125H116.5H114.5V191.25H116.5ZM116.5 159.125V157.125H73.5V159.125V161.125H116.5V159.125ZM73.5 159.125H71.5V191.25H73.5H75.5V159.125H73.5ZM73.5 191.25H71.5C71.5 192.334 71.1363 193.188 70.3617 193.935L71.75 195.375L73.1383 196.815C74.697 195.312 75.5 193.416 75.5 191.25H73.5ZM71.75 195.375L70.3627 193.934C69.6268 194.643 68.7558 195 67.625 195V197V199C69.7442 199 71.6232 198.274 73.1373 196.816L71.75 195.375ZM67.625 197V195H56V197V199H67.625V197ZM56 197V195C54.8896 195 53.9576 194.635 53.1128 193.849L51.75 195.312L50.3872 196.776C51.9591 198.24 53.8604 199 56 199V197ZM51.75 195.312L53.1392 193.874C52.3065 193.07 51.9375 192.187 51.9375 191.125H49.9375H47.9375C47.9375 193.313 48.7769 195.222 50.3608 196.751L51.75 195.312ZM190.875 113.312L189.191 114.392L189.198 114.403L190.875 113.312ZM228.625 171.375L226.948 172.465L230.625 178.12V171.375H228.625ZM230.312 109.062L228.924 107.623L228.911 107.635L228.898 107.648L230.312 109.062ZM249.375 109.062L247.961 110.477L247.974 110.49L247.987 110.502L249.375 109.062ZM249.375 195.312L247.961 193.898L249.375 195.312ZM219.5 195.312L218.372 196.964L218.386 196.974L218.4 196.983L219.5 195.312ZM215.438 191.125L217.141 190.077L217.13 190.059L217.119 190.042L215.438 191.125ZM180.875 137.5L182.556 136.417L178.875 130.705V137.5H180.875ZM179.125 195.312L177.711 193.898L179.125 195.312ZM159.812 195.312L158.398 196.727L158.411 196.74L158.424 196.752L159.812 195.312ZM158.062 191.125H160.062V113.312H158.062H156.062V191.125H158.062ZM158.062 113.312H160.062C160.062 112.204 160.425 111.306 161.19 110.513L159.75 109.125L158.31 107.737C156.825 109.277 156.062 111.171 156.062 113.312H158.062ZM159.75 109.125L161.19 110.513C161.937 109.739 162.791 109.375 163.875 109.375V107.375V105.375C161.709 105.375 159.813 106.178 158.31 107.737L159.75 109.125ZM163.875 107.375V109.375H182.25V107.375V105.375H163.875V107.375ZM182.25 107.375V109.375C183.16 109.375 184.3 109.738 185.709 110.75L186.875 109.125L188.041 107.5C186.2 106.178 184.257 105.375 182.25 105.375V107.375ZM186.875 109.125L185.709 110.75C187.136 111.774 188.291 112.987 189.191 114.392L190.875 113.312L192.559 112.233C191.376 110.388 189.864 108.809 188.041 107.5L186.875 109.125ZM190.875 113.312L189.198 114.403L226.948 172.465L228.625 171.375L230.302 170.285L192.552 112.222L190.875 113.312ZM228.625 171.375H230.625V113.188H228.625H226.625V171.375H228.625ZM228.625 113.188H230.625C230.625 112.08 230.986 111.218 231.727 110.477L230.312 109.062L228.898 107.648C227.389 109.157 226.625 111.045 226.625 113.188H228.625ZM230.312 109.062L231.701 110.502C232.494 109.738 233.391 109.375 234.5 109.375V107.375V105.375C232.359 105.375 230.465 106.137 228.924 107.623L230.312 109.062ZM234.5 107.375V109.375H245.25V107.375V105.375H234.5V107.375ZM245.25 107.375V109.375C246.357 109.375 247.22 109.736 247.961 110.477L249.375 109.062L250.789 107.648C249.28 106.139 247.393 105.375 245.25 105.375V107.375ZM249.375 109.062L247.987 110.502C248.739 111.228 249.125 112.114 249.125 113.312H251.125H253.125C253.125 111.094 252.344 109.147 250.763 107.623L249.375 109.062ZM251.125 113.312H249.125V191.125H251.125H253.125V113.312H251.125ZM251.125 191.125H249.125C249.125 192.211 248.759 193.1 247.961 193.898L249.375 195.312L250.789 196.727C252.324 195.191 253.125 193.289 253.125 191.125H251.125ZM249.375 195.312L247.961 193.898C247.22 194.639 246.357 195 245.25 195V197V199C247.393 199 249.28 198.236 250.789 196.727L249.375 195.312ZM245.25 197V195H224.5V197V199H245.25V197ZM224.5 197V195C223.356 195 222.066 194.608 220.6 193.642L219.5 195.312L218.4 196.983C220.351 198.267 222.394 199 224.5 199V197ZM219.5 195.312L220.628 193.661C219.132 192.639 217.981 191.443 217.141 190.077L215.438 191.125L213.734 192.173C214.894 194.057 216.451 195.652 218.372 196.964L219.5 195.312ZM215.438 191.125L217.119 190.042L182.556 136.417L180.875 137.5L179.194 138.583L213.756 192.208L215.438 191.125ZM180.875 137.5H178.875V191.125H180.875H182.875V137.5H180.875ZM180.875 191.125H178.875C178.875 192.211 178.509 193.1 177.711 193.898L179.125 195.312L180.539 196.727C182.074 195.191 182.875 193.289 182.875 191.125H180.875ZM179.125 195.312L177.711 193.898C176.97 194.639 176.107 195 175 195V197V199C177.143 199 179.03 198.236 180.539 196.727L179.125 195.312ZM175 197V195H164V197V199H175V197ZM164 197V195C162.891 195 161.994 194.637 161.201 193.873L159.812 195.312L158.424 196.752C159.965 198.238 161.859 199 164 199V197ZM159.812 195.312L161.227 193.898C160.429 193.1 160.062 192.211 160.062 191.125H158.062H156.062C156.062 193.289 156.863 195.191 158.398 196.727L159.812 195.312Z" fill="black" mask="url(#path-2-outside-1_201_6)"/>
</svg>
