<svg width="223" height="56" viewBox="0 0 223 56" fill="none" xmlns="http://www.w3.org/2000/svg">
<g id="water markk" filter="url(#filter0_d_36_612)">
<path id="&#60;Contact /&#62;" d="M4.12 30.68H3.12V31.2182L3.56922 31.5146L4.12 30.68ZM4.12 27.2L3.5707 26.3644L3.12 26.6606V27.2H4.12ZM19.88 16.84H20.88V14.9859L19.3307 16.0044L19.88 16.84ZM19.88 22.8L20.4132 23.646L20.88 23.3518V22.8H19.88ZM10.36 28.8L9.82681 27.954L9.36 28.2482V28.8H10.36ZM10.36 29.08H9.36V29.6318L9.82681 29.926L10.36 29.08ZM19.88 35.08H20.88V34.5282L20.4132 34.234L19.88 35.08ZM19.88 41.08L19.3292 41.9146L20.88 42.938V41.08H19.88ZM5.12 30.68V27.2H3.12V30.68H5.12ZM4.66931 28.0356L20.4293 17.6756L19.3307 16.0044L3.5707 26.3644L4.66931 28.0356ZM18.88 16.84V22.8H20.88V16.84H18.88ZM19.3468 21.954L9.82681 27.954L10.8932 29.646L20.4132 23.646L19.3468 21.954ZM9.36 28.8V29.08H11.36V28.8H9.36ZM9.82681 29.926L19.3468 35.926L20.4132 34.234L10.8932 28.234L9.82681 29.926ZM18.88 35.08V41.08H20.88V35.08H18.88ZM20.4308 40.2453L4.67078 29.8454L3.56922 31.5146L19.3292 41.9146L20.4308 40.2453ZM33.2244 40.6L32.8502 41.5274L32.8572 41.5302L32.8643 41.5329L33.2244 40.6ZM29.3444 37.92L28.5969 38.5844L28.6044 38.5927L29.3444 37.92ZM26.8644 33.48L25.9143 33.792L25.9157 33.7962L26.8644 33.48ZM26.8644 21L27.8158 21.3078L27.8171 21.3038L26.8644 21ZM29.3444 16.4L30.099 17.0562L30.1059 17.0481L29.3444 16.4ZM33.2244 13.56L32.8363 12.6384L33.2244 13.56ZM44.7444 14.2L44.2083 15.0443L44.218 15.0503L44.7444 14.2ZM48.7844 19.16L49.2451 20.0475L50.0823 19.613L49.6973 18.7519L48.7844 19.16ZM43.5444 21.88L42.5914 22.1832L42.9514 23.3145L44.0051 22.7675L43.5444 21.88ZM41.7844 19.08L41.103 19.8119L41.116 19.824L41.1294 19.8357L41.7844 19.08ZM34.0244 19.76L33.2928 19.0783L33.2922 19.0789L34.0244 19.76ZM34.0244 34.36L33.2844 35.0327L33.2924 35.0415L33.3006 35.0501L34.0244 34.36ZM41.9044 34.88L42.577 35.6199L42.5781 35.619L41.9044 34.88ZM43.9044 31.92L44.4065 31.0552L43.3808 30.4596L42.9672 31.5713L43.9044 31.92ZM48.8644 34.8L49.7633 35.2382L50.1708 34.4022L49.3665 33.9352L48.8644 34.8ZM44.7444 39.76L45.3081 40.586L45.3109 40.584L44.7444 39.76ZM38.3444 40.48C36.5545 40.48 34.9726 40.2028 33.5844 39.6671L32.8643 41.5329C34.5162 42.1705 36.3476 42.48 38.3444 42.48V40.48ZM33.5986 39.6726C32.2133 39.1137 31.0463 38.3055 30.0843 37.2473L28.6044 38.5927C29.7758 39.8811 31.1955 40.8597 32.8502 41.5274L33.5986 39.6726ZM30.0918 37.2556C29.128 36.1714 28.3635 34.8151 27.8131 33.1638L25.9157 33.7962C26.5386 35.6649 27.4274 37.2686 28.597 38.5844L30.0918 37.2556ZM27.8145 33.168C27.2682 31.5044 26.9844 29.5338 26.9844 27.24H24.9844C24.9844 29.6928 25.2872 31.8822 25.9143 33.792L27.8145 33.168ZM26.9844 27.24C26.9844 24.9746 27.2678 23.0018 27.8158 21.3078L25.9129 20.6922C25.2877 22.6249 24.9844 24.812 24.9844 27.24H26.9844ZM27.8171 21.3038C28.3701 19.5695 29.1368 18.1627 30.099 17.0562L28.5898 15.7438C27.4186 17.0907 26.532 18.7505 25.9116 20.6962L27.8171 21.3038ZM30.1059 17.0481C31.071 15.9142 32.2363 15.0611 33.6124 14.4816L32.8363 12.6384C31.1725 13.3389 29.7511 14.3792 28.5828 15.7519L30.1059 17.0481ZM33.6124 14.4816C34.9928 13.9004 36.5647 13.6 38.3444 13.6V11.6C36.3373 11.6 34.496 11.9396 32.8363 12.6384L33.6124 14.4816ZM38.3444 13.6C40.7972 13.6 42.7301 14.1056 44.2084 15.0442L45.2804 13.3558C43.3986 12.161 41.0649 11.6 38.3444 11.6V13.6ZM44.218 15.0503C45.6888 15.9607 46.9188 17.4372 47.8715 19.5681L49.6973 18.7519C48.6233 16.3494 47.16 14.5193 45.2707 13.3497L44.218 15.0503ZM48.3237 18.2725L43.0837 20.9925L44.0051 22.7675L49.2451 20.0475L48.3237 18.2725ZM44.4973 21.5768C44.0774 20.2571 43.3998 19.1567 42.4393 18.3243L41.1294 19.8357C41.769 20.39 42.2647 21.1562 42.5914 22.1832L44.4973 21.5768ZM42.4658 18.3481C41.44 17.3931 40.007 17 38.3444 17V19C39.7217 19 40.5821 19.3269 41.103 19.8119L42.4658 18.3481ZM38.3444 17C36.3153 17 34.5979 17.6777 33.2928 19.0783L34.756 20.4417C35.6375 19.4957 36.8001 19 38.3444 19V17ZM33.2922 19.0789C31.9934 20.475 31.4244 22.4384 31.4244 24.8H33.4244C33.4244 22.7349 33.922 21.3383 34.7566 20.4411L33.2922 19.0789ZM31.4244 24.8V29.28H33.4244V24.8H31.4244ZM31.4244 29.28C31.4244 31.6435 31.9942 33.6134 33.2844 35.0327L34.7643 33.6873C33.9212 32.7599 33.4244 31.3432 33.4244 29.28H31.4244ZM33.3006 35.0501C34.6076 36.4208 36.3226 37.08 38.3444 37.08V35.08C36.7928 35.08 35.6278 34.5925 34.7481 33.6699L33.3006 35.0501ZM38.3444 37.08C40.0204 37.08 41.4693 36.627 42.577 35.6199L41.2317 34.1401C40.5795 34.733 39.6551 35.08 38.3444 35.08V37.08ZM42.5781 35.619C43.6021 34.6854 44.3593 33.565 44.8416 32.2687L42.9672 31.5713C42.5962 32.5683 42.02 33.4213 41.2306 34.141L42.5781 35.619ZM43.4022 32.7848L48.3622 35.6648L49.3665 33.9352L44.4065 31.0552L43.4022 32.7848ZM47.9655 34.3618C46.9899 36.3629 45.7226 37.8739 44.1778 38.936L45.3109 40.584C47.1794 39.2994 48.6588 37.5037 49.7633 35.2382L47.9655 34.3618ZM44.1806 38.9341C42.7068 39.94 40.7845 40.48 38.3444 40.48V42.48C41.0776 42.48 43.422 41.8733 45.3081 40.5859L44.1806 38.9341ZM57.1591 40.72L56.7701 41.6413L56.7773 41.6443L57.1591 40.72ZM54.0791 38.52L53.3213 39.1725L53.3264 39.1785L53.3317 39.1844L54.0791 38.52ZM52.1591 35.04L53.1077 34.7238L52.1591 35.04ZM52.1591 25.92L53.1077 26.2362L52.1591 25.92ZM54.0791 22.48L53.3317 21.8156L53.3305 21.817L54.0791 22.48ZM57.1591 20.28L56.7773 19.3557L56.7701 19.3587L57.1591 20.28ZM65.4391 20.28L65.0501 21.2013L65.0573 21.2043L65.4391 20.28ZM68.5191 22.48L67.7613 23.1325L67.771 23.1438L67.781 23.1548L68.5191 22.48ZM70.4791 25.92L71.4277 25.6038V25.6038L70.4791 25.92ZM70.4791 35.04L71.4277 35.3562L70.4791 35.04ZM68.5191 38.52L67.7717 37.8556L67.7664 37.8615L67.7613 37.8675L68.5191 38.52ZM65.4391 40.72L65.0573 39.7957L65.0501 39.7988L65.4391 40.72ZM64.0391 35.72L64.7865 36.3844L64.0391 35.72ZM64.0391 25.28L64.7865 24.6156L64.0391 25.28ZM58.5991 25.28L59.3465 25.9444V25.9444L58.5991 25.28ZM58.5991 35.72L59.3465 35.0556L58.5991 35.72ZM61.3191 40.48C59.882 40.48 58.6281 40.2448 57.5408 39.7957L56.7773 41.6443C58.1433 42.2085 59.6628 42.48 61.3191 42.48V40.48ZM57.548 39.7988C56.4831 39.3491 55.5795 38.7028 54.8265 37.8556L53.3317 39.1844C54.2853 40.2572 55.435 41.0775 56.7701 41.6413L57.548 39.7988ZM54.8368 37.8675C54.1055 37.0182 53.5253 35.9765 53.1077 34.7238L51.2104 35.3562C51.6995 36.8235 52.3993 38.1018 53.3213 39.1725L54.8368 37.8675ZM53.1077 34.7238C52.6937 33.4815 52.4791 32.0706 52.4791 30.48H50.4791C50.4791 32.2494 50.7178 33.8785 51.2104 35.3562L53.1077 34.7238ZM52.4791 30.48C52.4791 28.8894 52.6937 27.4785 53.1077 26.2362L51.2104 25.6038C50.7178 27.0815 50.4791 28.7106 50.4791 30.48H52.4791ZM53.1077 26.2362C53.5248 24.9851 54.1028 23.9614 54.8277 23.143L53.3305 21.817C52.402 22.8652 51.7 24.1349 51.2104 25.6038L53.1077 26.2362ZM54.8265 23.1444C55.5795 22.2972 56.4831 21.6509 57.548 21.2013L56.7701 19.3587C55.435 19.9225 54.2853 20.7428 53.3317 21.8156L54.8265 23.1444ZM57.5408 21.2043C58.6281 20.7552 59.882 20.52 61.3191 20.52V18.52C59.6628 18.52 58.1433 18.7915 56.7773 19.3557L57.5408 21.2043ZM61.3191 20.52C62.7567 20.52 63.994 20.7553 65.0501 21.2013L65.828 19.3587C64.4841 18.7913 62.9747 18.52 61.3191 18.52V20.52ZM65.0573 21.2043C66.1462 21.654 67.0418 22.297 67.7613 23.1325L69.2768 21.8275C68.343 20.743 67.1853 19.9193 65.8208 19.3557L65.0573 21.2043ZM67.781 23.1548C68.5279 23.9717 69.1154 24.9914 69.5304 26.2362L71.4277 25.6038C70.936 24.1286 70.2169 22.855 69.2571 21.8052L67.781 23.1548ZM69.5304 26.2362C69.9445 27.4785 70.1591 28.8894 70.1591 30.48H72.1591C72.1591 28.7106 71.9203 27.0815 71.4277 25.6038L69.5304 26.2362ZM70.1591 30.48C70.1591 32.0706 69.9445 33.4815 69.5304 34.7238L71.4277 35.3562C71.9203 33.8785 72.1591 32.2494 72.1591 30.48H70.1591ZM69.5304 34.7238C69.1149 35.9702 68.5251 37.008 67.7717 37.8556L69.2665 39.1844C70.2197 38.112 70.9366 36.8298 71.4277 35.3562L69.5304 34.7238ZM67.7613 37.8675C67.0418 38.703 66.1462 39.346 65.0573 39.7957L65.8208 41.6443C67.1853 41.0807 68.343 40.257 69.2768 39.1725L67.7613 37.8675ZM65.0501 39.7988C63.994 40.2447 62.7567 40.48 61.3191 40.48V42.48C62.9747 42.48 64.4841 42.2087 65.828 41.6413L65.0501 39.7988ZM61.3191 37.8C62.7104 37.8 63.916 37.3637 64.7865 36.3844L63.2917 35.0556C62.8821 35.5163 62.2744 35.8 61.3191 35.8V37.8ZM64.7865 36.3844C65.6425 35.4214 65.9991 34.124 65.9991 32.64H63.9991C63.9991 33.8226 63.7157 34.5786 63.2917 35.0556L64.7865 36.3844ZM65.9991 32.64V28.36H63.9991V32.64H65.9991ZM65.9991 28.36C65.9991 26.876 65.6425 25.5786 64.7865 24.6156L63.2917 25.9444C63.7157 26.4214 63.9991 27.1774 63.9991 28.36H65.9991ZM64.7865 24.6156C63.916 23.6363 62.7104 23.2 61.3191 23.2V25.2C62.2744 25.2 62.8821 25.4837 63.2917 25.9444L64.7865 24.6156ZM61.3191 23.2C59.9277 23.2 58.7221 23.6363 57.8517 24.6156L59.3465 25.9444C59.756 25.4837 60.3638 25.2 61.3191 25.2V23.2ZM57.8517 24.6156C56.9957 25.5786 56.6391 26.876 56.6391 28.36H58.6391C58.6391 27.1774 58.9225 26.4214 59.3465 25.9444L57.8517 24.6156ZM56.6391 28.36V32.64H58.6391V28.36H56.6391ZM56.6391 32.64C56.6391 34.124 56.9957 35.4214 57.8517 36.3844L59.3465 35.0556C58.9225 34.5786 58.6391 33.8226 58.6391 32.64H56.6391ZM57.8517 36.3844C58.7221 37.3637 59.9277 37.8 61.3191 37.8V35.8C60.3638 35.8 59.756 35.5163 59.3465 35.0556L57.8517 36.3844ZM75.3772 41H74.3772V42H75.3772V41ZM75.3772 20V19H74.3772V20H75.3772ZM81.2972 20H82.2972V19H81.2972V20ZM81.2972 23.56H80.2972V24.56H81.2972V23.56ZM81.5372 23.56V24.56H82.2524L82.4835 23.8831L81.5372 23.56ZM83.4972 20.72L82.8464 19.9607V19.9607L83.4972 20.72ZM92.2572 21.68L91.4607 22.2847L91.4678 22.2939L92.2572 21.68ZM93.9372 41V42H94.9372V41H93.9372ZM88.0172 41H87.0172V42H88.0172V41ZM87.3772 25.32L86.5349 25.8591L86.54 25.8669L86.5451 25.8747L87.3772 25.32ZM83.6972 24.52L83.9262 25.4934L83.953 25.4871L83.9794 25.4794L83.6972 24.52ZM82.4572 25.08L81.876 24.2663L81.8615 24.2766L81.8475 24.2874L82.4572 25.08ZM81.6172 26.08L82.4854 26.5761L82.4927 26.5635L82.4995 26.5506L81.6172 26.08ZM81.2972 41V42H82.2972V41H81.2972ZM76.3772 41V20H74.3772V41H76.3772ZM75.3772 21H81.2972V19H75.3772V21ZM80.2972 20V23.56H82.2972V20H80.2972ZM81.2972 24.56H81.5372V22.56H81.2972V24.56ZM82.4835 23.8831C82.7954 22.9699 83.3414 22.1707 84.148 21.4793L82.8464 19.9607C81.7864 20.8693 81.0257 21.9634 80.5908 23.2369L82.4835 23.8831ZM84.148 21.4793C84.8457 20.8812 85.8796 20.52 87.3772 20.52V18.52C85.5681 18.52 84.0153 18.9588 82.8464 19.9607L84.148 21.4793ZM87.3772 20.52C89.2929 20.52 90.5943 21.1436 91.4607 22.2847L93.0536 21.0753C91.7334 19.3364 89.7815 18.52 87.3772 18.52V20.52ZM91.4678 22.2939C92.4009 23.4936 92.9372 25.2967 92.9372 27.84H94.9372C94.9372 25.05 94.3534 22.7464 93.0465 21.0661L91.4678 22.2939ZM92.9372 27.84V41H94.9372V27.84H92.9372ZM93.9372 40H88.0172V42H93.9372V40ZM89.0172 41V28.32H87.0172V41H89.0172ZM89.0172 28.32C89.0172 26.8954 88.8012 25.6532 88.2092 24.7653L86.5451 25.8747C86.8066 26.2668 87.0172 27.0246 87.0172 28.32H89.0172ZM88.2195 24.7809C87.5432 23.7242 86.3882 23.32 85.0972 23.32V25.32C85.9928 25.32 86.3579 25.5824 86.5349 25.8591L88.2195 24.7809ZM85.0972 23.32C84.5232 23.32 83.9614 23.3999 83.415 23.5606L83.9794 25.4794C84.3396 25.3734 84.7112 25.32 85.0972 25.32V23.32ZM83.4681 23.5466C82.8901 23.6826 82.3568 23.9228 81.876 24.2663L83.0384 25.8937C83.3042 25.7039 83.5976 25.5707 83.9262 25.4934L83.4681 23.5466ZM81.8475 24.2874C81.3839 24.644 81.0126 25.0886 80.7348 25.6094L82.4995 26.5506C82.6484 26.2714 82.8371 26.0494 83.0669 25.8726L81.8475 24.2874ZM80.7489 25.5839C80.435 26.1333 80.2972 26.7505 80.2972 27.4H82.2972C82.2972 27.0361 82.3727 26.7734 82.4854 26.5761L80.7489 25.5839ZM80.2972 27.4V41H82.2972V27.4H80.2972ZM81.2972 40H75.3772V42H81.2972V40ZM101.885 39.44L101.178 40.1472L101.187 40.156L101.885 39.44ZM100.325 24.6H101.325V23.6H100.325V24.6ZM97.3653 24.6H96.3653V25.6H97.3653V24.6ZM97.3653 20V19H96.3653V20H97.3653ZM100.485 19.44L101.272 20.0578L101.282 20.0448L101.292 20.0314L100.485 19.44ZM100.925 14.32V13.32H99.9253V14.32H100.925ZM106.245 14.32H107.245V13.32H106.245V14.32ZM106.245 20H105.245V21H106.245V20ZM110.405 20H111.405V19H110.405V20ZM110.405 24.6V25.6H111.405V24.6H110.405ZM106.245 24.6V23.6H105.245V24.6H106.245ZM106.245 36.4H105.245V37.4H106.245V36.4ZM110.085 36.4H111.085V35.4H110.085V36.4ZM110.085 41V42H111.085V41H110.085ZM106.565 40C104.672 40 103.402 39.5222 102.583 38.724L101.187 40.156C102.502 41.4378 104.351 42 106.565 42V40ZM102.592 38.7329C101.799 37.9399 101.325 36.7127 101.325 34.88H99.3253C99.3253 37.0473 99.8912 38.8601 101.178 40.1471L102.592 38.7329ZM101.325 34.88V24.6H99.3253V34.88H101.325ZM100.325 23.6H97.3653V25.6H100.325V23.6ZM98.3653 24.6V20H96.3653V24.6H98.3653ZM97.3653 21H98.8453V19H97.3653V21ZM98.8453 21C99.7466 21 100.69 20.7977 101.272 20.0578L99.699 18.8222C99.6936 18.829 99.5441 19 98.8453 19V21ZM101.292 20.0314C101.756 19.398 101.925 18.6005 101.925 17.76H99.9253C99.9253 18.3595 99.8011 18.682 99.6789 18.8486L101.292 20.0314ZM101.925 17.76V14.32H99.9253V17.76H101.925ZM100.925 15.32H106.245V13.32H100.925V15.32ZM105.245 14.32V20H107.245V14.32H105.245ZM106.245 21H110.405V19H106.245V21ZM109.405 20V24.6H111.405V20H109.405ZM110.405 23.6H106.245V25.6H110.405V23.6ZM105.245 24.6V36.4H107.245V24.6H105.245ZM106.245 37.4H110.085V35.4H106.245V37.4ZM109.085 36.4V41H111.085V36.4H109.085ZM110.085 40H106.565V42H110.085V40ZM127.358 40L126.665 40.7208L126.671 40.7274L126.678 40.7338L127.358 40ZM126.038 37.32L127.024 37.1556L126.885 36.32H126.038V37.32ZM125.798 37.32V36.32H125.006L124.824 37.091L125.798 37.32ZM123.678 40.44L124.213 41.2845L124.221 41.2799L124.228 41.2752L123.678 40.44ZM114.798 39.8L114.091 40.5071L114.798 39.8ZM115.518 30.44L116.073 31.2721L116.076 31.27L115.518 30.44ZM125.438 28.8V29.8H126.438V28.8H125.438ZM124.638 25.08L123.883 25.7362L123.89 25.7445L123.898 25.7527L124.638 25.08ZM119.158 24.92L119.748 25.7274H119.748L119.158 24.92ZM117.438 26.64L116.775 27.3883L117.609 28.1282L118.254 27.218L117.438 26.64ZM113.918 23.52L113.091 22.9572L112.596 23.6846L113.255 24.2683L113.918 23.52ZM117.118 20.6L117.594 21.4793L117.6 21.4758L117.118 20.6ZM129.118 21.48L129.776 20.7274V20.7274L129.118 21.48ZM131.358 36.4H130.358V37.4H131.358V36.4ZM133.318 36.4H134.318V35.4H133.318V36.4ZM133.318 41V42H134.318V41H133.318ZM124.358 36.72L123.848 35.8597L123.841 35.864L123.834 35.8683L124.358 36.72ZM125.438 32.16H126.438V31.16H125.438V32.16ZM119.798 36.84L119.184 37.6294L119.198 37.6403L119.212 37.6507L119.798 36.84ZM130.038 40C129.199 40 128.556 39.7462 128.037 39.2662L126.678 40.7338C127.6 41.5872 128.743 42 130.038 42V40ZM128.051 39.2792C127.539 38.7872 127.182 38.103 127.024 37.1556L125.051 37.4844C125.267 38.777 125.79 39.8795 126.665 40.7208L128.051 39.2792ZM126.038 36.32H125.798V38.32H126.038V36.32ZM124.824 37.091C124.559 38.2206 123.993 39.0354 123.128 39.6048L124.228 41.2752C125.55 40.4046 126.397 39.1394 126.771 37.549L124.824 37.091ZM123.142 39.5955C122.243 40.1657 121.093 40.48 119.638 40.48V42.48C121.383 42.48 122.926 42.101 124.213 41.2845L123.142 39.5955ZM119.638 40.48C117.706 40.48 116.382 39.9698 115.505 39.0929L114.091 40.5071C115.454 41.8702 117.356 42.48 119.638 42.48V40.48ZM115.505 39.0929C114.603 38.1908 114.118 36.9811 114.118 35.36H112.118C112.118 37.4189 112.753 39.1692 114.091 40.5071L115.505 39.0929ZM114.118 35.36C114.118 33.4222 114.796 32.1229 116.073 31.2721L114.963 29.608C113.039 30.8905 112.118 32.8711 112.118 35.36H114.118ZM116.076 31.27C117.482 30.3246 119.464 29.8 122.118 29.8V27.8C119.225 27.8 116.807 28.3687 114.96 29.61L116.076 31.27ZM122.118 29.8H125.438V27.8H122.118V29.8ZM126.438 28.8V27.48H124.438V28.8H126.438ZM126.438 27.48C126.438 26.2894 126.121 25.2249 125.378 24.4073L123.898 25.7527C124.221 26.1084 124.438 26.6439 124.438 27.48H126.438ZM125.392 24.4238C124.586 23.4965 123.344 23.16 121.958 23.16V25.16C123.078 25.16 123.623 25.4368 123.883 25.7362L125.392 24.4238ZM121.958 23.16C120.649 23.16 119.485 23.4422 118.568 24.1126L119.748 25.7274C120.217 25.3844 120.92 25.16 121.958 25.16V23.16ZM118.568 24.1126C117.795 24.677 117.143 25.3259 116.622 26.062L118.254 27.218C118.639 26.6741 119.133 26.1763 119.748 25.7274L118.568 24.1126ZM118.101 25.8917L114.581 22.7717L113.255 24.2683L116.775 27.3883L118.101 25.8917ZM114.744 24.0828C115.512 22.9557 116.46 22.0934 117.594 21.4793L116.642 19.7207C115.215 20.4933 114.031 21.5776 113.091 22.9572L114.744 24.0828ZM117.6 21.4758C118.705 20.8673 120.278 20.52 122.398 20.52V18.52C120.091 18.52 118.144 18.8927 116.635 19.7242L117.6 21.4758ZM122.398 20.52C125.261 20.52 127.221 21.1491 128.459 22.2326L129.776 20.7274C128.028 19.1975 125.508 18.52 122.398 18.52V20.52ZM128.459 22.2326C129.681 23.3015 130.358 24.9 130.358 27.2H132.358C132.358 24.4866 131.541 22.2718 129.776 20.7274L128.459 22.2326ZM130.358 27.2V36.4H132.358V27.2H130.358ZM131.358 37.4H133.318V35.4H131.358V37.4ZM132.318 36.4V41H134.318V36.4H132.318ZM133.318 40H130.038V42H133.318V40ZM121.838 38.36C122.97 38.36 124.001 38.1141 124.882 37.5717L123.834 35.8683C123.328 36.1793 122.679 36.36 121.838 36.36V38.36ZM124.868 37.5803C125.941 36.9441 126.438 35.8913 126.438 34.64H124.438C124.438 35.3087 124.214 35.6426 123.848 35.8597L124.868 37.5803ZM126.438 34.64V32.16H124.438V34.64H126.438ZM125.438 31.16H122.558V33.16H125.438V31.16ZM122.558 31.16C121.316 31.16 120.209 31.3648 119.387 31.9224C118.495 32.527 118.078 33.4493 118.078 34.52H120.078C120.078 34.0174 120.241 33.7597 120.509 33.5776C120.847 33.3485 121.48 33.16 122.558 33.16V31.16ZM118.078 34.52V35.12H120.078V34.52H118.078ZM118.078 35.12C118.078 36.1101 118.396 37.0165 119.184 37.6294L120.412 36.0506C120.24 35.9168 120.078 35.6766 120.078 35.12H118.078ZM119.212 37.6507C119.927 38.1671 120.845 38.36 121.838 38.36V36.36C121.071 36.36 120.628 36.2062 120.383 36.0293L119.212 37.6507ZM141.571 40.72L141.173 41.6371L141.181 41.6407L141.189 41.6443L141.571 40.72ZM138.491 38.52L137.733 39.1726L137.743 39.183L138.491 38.52ZM136.611 35.04L135.657 35.3393L136.611 35.04ZM136.611 25.96L137.564 26.2648L137.565 26.2593L136.611 25.96ZM138.491 22.48L137.733 21.8275V21.8275L138.491 22.48ZM151.091 20.96L150.529 21.7872L150.537 21.792L151.091 20.96ZM154.171 25L154.569 25.9176L155.425 25.5464L155.114 24.6664L154.171 25ZM149.371 27.08L148.397 27.3072L148.67 28.4739L149.769 27.9976L149.371 27.08ZM148.211 25.04L147.521 25.7634L148.211 25.04ZM143.051 25.4L143.835 26.0214L143.84 26.015L143.845 26.0084L143.051 25.4ZM148.291 35.96L148.966 36.6985L148.967 36.6972L148.291 35.96ZM149.691 33.68L150.09 32.7629L149.071 32.3197L148.737 33.3802L149.691 33.68ZM154.291 35.68L155.236 36.0075L155.54 35.1323L154.69 34.7629L154.291 35.68ZM151.051 40.08L150.514 39.2363L150.507 39.2408L151.051 40.08ZM145.771 40.48C144.305 40.48 143.038 40.244 141.953 39.7957L141.189 41.6443C142.557 42.2093 144.091 42.48 145.771 42.48V40.48ZM141.97 39.8029C140.867 39.3234 139.963 38.6733 139.24 37.857L137.743 39.183C138.673 40.2334 139.822 41.0499 141.173 41.6371L141.97 39.8029ZM139.249 37.8675C138.522 37.0228 137.956 35.987 137.565 34.7407L135.657 35.3393C136.119 36.813 136.808 38.0972 137.733 39.1725L139.249 37.8675ZM137.565 34.7407C137.174 33.493 136.971 32.0761 136.971 30.48H134.971C134.971 32.2439 135.195 33.867 135.657 35.3393L137.565 34.7407ZM136.971 30.48C136.971 28.8834 137.174 27.4822 137.564 26.2648L135.659 25.6552C135.195 27.1045 134.971 28.7166 134.971 30.48H136.971ZM137.565 26.2593C137.956 25.013 138.522 23.9772 139.249 23.1325L137.733 21.8275C136.808 22.9028 136.119 24.187 135.657 25.6607L137.565 26.2593ZM139.249 23.1325C139.968 22.297 140.864 21.654 141.953 21.2043L141.189 19.3557C139.825 19.9193 138.667 20.743 137.733 21.8275L139.249 23.1325ZM141.953 21.2043C143.038 20.756 144.305 20.52 145.771 20.52V18.52C144.091 18.52 142.557 18.7907 141.189 19.3557L141.953 21.2043ZM145.771 20.52C147.754 20.52 149.319 20.965 150.529 21.7872L151.653 20.1328C150.037 19.035 148.055 18.52 145.771 18.52V20.52ZM150.537 21.792C151.785 22.6244 152.682 23.7904 153.229 25.3336L155.114 24.6664C154.433 22.7429 153.277 21.2155 151.646 20.1279L150.537 21.792ZM153.774 24.0824L148.974 26.1624L149.769 27.9976L154.569 25.9176L153.774 24.0824ZM150.345 26.8528C150.115 25.8659 149.631 25.0128 148.902 24.3166L147.521 25.7634C147.965 26.1872 148.254 26.694 148.397 27.3072L150.345 26.8528ZM148.902 24.3166C148.081 23.533 146.993 23.2 145.771 23.2V25.2C146.63 25.2 147.168 25.427 147.521 25.7634L148.902 24.3166ZM145.771 23.2C144.327 23.2 143.097 23.6964 142.258 24.7916L143.845 26.0084C144.232 25.5036 144.816 25.2 145.771 25.2V23.2ZM142.268 24.7786C141.472 25.7819 141.131 27.0798 141.131 28.56H143.131C143.131 27.3735 143.404 26.5648 143.835 26.0214L142.268 24.7786ZM141.131 28.56V32.48H143.131V28.56H141.131ZM141.131 32.48C141.131 33.9602 141.472 35.2581 142.268 36.2614L143.835 35.0186C143.404 34.4752 143.131 33.6665 143.131 32.48H141.131ZM142.268 36.2614C143.112 37.3258 144.339 37.8 145.771 37.8V35.8C144.804 35.8 144.217 35.5009 143.835 35.0186L142.268 36.2614ZM145.771 37.8C147.014 37.8 148.12 37.4703 148.966 36.6985L147.617 35.2215C147.236 35.5697 146.662 35.8 145.771 35.8V37.8ZM148.967 36.6972C149.752 35.9772 150.306 35.0592 150.645 33.9798L148.737 33.3802C148.49 34.1675 148.11 34.7694 147.616 35.2228L148.967 36.6972ZM149.293 34.5971L153.893 36.5971L154.69 34.7629L150.09 32.7629L149.293 34.5971ZM153.346 35.3525C152.71 37.1871 151.752 38.4487 150.514 39.2363L151.588 40.9237C153.284 39.8446 154.485 38.1729 155.236 36.0075L153.346 35.3525ZM150.507 39.2408C149.261 40.0488 147.7 40.48 145.771 40.48V42.48C148.003 42.48 149.962 41.9779 151.595 40.9192L150.507 39.2408ZM160.635 39.44L159.928 40.1472L159.937 40.156L160.635 39.44ZM159.075 24.6H160.075V23.6H159.075V24.6ZM156.115 24.6H155.115V25.6H156.115V24.6ZM156.115 20V19H155.115V20H156.115ZM159.235 19.44L160.022 20.0578L160.032 20.0448L160.042 20.0314L159.235 19.44ZM159.675 14.32V13.32H158.675V14.32H159.675ZM164.995 14.32H165.995V13.32H164.995V14.32ZM164.995 20H163.995V21H164.995V20ZM169.155 20H170.155V19H169.155V20ZM169.155 24.6V25.6H170.155V24.6H169.155ZM164.995 24.6V23.6H163.995V24.6H164.995ZM164.995 36.4H163.995V37.4H164.995V36.4ZM168.835 36.4H169.835V35.4H168.835V36.4ZM168.835 41V42H169.835V41H168.835ZM165.315 40C163.422 40 162.152 39.5222 161.333 38.724L159.937 40.156C161.252 41.4378 163.101 42 165.315 42V40ZM161.342 38.7329C160.549 37.9399 160.075 36.7127 160.075 34.88H158.075C158.075 37.0473 158.641 38.8601 159.928 40.1471L161.342 38.7329ZM160.075 34.88V24.6H158.075V34.88H160.075ZM159.075 23.6H156.115V25.6H159.075V23.6ZM157.115 24.6V20H155.115V24.6H157.115ZM156.115 21H157.595V19H156.115V21ZM157.595 21C158.497 21 159.44 20.7977 160.022 20.0578L158.449 18.8222C158.444 18.829 158.294 19 157.595 19V21ZM160.042 20.0314C160.506 19.398 160.675 18.6005 160.675 17.76H158.675C158.675 18.3595 158.551 18.682 158.429 18.8486L160.042 20.0314ZM160.675 17.76V14.32H158.675V17.76H160.675ZM159.675 15.32H164.995V13.32H159.675V15.32ZM163.995 14.32V20H165.995V14.32H163.995ZM164.995 21H169.155V19H164.995V21ZM168.155 20V24.6H170.155V20H168.155ZM169.155 23.6H164.995V25.6H169.155V23.6ZM163.995 24.6V36.4H165.995V24.6H163.995ZM164.995 37.4H168.835V35.4H164.995V37.4ZM167.835 36.4V41H169.835V36.4H167.835ZM168.835 40H165.315V42H168.835V40ZM180.081 47.04L179.133 46.7228L178.692 48.04H180.081V47.04ZM192.001 11.4V10.4H191.281L191.053 11.0828L192.001 11.4ZM196.881 11.4L197.829 11.7172L198.27 10.4H196.881V11.4ZM184.961 47.04V48.04H185.681L185.909 47.3572L184.961 47.04ZM181.029 47.3572L192.949 11.7172L191.053 11.0828L179.133 46.7228L181.029 47.3572ZM192.001 12.4H196.881V10.4H192.001V12.4ZM195.933 11.0828L184.013 46.7228L185.909 47.3572L197.829 11.7172L195.933 11.0828ZM184.961 46.04H180.081V48.04H184.961V46.04ZM202.479 35.08L201.946 34.234L201.479 34.5282V35.08H202.479ZM211.999 29.08L212.533 29.926L212.999 29.6318V29.08H211.999ZM211.999 28.8H212.999V28.2482L212.533 27.954L211.999 28.8ZM202.479 22.8H201.479V23.3518L201.946 23.646L202.479 22.8ZM202.479 16.84L203.027 16.0034L201.479 14.9899V16.84H202.479ZM218.239 27.16H219.239V26.6195L218.787 26.3234L218.239 27.16ZM218.239 30.64L218.792 31.4737L219.239 31.1771V30.64H218.239ZM202.479 41.08H201.479V42.9419L203.032 41.9137L202.479 41.08ZM203.013 35.926L212.533 29.926L211.466 28.234L201.946 34.234L203.013 35.926ZM212.999 29.08V28.8H210.999V29.08H212.999ZM212.533 27.954L203.013 21.954L201.946 23.646L211.466 29.646L212.533 27.954ZM203.479 22.8V16.84H201.479V22.8H203.479ZM201.932 17.6766L217.692 27.9966L218.787 26.3234L203.027 16.0034L201.932 17.6766ZM217.239 27.16V30.64H219.239V27.16H217.239ZM217.687 29.8063L201.927 40.2463L203.032 41.9137L218.792 31.4737L217.687 29.8063ZM203.479 41.08V35.08H201.479V41.08H203.479Z" fill="#61DAFB" fill-opacity="0.3"/>
</g>
<defs>
<filter id="filter0_d_36_612" x="0.119995" y="11.3999" width="222.119" height="43.6401" filterUnits="userSpaceOnUse" color-interpolation-filters="sRGB">
<feFlood flood-opacity="0" result="BackgroundImageFix"/>
<feColorMatrix in="SourceAlpha" type="matrix" values="0 0 0 0 0 0 0 0 0 0 0 0 0 0 0 0 0 0 127 0" result="hardAlpha"/>
<feOffset dy="4"/>
<feGaussianBlur stdDeviation="2"/>
<feComposite in2="hardAlpha" operator="out"/>
<feColorMatrix type="matrix" values="0 0 0 0 0 0 0 0 0 0 0 0 0 0 0 0 0 0 0.25 0"/>
<feBlend mode="normal" in2="BackgroundImageFix" result="effect1_dropShadow_36_612"/>
<feBlend mode="normal" in="SourceGraphic" in2="effect1_dropShadow_36_612" result="shape"/>
</filter>
</defs>
</svg>
