<svg width="100%" height="100%" viewBox="0 0 572 422" fill="none" xmlns="http://www.w3.org/2000/svg">
<g id="contact_svg">
<path id="Rectangle 62" d="M572 12.7885H167.249V234.136H572V12.7885Z" fill="#E6E6E6"/>
<path id="Rectangle 75" d="M560.427 31.7694H178.822V216.446H560.427V31.7694Z" fill="white"/>
<path id="Rectangle 80" d="M571.828 0H167.076V19.8169H571.828V0Z" fill="#61DAFB"/>
<path id="Ellipse 90" d="M179.854 12.8392C181.614 12.8392 183.041 11.1948 183.041 9.16622C183.041 7.13768 181.614 5.49323 179.854 5.49323C178.094 5.49323 176.667 7.13768 176.667 9.16622C176.667 11.1948 178.094 12.8392 179.854 12.8392Z" fill="white"/>
<path id="Ellipse 91" d="M191.951 12.8392C193.711 12.8392 195.138 11.1948 195.138 9.16622C195.138 7.13768 193.711 5.49323 191.951 5.49323C190.191 5.49323 188.764 7.13768 188.764 9.16622C188.764 11.1948 190.191 12.8392 191.951 12.8392Z" fill="white"/>
<path id="Ellipse 92" d="M204.048 12.8392C205.809 12.8392 207.235 11.1948 207.235 9.16622C207.235 7.13768 205.809 5.49323 204.048 5.49323C202.288 5.49323 200.861 7.13768 200.861 9.16622C200.861 11.1948 202.288 12.8392 204.048 12.8392Z" fill="white"/>
<path id="Path 142" d="M349.504 75.5967C349.094 75.5967 348.702 75.7842 348.412 76.1179C348.123 76.4516 347.96 76.9042 347.96 77.3762C347.96 77.8481 348.123 78.3007 348.412 78.6344C348.702 78.9681 349.094 79.1556 349.504 79.1556H434.226C434.636 79.1556 435.028 78.9681 435.318 78.6344C435.608 78.3007 435.77 77.8481 435.77 77.3762C435.77 76.9042 435.608 76.4516 435.318 76.1179C435.028 75.7842 434.636 75.5967 434.226 75.5967H349.504Z" fill="#E6E6E6"/>
<path id="Path 143" d="M349.504 86.2743C349.095 86.2753 348.703 86.4632 348.414 86.7968C348.125 87.1304 347.963 87.5824 347.963 88.0537C347.963 88.525 348.125 88.977 348.414 89.3106C348.703 89.6442 349.095 89.8321 349.504 89.8331H392.756C393.165 89.8321 393.557 89.6442 393.846 89.3106C394.135 88.977 394.297 88.525 394.297 88.0537C394.297 87.5824 394.135 87.1304 393.846 86.7968C393.557 86.4632 393.165 86.2753 392.756 86.2743H349.504Z" fill="#E6E6E6"/>
<path id="Path 142_2" d="M347.372 137.955C346.962 137.955 346.57 138.143 346.28 138.476C345.991 138.81 345.828 139.263 345.828 139.735C345.828 140.207 345.991 140.659 346.28 140.993C346.57 141.327 346.962 141.514 347.372 141.514H506.226C506.636 141.514 507.029 141.327 507.318 140.993C507.608 140.659 507.77 140.207 507.77 139.735C507.77 139.263 507.608 138.81 507.318 138.476C507.029 138.143 506.636 137.955 506.226 137.955H347.372Z" fill="#E6E6E6"/>
<path id="Path 143_2" d="M347.372 148.633C346.963 148.634 346.571 148.822 346.282 149.155C345.994 149.489 345.831 149.941 345.831 150.412C345.831 150.883 345.994 151.336 346.282 151.669C346.571 152.003 346.963 152.191 347.372 152.192H464.757C465.166 152.191 465.558 152.003 465.846 151.669C466.135 151.336 466.297 150.883 466.297 150.412C466.297 149.941 466.135 149.489 465.846 149.155C465.558 148.822 465.166 148.634 464.757 148.633H347.372Z" fill="#E6E6E6"/>
<path id="Path 142_3" d="M347.372 159.069C346.963 159.07 346.571 159.258 346.282 159.591C345.994 159.925 345.831 160.377 345.831 160.848C345.831 161.319 345.994 161.771 346.282 162.105C346.571 162.439 346.963 162.627 347.372 162.628H506.227C506.635 162.627 507.027 162.439 507.316 162.105C507.605 161.771 507.767 161.319 507.767 160.848C507.767 160.377 507.605 159.925 507.316 159.591C507.027 159.258 506.635 159.07 506.227 159.069H347.372Z" fill="#E6E6E6"/>
<path id="Path 143_3" d="M347.372 169.746C346.963 169.747 346.571 169.935 346.282 170.269C345.994 170.602 345.831 171.054 345.831 171.526C345.831 171.997 345.994 172.449 346.282 172.783C346.571 173.116 346.963 173.304 347.372 173.305H464.757C465.166 173.304 465.558 173.116 465.846 172.783C466.135 172.449 466.297 171.997 466.297 171.526C466.297 171.054 466.135 170.602 465.846 170.269C465.558 169.935 465.166 169.747 464.757 169.746H347.372Z" fill="#E6E6E6"/>
<path id="Vector" d="M267.617 111.098C268.245 110.941 268.902 110.948 269.503 111.118C270.102 111.336 270.543 111.827 270.984 112.279C272.673 114.028 274.79 115.436 277.198 116.413C278.95 117.111 281.173 117.974 281.226 119.828C281.19 120.45 281.032 121.068 280.759 121.657C279.749 124.406 276.123 127.039 277.02 129.811C275.209 128.017 276.961 126.658 275.149 124.864C274.286 124.01 272.894 123.121 271.964 123.92C271.653 124.188 271.49 124.597 271.16 124.842C270.372 125.426 269.306 124.768 268.437 124.323C265.439 122.785 261.78 123.982 258.609 125.194C257.111 125.766 255.477 126.457 254.785 127.877C253.875 129.744 256.543 131.108 257.471 132.869C257.547 133.02 257.58 133.186 257.564 133.354C257.548 133.522 257.486 133.686 257.382 133.833C257.277 133.98 257.134 134.106 256.965 134.198C256.795 134.291 256.605 134.348 256.409 134.366C255.409 134.459 254.229 134.6 254.106 134.244C252.873 134.503 251.333 134.655 250.606 133.655C250.366 133.251 250.2 132.816 250.112 132.362C249.589 130.559 248.369 129.046 247.447 127.406C246.525 125.765 245.894 123.762 246.646 122.027C246.921 121.445 247.292 120.896 247.746 120.397C252.729 114.565 260.264 112.404 267.617 111.098Z" fill="#2F2E41"/>
<path id="Vector_2" d="M264.322 145.177C271.747 145.177 277.766 138.24 277.766 129.682C277.766 121.125 271.747 114.188 264.322 114.188C256.897 114.188 250.877 121.125 250.877 129.682C250.877 138.24 256.897 145.177 264.322 145.177Z" fill="#FFB8B8"/>
<path id="Vector_3" d="M264.86 111.892C265.426 111.753 266.017 111.746 266.571 111.872C267.089 112.082 267.541 112.392 267.893 112.78C269.447 114.189 271.341 115.284 273.454 115.995C275.03 116.524 277.031 117.178 277.044 118.671C276.997 119.181 276.842 119.683 276.586 120.153C275.617 122.408 275.505 124.838 276.266 127.075L271.436 122.842C270.669 122.17 269.423 121.48 268.564 122.141C268.277 122.363 268.121 122.695 267.817 122.899C267.092 123.385 266.136 122.874 265.356 122.532C262.665 121.349 259.324 122.381 256.423 123.417C255.054 123.907 253.559 124.494 252.904 125.651C251.816 127.574 253.697 129.736 253.233 131.815C252.982 131.719 252.758 131.579 252.575 131.404C252.393 131.228 252.254 131.021 252.168 130.794C251.045 131.025 249.644 131.177 249.004 130.385C248.795 130.067 248.652 129.718 248.58 129.353C248.139 127.909 247.061 126.713 246.255 125.409C245.45 124.104 244.914 122.502 245.629 121.09C245.896 120.607 246.243 120.157 246.657 119.756C251.288 114.963 258.165 113.081 264.86 111.892Z" fill="#2F2E41"/>
<path id="Vector_4" d="M256.695 179.773C254.099 179.534 251.526 179.047 249 178.316L249.142 175.227L250.319 150.658L250.33 150.469H274.013L277.729 173.091L278.231 176.143C277.25 176.583 276.258 176.998 275.245 177.362C275.233 177.362 275.233 177.374 275.223 177.374C273.817 177.877 272.389 178.316 270.95 178.681C269.037 179.156 267.101 179.5 265.152 179.711C263.646 179.883 262.132 179.967 260.619 179.962C259.31 179.962 257.992 179.899 256.695 179.773Z" fill="#61DAFB"/>
<path id="Vector_5" d="M241.469 175.402C240.488 174.913 239.54 174.385 238.603 173.832L238.199 173.594C237.927 173.43 237.644 173.254 237.371 173.079C237 172.84 236.641 172.601 236.292 172.363C235.954 172.137 235.606 171.898 235.268 171.659C235.246 171.647 235.235 171.634 235.213 171.634C234.036 170.768 232.881 169.876 231.769 168.909C231.584 168.745 231.399 168.582 231.213 168.419L231.017 164.801L231.3 164.6L250.319 150.658L250.58 150.469L250.602 150.457L253.283 150.469V161.975C254.798 164.5 255.823 169.788 256.455 176.709C256.542 177.701 256.618 178.718 256.695 179.773C254.099 179.534 251.526 179.047 249 178.316C248.728 178.254 248.466 178.178 248.194 178.09C246.605 177.611 245.041 177.033 243.507 176.357C243.038 176.156 242.581 175.942 242.123 175.729L242.079 175.704C241.883 175.603 241.665 175.503 241.469 175.402Z" fill="#2F2E41"/>
<path id="Vector_6" d="M237.371 173.079C237 172.84 236.641 172.601 236.292 172.363C235.954 172.137 235.606 171.898 235.268 171.659C235.246 171.647 235.235 171.634 235.213 171.634C234.036 170.768 232.881 169.876 231.769 168.909C231.584 168.745 231.399 168.582 231.213 168.419C231.126 168.331 231.039 168.255 230.941 168.167C230.244 167.552 229.568 166.911 228.914 166.233C228.881 166.208 228.859 166.17 228.826 166.145C229.487 165.56 230.227 165.106 231.017 164.801L231.791 165.065L237.306 166.974L237.338 169.549L237.371 173.079Z" fill="#2F2E41"/>
<path id="Vector_7" d="M283.811 173.116C283.484 173.317 283.157 173.518 282.83 173.707C282.754 173.757 282.689 173.795 282.623 173.832C282.187 174.084 281.762 174.335 281.326 174.573C281.315 174.586 281.293 174.586 281.293 174.598C281.272 174.611 281.239 174.624 281.217 174.636C280.237 175.176 279.245 175.679 278.231 176.143C277.25 176.583 276.258 176.998 275.245 177.362C275.234 177.362 275.234 177.374 275.223 177.374C273.817 177.877 272.389 178.316 270.95 178.681C270.934 177.649 271.052 176.62 271.299 175.628L271.31 175.453L272.248 157.968L270.994 150.469L274.591 149.854L294.372 162.126C294.372 162.126 292.192 164.638 283.244 169.989C282.453 170.462 283.615 172.036 283.811 173.116Z" fill="#2F2E41"/>
<path id="Vector_8" d="M264.913 176.696C263.495 176.847 262.057 176.922 260.618 176.922C259.223 176.922 257.839 176.859 256.455 176.709C256.542 177.701 256.618 178.718 256.695 179.773C257.992 179.899 259.31 179.962 260.618 179.962C262.132 179.967 263.646 179.883 265.152 179.711C267.101 179.5 269.037 179.156 270.95 178.681C270.934 177.649 271.052 176.62 271.299 175.628L271.31 175.453C269.206 176.043 267.068 176.458 264.913 176.696ZM306.098 106.206C303.795 98.5815 300.077 91.6278 295.203 85.8298C290.328 80.0317 284.415 75.5288 277.875 72.635C271.336 69.7413 264.327 68.5264 257.338 69.075C250.349 69.6236 243.548 71.9226 237.409 75.8116C231.271 79.7005 225.942 85.086 221.795 91.5922C217.647 98.0985 214.781 105.569 213.397 113.483C212.012 121.397 212.142 129.564 213.777 137.414C215.412 145.264 218.514 152.609 222.865 158.935C223.301 159.563 223.748 160.191 224.206 160.794C224.249 160.845 224.271 160.882 224.303 160.92C225.429 162.416 226.626 163.837 227.889 165.178C228.195 165.505 228.51 165.831 228.826 166.145C228.859 166.17 228.881 166.208 228.914 166.233C229.568 166.911 230.243 167.552 230.941 168.167C231.039 168.255 231.126 168.331 231.213 168.419C231.399 168.582 231.584 168.745 231.769 168.909C232.881 169.876 234.036 170.767 235.213 171.634C235.235 171.634 235.246 171.647 235.268 171.659C235.606 171.898 235.954 172.137 236.292 172.363C236.641 172.601 237.001 172.84 237.371 173.079C237.644 173.254 237.927 173.43 238.199 173.594L238.603 173.832C239.54 174.385 240.488 174.912 241.469 175.402C241.665 175.503 241.883 175.603 242.079 175.704L242.123 175.729C242.581 175.942 243.038 176.156 243.507 176.357C245.041 177.033 246.605 177.611 248.193 178.09C248.466 178.178 248.728 178.254 249 178.316C251.526 179.047 254.099 179.534 256.695 179.773C257.992 179.899 259.31 179.962 260.618 179.962C262.132 179.967 263.645 179.883 265.152 179.711C267.101 179.5 269.037 179.156 270.95 178.681C272.389 178.316 273.817 177.877 275.223 177.374C275.233 177.374 275.233 177.362 275.245 177.362C276.258 176.998 277.25 176.583 278.23 176.143C279.244 175.679 280.236 175.176 281.217 174.636C281.239 174.624 281.271 174.611 281.293 174.598C281.293 174.586 281.315 174.586 281.326 174.573C281.762 174.335 282.187 174.083 282.623 173.832C282.688 173.795 282.753 173.757 282.83 173.707C283.157 173.518 283.483 173.317 283.811 173.116C283.833 173.104 283.843 173.091 283.865 173.079C284.726 172.526 285.576 171.948 286.416 171.333C286.645 171.169 286.873 171.006 287.102 170.818C287.44 170.579 287.767 170.315 288.083 170.052C288.508 169.712 288.933 169.361 289.347 168.996C289.485 168.895 289.616 168.781 289.74 168.657C290.753 167.778 291.734 166.849 292.671 165.869C299.779 158.57 304.849 149.005 307.239 138.385C309.629 127.765 309.232 116.566 306.098 106.206L306.098 106.206ZM291.854 162.628C290.674 163.907 289.437 165.115 288.149 166.246C287.865 166.497 287.571 166.748 287.277 166.974C286.993 167.225 286.71 167.464 286.416 167.69C286.165 167.891 285.915 168.092 285.653 168.281C285.631 168.306 285.598 168.318 285.577 168.343C285.391 168.494 285.195 168.632 285.01 168.77C284.432 169.185 283.833 169.599 283.244 169.989C283.103 170.077 282.972 170.177 282.83 170.265C282.753 170.315 282.677 170.366 282.59 170.416C282.263 170.629 281.936 170.818 281.609 171.019C281.566 171.056 281.511 171.069 281.468 171.107C281.451 171.11 281.436 171.118 281.424 171.132C281.195 171.27 280.966 171.396 280.738 171.521C280.541 171.634 280.356 171.747 280.16 171.848C279.364 172.287 278.547 172.702 277.729 173.091C276.868 173.493 275.997 173.857 275.114 174.196C274.895 174.284 274.667 174.385 274.438 174.46C273.402 174.837 272.367 175.176 271.31 175.453C269.206 176.043 267.068 176.458 264.913 176.696C263.495 176.847 262.057 176.922 260.619 176.922C259.223 176.922 257.839 176.859 256.455 176.709C253.986 176.448 251.54 175.953 249.142 175.226C249.055 175.201 248.957 175.176 248.869 175.151C246.902 174.56 244.975 173.804 243.104 172.89C243.006 172.84 242.897 172.802 242.81 172.752C242.701 172.702 242.603 172.664 242.515 172.614C242.406 172.564 242.308 172.513 242.21 172.463C241.393 172.049 240.597 171.596 239.802 171.132L239.431 170.906C238.723 170.479 238.025 170.039 237.338 169.549C237.099 169.398 236.848 169.223 236.608 169.047C236.336 168.858 236.063 168.657 235.801 168.456C235.737 168.406 235.671 168.356 235.606 168.306C234.995 167.828 234.374 167.351 233.786 166.836C233.372 166.484 232.968 166.145 232.565 165.781C232.303 165.555 232.042 165.316 231.791 165.065C231.628 164.927 231.464 164.764 231.3 164.6C231.083 164.387 230.865 164.173 230.647 163.947C230.309 163.633 229.993 163.281 229.687 162.955C228.46 161.651 227.299 160.267 226.211 158.81C225.84 158.332 225.491 157.855 225.154 157.353C225.075 157.254 225.002 157.149 224.936 157.039C219.449 149.056 216.096 139.405 215.288 129.264C214.479 119.123 216.248 108.93 220.38 99.9281C224.513 90.9263 230.829 83.5051 238.558 78.5699C246.288 73.6346 255.097 71.3987 263.91 72.1348C272.723 72.871 281.16 76.5474 288.192 82.7156C295.223 88.8838 300.544 97.277 303.507 106.871C306.47 116.466 306.946 126.847 304.876 136.747C302.807 146.648 298.282 155.641 291.854 162.628L291.854 162.628Z" fill="#3F3D56"/>
<path id="Vector_9" d="M39.54 411.683L48.3572 411.682L52.5514 372.488L39.5386 372.489L39.54 411.683Z" fill="#FFB8B8"/>
<path id="Vector_10" d="M37.291 408.365L54.6549 408.365H54.6556C57.5903 408.365 60.4048 409.709 62.48 412.1C64.5552 414.492 65.7211 417.735 65.7213 421.117V421.532L37.2915 421.533L37.291 408.365Z" fill="#2F2E41"/>
<path id="Vector_11" d="M72.6223 411.683L81.4394 411.682L85.6337 372.488L72.6208 372.489L72.6223 411.683Z" fill="#FFB8B8"/>
<path id="Vector_12" d="M70.3733 408.365L87.7372 408.365H87.7379C90.6726 408.365 93.4871 409.709 95.5623 412.1C97.6374 414.492 98.8034 417.735 98.8036 421.117V421.532L70.3738 421.533L70.3733 408.365Z" fill="#2F2E41"/>
<path id="Vector_13" d="M12.7869 256.808C13.5085 255.917 14.0519 254.855 14.3789 253.697C14.7058 252.538 14.8083 251.311 14.6792 250.101C14.5501 248.892 14.1924 247.73 13.6315 246.697C13.0705 245.664 12.3199 244.786 11.4325 244.123L17.5586 215.359L4.97843 220.525L1.08964 247.048C0.223013 248.84 -0.0431645 250.936 0.341532 252.939C0.726229 254.942 1.73509 256.713 3.17692 257.916C4.61876 259.119 6.39341 259.67 8.16459 259.466C9.93577 259.262 11.5804 258.316 12.7869 256.808V256.808Z" fill="#FFB8B8"/>
<path id="Vector_14" d="M106.382 254.321C105.66 253.431 105.116 252.369 104.79 251.21C104.463 250.051 104.36 248.824 104.489 247.615C104.618 246.405 104.976 245.243 105.537 244.211C106.098 243.178 106.849 242.299 107.736 241.637L101.61 212.872L114.19 218.038L118.079 244.562C118.945 246.354 119.212 248.45 118.827 250.453C118.442 252.456 117.433 254.226 115.992 255.429C114.55 256.632 112.775 257.184 111.004 256.98C109.233 256.776 107.588 255.83 106.382 254.321V254.321Z" fill="#FFB8B8"/>
<path id="Vector_15" d="M24.3875 236.645L36.6085 401.638L54.4902 399.759L61.6467 272.242L68.0172 322.733L69.2931 402.937L85.4746 401.693L94.46 315.411L92.2558 231.85L30.8255 224.68L24.3875 236.645Z" fill="#2F2E41"/>
<path id="Vector_16" d="M63.3065 40.9593C64.1913 40.7369 65.1187 40.7467 65.966 40.9872C66.8107 41.2949 67.4321 41.9872 68.0538 42.6237C70.4368 45.0903 73.4213 47.0759 76.8181 48.4548C79.2887 49.439 82.4236 50.6563 82.4978 53.2709C82.4473 54.1478 82.2248 55.0195 81.8397 55.8495C80.415 59.727 75.301 63.44 76.5671 67.3482C74.0122 64.8191 76.4832 62.9018 73.9283 60.3728C72.7116 59.1684 70.7476 57.9143 69.4365 59.0412C68.9975 59.4185 68.7681 59.9956 68.3025 60.3411C67.1917 61.1653 65.6876 60.2373 64.4618 59.6087C60.2347 57.441 55.075 59.1279 50.6017 60.8372C48.4899 61.6442 46.1862 62.6195 45.2101 64.6218C43.9268 67.2543 47.6895 69.1781 48.9969 71.6619C49.1053 71.8741 49.1506 72.1086 49.1287 72.3453C49.1068 72.5821 49.0185 72.8141 48.8713 73.0215C48.7242 73.2288 48.5225 73.4054 48.2836 73.5361C48.0447 73.6668 47.7756 73.7477 47.4994 73.7719C46.0892 73.9038 44.4261 74.1025 44.2516 73.6003C42.5128 73.9652 40.3407 74.1798 39.3161 72.7702C38.9781 72.2005 38.7435 71.5861 38.62 70.9471C37.8822 68.4037 36.1621 66.2704 34.8617 63.9565C33.5614 61.6426 32.6712 58.8178 33.7315 56.3711C34.1194 55.5508 34.642 54.7766 35.2827 54.073C42.3102 45.8475 52.9367 42.8005 63.3065 40.9593Z" fill="#2F2E41"/>
<path id="Vector_17" d="M58.0058 86.5045C68.2477 86.5045 76.5504 76.9358 76.5504 65.1323C76.5504 53.3287 68.2477 43.76 58.0058 43.76C47.7639 43.76 39.4612 53.3287 39.4612 65.1323C39.4612 76.9358 47.7639 86.5045 58.0058 86.5045Z" fill="#FFB8B8"/>
<path id="Vector_18" d="M38.7082 93.8052H71.3674L94.46 234.356C94.46 234.356 74.3274 236.34 62.8205 241.313C51.3136 246.286 32.1846 229.953 32.1846 229.953L38.7082 93.8052Z" fill="#61DAFB"/>
<path id="Vector_19" d="M42.7855 109.677V93.8052L39.0877 93.7793L12.0703 113.576L17.9328 222.04C17.9328 222.04 24.8714 258.226 35.3957 257.85C45.9199 257.475 54.0348 128.476 42.7855 109.677Z" fill="#2F2E41"/>
<path id="Vector_20" d="M20.7485 116.572L12.0703 113.576C12.0703 113.576 5.64576 115.744 5.64576 123.203C5.64576 130.663 0.110352 236.645 0.110352 236.645L17.6948 238.436L21.4677 184.537L20.7485 116.572Z" fill="#2F2E41"/>
<path id="Vector_21" d="M68.9335 104.14L67.2037 93.8052L72.1698 92.9504L90.1493 101.239C90.1493 101.239 106.331 237.583 99.1391 241.727C91.9473 245.871 87.0914 242.661 87.0914 242.661C87.0914 242.661 63.4367 142.101 67.6235 128.508L68.9335 104.14Z" fill="#2F2E41"/>
<path id="Vector_22" d="M77.5637 103.311L80.6322 101.772C80.6322 101.772 89.6385 96.6282 94.7484 107.015C99.8583 117.401 117.838 233.439 117.838 233.439L103.044 236.645L91.9841 194.885L77.5637 103.311Z" fill="#2F2E41"/>
<path id="Vector_23" d="M59.4188 42.0782C60.217 41.8825 61.0498 41.8731 61.8312 42.0508C62.5618 42.3463 63.1985 42.7834 63.6948 43.3303C65.8873 45.3172 68.5586 46.8617 71.5373 47.8645C73.7603 48.6112 76.5817 49.5334 76.6001 51.6386C76.5344 52.3573 76.3155 53.0661 75.9547 53.7286C74.5882 56.9092 74.43 60.3361 75.5041 63.491L68.6921 57.5213C67.6108 56.5737 65.8524 55.6 64.6418 56.5326C64.2364 56.8448 64.0175 57.3141 63.5886 57.6012C62.5653 58.2861 61.2181 57.5666 60.1177 57.083C56.3231 55.4156 51.6103 56.8714 47.5197 58.3324C45.5886 59.0222 43.4802 59.8512 42.5572 61.4828C41.0232 64.1941 43.6748 67.2425 43.0206 70.1752C42.6667 70.0397 42.3515 69.8425 42.0937 69.5951C41.8358 69.3477 41.6405 69.0552 41.5194 68.735C39.935 69.0616 37.9603 69.2752 37.0571 68.1586C36.7629 67.7104 36.561 67.2181 36.4597 66.7027C35.8379 64.6672 34.3172 62.9805 33.1808 61.1405C32.0444 59.3005 31.2896 57.0411 32.2975 55.0499C32.6746 54.3688 33.1634 53.735 33.7478 53.1692C40.2778 46.41 49.9761 43.7559 59.4188 42.0782Z" fill="#2F2E41"/>
</g>
</svg>
