<svg width="100%" viewBox="0 0 190 52" fill="none" xmlns="http://www.w3.org/2000/svg">
<g id="water markk">
<path id="&#60;About /&#62;" d="M4.12 30.68H3.12V31.2182L3.56922 31.5146L4.12 30.68ZM4.12 27.2L3.5707 26.3644L3.12 26.6606V27.2H4.12ZM19.88 16.84H20.88V14.9859L19.3307 16.0044L19.88 16.84ZM19.88 22.8L20.4132 23.646L20.88 23.3518V22.8H19.88ZM10.36 28.8L9.82681 27.954L9.36 28.2482V28.8H10.36ZM10.36 29.08H9.36V29.6318L9.82681 29.926L10.36 29.08ZM19.88 35.08H20.88V34.5282L20.4132 34.234L19.88 35.08ZM19.88 41.08L19.3292 41.9146L20.88 42.938V41.08H19.88ZM5.12 30.68V27.2H3.12V30.68H5.12ZM4.66931 28.0356L20.4293 17.6756L19.3307 16.0044L3.5707 26.3644L4.66931 28.0356ZM18.88 16.84V22.8H20.88V16.84H18.88ZM19.3468 21.954L9.82681 27.954L10.8932 29.646L20.4132 23.646L19.3468 21.954ZM9.36 28.8V29.08H11.36V28.8H9.36ZM9.82681 29.926L19.3468 35.926L20.4132 34.234L10.8932 28.234L9.82681 29.926ZM18.88 35.08V41.08H20.88V35.08H18.88ZM20.4308 40.2453L4.67078 29.8454L3.56922 31.5146L19.3292 41.9146L20.4308 40.2453ZM44.2644 41L43.3069 41.2884L43.5212 42H44.2644V41ZM42.2644 34.36L43.2219 34.0716L43.0075 33.36H42.2644V34.36ZM32.9444 34.36V33.36H32.2012L31.9869 34.0716L32.9444 34.36ZM30.9444 41V42H31.6875L31.9019 41.2884L30.9444 41ZM24.7844 41L23.8346 40.687L23.402 42H24.7844V41ZM33.9844 13.08V12.08H33.261L33.0346 12.767L33.9844 13.08ZM41.5044 13.08L42.4553 12.7707L42.2307 12.08H41.5044V13.08ZM50.5844 41V42H51.9611L51.5354 40.6907L50.5844 41ZM37.6644 18.6L38.6237 18.3176L38.4125 17.6H37.6644V18.6ZM37.4644 18.6V17.6H36.7136L36.5041 18.321L37.4644 18.6ZM34.3844 29.2L33.4241 28.921L33.0525 30.2H34.3844V29.2ZM40.7844 29.2V30.2H42.1211L41.7437 28.9176L40.7844 29.2ZM45.2219 40.7116L43.2219 34.0716L41.3069 34.6484L43.3069 41.2884L45.2219 40.7116ZM42.2644 33.36H32.9444V35.36H42.2644V33.36ZM31.9869 34.0716L29.9869 40.7116L31.9019 41.2884L33.9019 34.6484L31.9869 34.0716ZM30.9444 40H24.7844V42H30.9444V40ZM25.7341 41.313L34.9341 13.393L33.0346 12.767L23.8346 40.687L25.7341 41.313ZM33.9844 14.08H41.5044V12.08H33.9844V14.08ZM40.5534 13.3893L49.6334 41.3093L51.5354 40.6907L42.4553 12.7707L40.5534 13.3893ZM50.5844 40H44.2644V42H50.5844V40ZM37.6644 17.6H37.4644V19.6H37.6644V17.6ZM36.5041 18.321L33.4241 28.921L35.3447 29.479L38.4247 18.879L36.5041 18.321ZM34.3844 30.2H40.7844V28.2H34.3844V30.2ZM41.7437 28.9176L38.6237 18.3176L36.7051 18.8824L39.8251 29.4824L41.7437 28.9176ZM54.1272 11.4V10.4H53.1272V11.4H54.1272ZM60.0472 11.4H61.0472V10.4H60.0472V11.4ZM60.0472 23.52H59.0472V24.52H60.0472V23.52ZM60.2472 23.52V24.52H61.028L61.2173 23.7625L60.2472 23.52ZM62.2472 20.64L61.6737 19.8207L61.664 19.8277L62.2472 20.64ZM71.9272 22.32L71.1189 22.9089L71.9272 22.32ZM71.9272 38.68L72.7354 39.2689L72.7394 39.2634L71.9272 38.68ZM63.9272 41.16L64.2557 40.2155L64.2372 40.209L64.2184 40.2033L63.9272 41.16ZM62.2472 40.36L61.6332 41.1494L61.6573 41.1681L61.6825 41.1853L62.2472 40.36ZM61.0072 39.08L60.1819 39.6447L60.1891 39.6552L60.1965 39.6655L61.0072 39.08ZM60.2472 37.48L61.2087 37.2053L61.0015 36.48H60.2472V37.48ZM60.0472 37.48V36.48H59.0472V37.48H60.0472ZM60.0472 41V42H61.0472V41H60.0472ZM54.1272 41H53.1272V42H54.1272V41ZM66.6872 35.52L65.9561 34.8377L65.9553 34.8386L66.6872 35.52ZM66.6872 25.52L65.9439 26.189L65.9556 26.202L65.9678 26.2146L66.6872 25.52ZM61.1272 25.16L61.7224 25.9636L61.7272 25.96L61.1272 25.16ZM61.1272 35.88L60.5132 36.6694L60.5294 36.6819L60.5459 36.6937L61.1272 35.88ZM54.1272 12.4H60.0472V10.4H54.1272V12.4ZM59.0472 11.4V23.52H61.0472V11.4H59.0472ZM60.0472 24.52H60.2472V22.52H60.0472V24.52ZM61.2173 23.7625C61.4497 22.8331 61.9706 22.0696 62.8304 21.4523L61.664 19.8277C60.4438 20.7037 59.6314 21.8602 59.277 23.2775L61.2173 23.7625ZM62.8207 21.4592C63.7115 20.8357 64.7227 20.52 65.8872 20.52V18.52C64.3317 18.52 62.9163 18.951 61.6737 19.8208L62.8207 21.4592ZM65.8872 20.52C68.2907 20.52 69.9782 21.3431 71.1189 22.9089L72.7354 21.7311C71.1562 19.5636 68.817 18.52 65.8872 18.52V20.52ZM71.1189 22.9089C72.3029 24.5339 72.9672 27.0099 72.9672 30.48H74.9672C74.9672 26.8034 74.2715 23.8395 72.7354 21.7311L71.1189 22.9089ZM72.9672 30.48C72.9672 33.9486 72.3035 36.4421 71.115 38.0966L72.7394 39.2634C74.2709 37.1313 74.9672 34.1581 74.9672 30.48H72.9672ZM71.1189 38.0911C69.9782 39.6569 68.2907 40.48 65.8872 40.48V42.48C68.817 42.48 71.1562 41.4364 72.7354 39.2689L71.1189 38.0911ZM65.8872 40.48C65.2981 40.48 64.7565 40.3897 64.2557 40.2155L63.5987 42.1045C64.3246 42.357 65.0896 42.48 65.8872 42.48V40.48ZM64.2184 40.2033C63.698 40.045 63.2309 39.8214 62.8119 39.5347L61.6825 41.1853C62.2768 41.5919 62.9297 41.9017 63.636 42.1167L64.2184 40.2033ZM62.8611 39.5706C62.454 39.254 62.1075 38.8955 61.8179 38.4945L60.1965 39.6655C60.6002 40.2245 61.0804 40.7193 61.6332 41.1494L62.8611 39.5706ZM61.8325 38.5153C61.5432 38.0925 61.3376 37.6565 61.2087 37.2053L59.2857 37.7547C59.4768 38.4235 59.7778 39.0541 60.1819 39.6447L61.8325 38.5153ZM60.2472 36.48H60.0472V38.48H60.2472V36.48ZM59.0472 37.48V41H61.0472V37.48H59.0472ZM60.0472 40H54.1272V42H60.0472V40ZM55.1272 41V11.4H53.1272V41H55.1272ZM63.9272 37.68C65.3061 37.68 66.4975 37.1912 67.4191 36.2014L65.9553 34.8386C65.4368 35.3954 64.7883 35.68 63.9272 35.68V37.68ZM67.4182 36.2023C68.3738 35.1785 68.8072 33.8483 68.8072 32.32H66.8072C66.8072 33.4584 66.4939 34.2615 65.9561 34.8377L67.4182 36.2023ZM68.8072 32.32V28.68H66.8072V32.32H68.8072ZM68.8072 28.68C68.8072 27.1531 68.3742 25.8276 67.4066 24.8254L65.9678 26.2146C66.4935 26.7591 66.8072 27.5402 66.8072 28.68H68.8072ZM67.4305 24.851C66.5123 23.8308 65.3176 23.32 63.9272 23.32V25.32C64.7768 25.32 65.4221 25.6092 65.9439 26.189L67.4305 24.851ZM63.9272 23.32C62.6353 23.32 61.4795 23.6458 60.5272 24.36L61.7272 25.96C62.2682 25.5542 62.9791 25.32 63.9272 25.32V23.32ZM60.532 24.3564C59.5369 25.0935 59.0472 26.1495 59.0472 27.4H61.0472C61.0472 26.7305 61.2775 26.2931 61.7224 25.9636L60.532 24.3564ZM59.0472 27.4V33.6H61.0472V27.4H59.0472ZM59.0472 33.6C59.0472 34.8498 59.5352 35.9086 60.5132 36.6694L61.7411 35.0906C61.2792 34.7313 61.0472 34.2702 61.0472 33.6H59.0472ZM60.5459 36.6937C61.4967 37.3728 62.6455 37.68 63.9272 37.68V35.68C62.9688 35.68 62.251 35.4538 61.7084 35.0663L60.5459 36.6937ZM82.8231 40.72L82.4341 41.6413L82.4414 41.6443L82.8231 40.72ZM79.7431 38.52L78.9854 39.1725L78.9905 39.1785L78.9957 39.1844L79.7431 38.52ZM77.8231 35.04L78.7718 34.7238L77.8231 35.04ZM77.8231 25.92L78.7718 26.2362L77.8231 25.92ZM79.7431 22.48L78.9957 21.8156L78.9945 21.817L79.7431 22.48ZM82.8231 20.28L82.4414 19.3557L82.4342 19.3587L82.8231 20.28ZM91.1031 20.28L90.7141 21.2013L90.7214 21.2043L91.1031 20.28ZM94.1831 22.48L93.4254 23.1325L93.4351 23.1438L93.4451 23.1548L94.1831 22.48ZM96.1431 25.92L97.0918 25.6038V25.6038L96.1431 25.92ZM96.1431 35.04L97.0918 35.3562L96.1431 35.04ZM94.1831 38.52L93.4357 37.8556L93.4305 37.8615L93.4254 37.8675L94.1831 38.52ZM91.1031 40.72L90.7214 39.7957L90.7142 39.7988L91.1031 40.72ZM89.7031 35.72L90.4505 36.3844L89.7031 35.72ZM89.7031 25.28L90.4505 24.6156L89.7031 25.28ZM84.2631 25.28L85.0105 25.9444V25.9444L84.2631 25.28ZM84.2631 35.72L85.0105 35.0556L84.2631 35.72ZM86.9831 40.48C85.5461 40.48 84.2922 40.2448 83.2049 39.7957L82.4414 41.6443C83.8074 42.2085 85.3269 42.48 86.9831 42.48V40.48ZM83.2121 39.7988C82.1472 39.3491 81.2436 38.7028 80.4905 37.8556L78.9957 39.1844C79.9494 40.2572 81.0991 41.0775 82.4342 41.6413L83.2121 39.7988ZM80.5009 37.8675C79.7696 37.0182 79.1894 35.9765 78.7718 34.7238L76.8744 35.3562C77.3635 36.8235 78.0633 38.1018 78.9854 39.1725L80.5009 37.8675ZM78.7718 34.7238C78.3577 33.4815 78.1431 32.0706 78.1431 30.48H76.1431C76.1431 32.2494 76.3819 33.8785 76.8744 35.3562L78.7718 34.7238ZM78.1431 30.48C78.1431 28.8894 78.3577 27.4785 78.7718 26.2362L76.8744 25.6038C76.3819 27.0815 76.1431 28.7106 76.1431 30.48H78.1431ZM78.7718 26.2362C79.1888 24.9851 79.7668 23.9614 80.4917 23.143L78.9945 21.817C78.0661 22.8652 77.3641 24.1349 76.8744 25.6038L78.7718 26.2362ZM80.4905 23.1444C81.2436 22.2972 82.1472 21.6509 83.2121 21.2013L82.4342 19.3587C81.0991 19.9225 79.9494 20.7428 78.9957 21.8156L80.4905 23.1444ZM83.2049 21.2043C84.2922 20.7552 85.5461 20.52 86.9831 20.52V18.52C85.3269 18.52 83.8074 18.7915 82.4414 19.3557L83.2049 21.2043ZM86.9831 20.52C88.4208 20.52 89.6581 20.7553 90.7142 21.2013L91.4921 19.3587C90.1482 18.7913 88.6388 18.52 86.9831 18.52V20.52ZM90.7214 21.2043C91.8102 21.654 92.7059 22.297 93.4254 23.1325L94.9409 21.8275C94.007 20.743 92.8493 19.9193 91.4849 19.3557L90.7214 21.2043ZM93.4451 23.1548C94.192 23.9717 94.7795 24.9914 95.1944 26.2362L97.0918 25.6038C96.6001 24.1286 95.8809 22.855 94.9212 21.8052L93.4451 23.1548ZM95.1944 26.2362C95.6085 27.4785 95.8231 28.8894 95.8231 30.48H97.8231C97.8231 28.7106 97.5844 27.0815 97.0918 25.6038L95.1944 26.2362ZM95.8231 30.48C95.8231 32.0706 95.6085 33.4815 95.1944 34.7238L97.0918 35.3562C97.5844 33.8785 97.8231 32.2494 97.8231 30.48H95.8231ZM95.1944 34.7238C94.779 35.9702 94.1892 37.008 93.4357 37.8556L94.9305 39.1844C95.8837 38.112 96.6006 36.8298 97.0918 35.3562L95.1944 34.7238ZM93.4254 37.8675C92.7059 38.703 91.8102 39.346 90.7214 39.7957L91.4849 41.6443C92.8493 41.0807 94.007 40.257 94.9409 39.1725L93.4254 37.8675ZM90.7142 39.7988C89.6581 40.2447 88.4208 40.48 86.9831 40.48V42.48C88.6388 42.48 90.1482 42.2087 91.4921 41.6413L90.7142 39.7988ZM86.9831 37.8C88.3745 37.8 89.5801 37.3637 90.4505 36.3844L88.9557 35.0556C88.5462 35.5163 87.9384 35.8 86.9831 35.8V37.8ZM90.4505 36.3844C91.3065 35.4214 91.6631 34.124 91.6631 32.64H89.6631C89.6631 33.8226 89.3797 34.5786 88.9557 35.0556L90.4505 36.3844ZM91.6631 32.64V28.36H89.6631V32.64H91.6631ZM91.6631 28.36C91.6631 26.876 91.3065 25.5786 90.4505 24.6156L88.9557 25.9444C89.3797 26.4214 89.6631 27.1774 89.6631 28.36H91.6631ZM90.4505 24.6156C89.5801 23.6363 88.3745 23.2 86.9831 23.2V25.2C87.9384 25.2 88.5462 25.4837 88.9557 25.9444L90.4505 24.6156ZM86.9831 23.2C85.5918 23.2 84.3862 23.6363 83.5157 24.6156L85.0105 25.9444C85.4201 25.4837 86.0278 25.2 86.9831 25.2V23.2ZM83.5157 24.6156C82.6597 25.5786 82.3031 26.876 82.3031 28.36H84.3031C84.3031 27.1774 84.5865 26.4214 85.0105 25.9444L83.5157 24.6156ZM82.3031 28.36V32.64H84.3031V28.36H82.3031ZM82.3031 32.64C82.3031 34.124 82.6597 35.4214 83.5157 36.3844L85.0105 35.0556C84.5865 34.5786 84.3031 33.8226 84.3031 32.64H82.3031ZM83.5157 36.3844C84.3862 37.3637 85.5918 37.8 86.9831 37.8V35.8C86.0278 35.8 85.4201 35.5163 85.0105 35.0556L83.5157 36.3844ZM113.441 37.48H114.441V36.48H113.441V37.48ZM113.241 37.48V36.48H112.532L112.297 37.1497L113.241 37.48ZM112.481 39L111.649 38.4453L111.638 38.4617L111.628 38.4785L112.481 39ZM111.321 40.28L110.707 39.4906L111.321 40.28ZM109.601 41.16L109.296 40.2075L109.285 40.2113L109.601 41.16ZM102.441 39.36L101.645 39.9647L101.651 39.973L101.658 39.9811L102.441 39.36ZM100.801 20V19H99.8012V20H100.801ZM106.721 20H107.721V19H106.721V20ZM107.401 35.64L108.238 35.0928L107.401 35.64ZM111.081 36.48L111.363 37.4394L111.081 36.48ZM112.281 35.92L112.85 36.7422L112.871 36.7279L112.891 36.7126L112.281 35.92ZM113.121 34.96L113.989 35.4561L113.121 34.96ZM113.441 20V19H112.441V20H113.441ZM119.361 20H120.361V19H119.361V20ZM119.361 41V42H120.361V41H119.361ZM113.441 41H112.441V42H113.441V41ZM113.441 36.48H113.241V38.48H113.441V36.48ZM112.297 37.1497C112.139 37.6022 111.924 38.0336 111.649 38.4453L113.313 39.5547C113.679 39.0064 113.97 38.4245 114.185 37.8103L112.297 37.1497ZM111.628 38.4785C111.403 38.8475 111.1 39.1854 110.707 39.4906L111.935 41.0694C112.503 40.6279 112.973 40.1125 113.335 39.5215L111.628 38.4785ZM110.707 39.4906C110.333 39.7819 109.868 40.0247 109.296 40.2076L109.906 42.1124C110.668 41.8686 111.35 41.5248 111.935 41.0694L110.707 39.4906ZM109.285 40.2113C108.77 40.383 108.134 40.48 107.361 40.48V42.48C108.295 42.48 109.153 42.3636 109.917 42.1087L109.285 40.2113ZM107.361 40.48C105.439 40.48 104.117 39.8647 103.225 38.7389L101.658 39.9811C103.005 41.682 104.963 42.48 107.361 42.48V40.48ZM103.238 38.7553C102.326 37.5545 101.801 35.7477 101.801 33.2H99.8012C99.8012 35.9857 100.37 38.2855 101.645 39.9647L103.238 38.7553ZM101.801 33.2V20H99.8012V33.2H101.801ZM100.801 21H106.721V19H100.801V21ZM105.721 20V32.68H107.721V20H105.721ZM105.721 32.68C105.721 34.0563 105.961 35.265 106.564 36.1872L108.238 35.0928C107.935 34.6283 107.721 33.8637 107.721 32.68H105.721ZM106.564 36.1872C107.26 37.2509 108.411 37.68 109.721 37.68V35.68C108.845 35.68 108.449 35.4157 108.238 35.0928L106.564 36.1872ZM109.721 37.68C110.274 37.68 110.822 37.5985 111.363 37.4394L110.799 35.5206C110.433 35.6282 110.075 35.68 109.721 35.68V37.68ZM111.363 37.4394C111.907 37.2795 112.406 37.0498 112.85 36.7422L111.712 35.0978C111.463 35.2702 111.162 35.4138 110.799 35.5206L111.363 37.4394ZM112.891 36.7126C113.341 36.3666 113.709 35.9464 113.989 35.4561L112.253 34.4639C112.107 34.7202 111.915 34.94 111.672 35.1274L112.891 36.7126ZM113.989 35.4561C114.303 34.9067 114.441 34.2895 114.441 33.64H112.441C112.441 34.0039 112.366 34.2666 112.253 34.4639L113.989 35.4561ZM114.441 33.64V20H112.441V33.64H114.441ZM113.441 21H119.361V19H113.441V21ZM118.361 20V41H120.361V20H118.361ZM119.361 40H113.441V42H119.361V40ZM114.441 41V37.48H112.441V41H114.441ZM127.549 39.44L126.842 40.1472L126.851 40.156L127.549 39.44ZM125.989 24.6H126.989V23.6H125.989V24.6ZM123.029 24.6H122.029V25.6H123.029V24.6ZM123.029 20V19H122.029V20H123.029ZM126.149 19.44L126.936 20.0578L126.946 20.0448L126.956 20.0314L126.149 19.44ZM126.589 14.32V13.32H125.589V14.32H126.589ZM131.909 14.32H132.909V13.32H131.909V14.32ZM131.909 20H130.909V21H131.909V20ZM136.069 20H137.069V19H136.069V20ZM136.069 24.6V25.6H137.069V24.6H136.069ZM131.909 24.6V23.6H130.909V24.6H131.909ZM131.909 36.4H130.909V37.4H131.909V36.4ZM135.749 36.4H136.749V35.4H135.749V36.4ZM135.749 41V42H136.749V41H135.749ZM132.229 40C130.337 40 129.066 39.5222 128.247 38.724L126.851 40.156C128.166 41.4378 130.016 42 132.229 42V40ZM128.256 38.7329C127.463 37.9399 126.989 36.7127 126.989 34.88H124.989C124.989 37.0473 125.555 38.8601 126.842 40.1471L128.256 38.7329ZM126.989 34.88V24.6H124.989V34.88H126.989ZM125.989 23.6H123.029V25.6H125.989V23.6ZM124.029 24.6V20H122.029V24.6H124.029ZM123.029 21H124.509V19H123.029V21ZM124.509 21C125.411 21 126.354 20.7977 126.936 20.0578L125.363 18.8222C125.358 18.829 125.208 19 124.509 19V21ZM126.956 20.0314C127.42 19.398 127.589 18.6005 127.589 17.76H125.589C125.589 18.3595 125.465 18.682 125.343 18.8486L126.956 20.0314ZM127.589 17.76V14.32H125.589V17.76H127.589ZM126.589 15.32H131.909V13.32H126.589V15.32ZM130.909 14.32V20H132.909V14.32H130.909ZM131.909 21H136.069V19H131.909V21ZM135.069 20V24.6H137.069V20H135.069ZM136.069 23.6H131.909V25.6H136.069V23.6ZM130.909 24.6V36.4H132.909V24.6H130.909ZM131.909 37.4H135.749V35.4H131.909V37.4ZM134.749 36.4V41H136.749V36.4H134.749ZM135.749 40H132.229V42H135.749V40ZM146.995 47.04L146.047 46.7228L145.606 48.04H146.995V47.04ZM158.915 11.4V10.4H158.195L157.967 11.0828L158.915 11.4ZM163.795 11.4L164.743 11.7172L165.184 10.4H163.795V11.4ZM151.875 47.04V48.04H152.595L152.823 47.3572L151.875 47.04ZM147.943 47.3572L159.863 11.7172L157.967 11.0828L146.047 46.7228L147.943 47.3572ZM158.915 12.4H163.795V10.4H158.915V12.4ZM162.847 11.0828L150.927 46.7228L152.823 47.3572L164.743 11.7172L162.847 11.0828ZM151.875 46.04H146.995V48.04H151.875V46.04ZM169.393 35.08L168.86 34.234L168.393 34.5282V35.08H169.393ZM178.913 29.08L179.447 29.926L179.913 29.6318V29.08H178.913ZM178.913 28.8H179.913V28.2482L179.447 27.954L178.913 28.8ZM169.393 22.8H168.393V23.3518L168.86 23.646L169.393 22.8ZM169.393 16.84L169.941 16.0034L168.393 14.9899V16.84H169.393ZM185.153 27.16H186.153V26.6195L185.701 26.3234L185.153 27.16ZM185.153 30.64L185.706 31.4737L186.153 31.1771V30.64H185.153ZM169.393 41.08H168.393V42.9419L169.946 41.9137L169.393 41.08ZM169.927 35.926L179.447 29.926L178.38 28.234L168.86 34.234L169.927 35.926ZM179.913 29.08V28.8H177.913V29.08H179.913ZM179.447 27.954L169.927 21.954L168.86 23.646L178.38 29.646L179.447 27.954ZM170.393 22.8V16.84H168.393V22.8H170.393ZM168.846 17.6766L184.606 27.9966L185.701 26.3234L169.941 16.0034L168.846 17.6766ZM184.153 27.16V30.64H186.153V27.16H184.153ZM184.601 29.8063L168.841 40.2463L169.946 41.9137L185.706 31.4737L184.601 29.8063ZM170.393 41.08V35.08H168.393V41.08H170.393Z" fill="#61DAFB" fill-opacity="0.3"/>
</g>
</svg>
