<svg width="524" height="169" viewBox="0 0 524 169" fill="none" xmlns="http://www.w3.org/2000/svg">
<g filter="url(#filter0_d_2_27)">
<path d="M287.856 145.208C283.077 145.208 278.853 144.269 275.184 142.392C271.6 140.515 268.869 137.869 266.992 134.456C265.115 131.128 264.304 127.117 264.56 122.424L265.84 102.968C266.096 99.4693 265.371 96.824 263.664 95.032C262.043 93.24 259.269 92.344 255.344 92.344H240.112V77.624H255.344C259.269 77.624 262.043 76.728 263.664 74.936C265.371 73.144 266.096 70.5413 265.84 67.128L264.56 47.032C264.304 42.424 265.115 38.456 266.992 35.128C268.869 31.8 271.6 29.24 275.184 27.448C278.853 25.656 283.077 24.76 287.856 24.76H296.688V39.48H290.16C287.088 39.48 284.656 40.2053 282.864 41.656C281.157 43.1067 280.389 45.4107 280.56 48.568L281.84 68.536C282.181 73.5707 280.688 77.624 277.36 80.696C274.032 83.768 269.381 85.304 263.408 85.304V84.408C269.296 84.408 273.904 85.9867 277.232 89.144C280.645 92.216 282.181 96.312 281.84 101.432L280.56 121.4C280.475 124.216 281.285 126.435 282.992 128.056C284.784 129.592 287.173 130.36 290.16 130.36H296.688V145.208H287.856Z" fill="#4463B9"/>
<path d="M275.184 142.392L274.72 143.278L274.729 143.282L275.184 142.392ZM266.992 134.456L267.868 133.974L267.863 133.965L266.992 134.456ZM264.56 122.424L263.562 122.358L263.561 122.37L264.56 122.424ZM265.84 102.968L264.843 102.895L264.842 102.902L265.84 102.968ZM263.664 95.032L262.922 95.7029L262.931 95.7124L262.94 95.7217L263.664 95.032ZM240.112 92.344H239.112V93.344H240.112V92.344ZM240.112 77.624V76.624H239.112V77.624H240.112ZM263.664 74.936L262.94 74.2463L262.931 74.2556L262.922 74.2651L263.664 74.936ZM265.84 67.128L264.842 67.1916L264.843 67.2028L265.84 67.128ZM264.56 47.032L263.562 47.0875L263.562 47.0956L264.56 47.032ZM266.992 35.128L267.863 35.6193L267.863 35.6193L266.992 35.128ZM275.184 27.448L274.745 26.5494L274.737 26.5536L275.184 27.448ZM296.688 24.76H297.688V23.76H296.688V24.76ZM296.688 39.48V40.48H297.688V39.48H296.688ZM282.864 41.656L282.235 40.8788L282.225 40.8863L282.216 40.8941L282.864 41.656ZM280.56 48.568L279.561 48.622L279.562 48.632L280.56 48.568ZM281.84 68.536L280.842 68.6L280.842 68.6036L281.84 68.536ZM277.36 80.696L278.038 81.4308L278.038 81.4308L277.36 80.696ZM263.408 85.304H262.408V86.304H263.408V85.304ZM263.408 84.408V83.408H262.408V84.408H263.408ZM277.232 89.144L276.544 89.8695L276.553 89.8785L276.563 89.8873L277.232 89.144ZM281.84 101.432L280.842 101.365L280.842 101.368L281.84 101.432ZM280.56 121.4L279.562 121.336L279.561 121.353L279.56 121.37L280.56 121.4ZM282.992 128.056L282.303 128.781L282.322 128.799L282.341 128.815L282.992 128.056ZM296.688 130.36H297.688V129.36H296.688V130.36ZM296.688 145.208V146.208H297.688V145.208H296.688ZM287.856 144.208C283.21 144.208 279.147 143.296 275.639 141.502L274.729 143.282C278.56 145.242 282.944 146.208 287.856 146.208V144.208ZM275.648 141.506C272.231 139.716 269.647 137.208 267.868 133.974L266.116 134.938C268.092 138.53 270.969 141.313 274.72 143.278L275.648 141.506ZM267.863 133.965C266.099 130.837 265.311 127.025 265.559 122.478L263.561 122.37C263.297 127.209 264.131 131.419 266.121 134.947L267.863 133.965ZM265.558 122.49L266.838 103.034L264.842 102.902L263.562 122.358L265.558 122.49ZM266.837 103.041C267.105 99.3815 266.359 96.4123 264.388 94.3423L262.94 95.7217C264.382 97.2357 265.087 99.5572 264.843 102.895L266.837 103.041ZM264.406 94.3611C262.504 92.2594 259.381 91.344 255.344 91.344V93.344C259.158 93.344 261.581 94.2205 262.922 95.7029L264.406 94.3611ZM255.344 91.344H240.112V93.344H255.344V91.344ZM241.112 92.344V77.624H239.112V92.344H241.112ZM240.112 78.624H255.344V76.624H240.112V78.624ZM255.344 78.624C259.381 78.624 262.504 77.7085 264.406 75.6069L262.922 74.2651C261.581 75.7474 259.158 76.624 255.344 76.624V78.624ZM264.388 75.6257C266.356 73.5597 267.106 70.6366 266.837 67.0532L264.843 67.2028C265.086 70.4461 264.386 72.7283 262.94 74.2463L264.388 75.6257ZM266.838 67.0644L265.558 46.9684L263.562 47.0956L264.842 67.1916L266.838 67.0644ZM265.558 46.9765C265.311 42.5193 266.097 38.7492 267.863 35.6193L266.121 34.6367C264.132 38.1628 263.297 42.3287 263.562 47.0875L265.558 46.9765ZM267.863 35.6193C269.637 32.4736 272.216 30.0499 275.631 28.3424L274.737 26.5536C270.984 28.4301 268.101 31.1264 266.121 34.6367L267.863 35.6193ZM275.623 28.3466C279.134 26.6318 283.204 25.76 287.856 25.76V23.76C282.951 23.76 278.573 24.6802 274.745 26.5494L275.623 28.3466ZM287.856 25.76H296.688V23.76H287.856V25.76ZM295.688 24.76V39.48H297.688V24.76H295.688ZM296.688 38.48H290.16V40.48H296.688V38.48ZM290.16 38.48C286.935 38.48 284.256 39.2423 282.235 40.8788L283.493 42.4332C285.056 41.1683 287.241 40.48 290.16 40.48V38.48ZM282.216 40.8941C280.184 42.6213 279.381 45.2887 279.561 48.622L281.559 48.514C281.397 45.5326 282.13 43.592 283.512 42.4179L282.216 40.8941ZM279.562 48.632L280.842 68.6L282.838 68.472L281.558 48.504L279.562 48.632ZM280.842 68.6036C281.166 73.3754 279.76 77.1198 276.682 79.9612L278.038 81.4308C281.616 78.1282 283.197 73.7659 282.838 68.4684L280.842 68.6036ZM276.682 79.9612C273.591 82.8141 269.212 84.304 263.408 84.304V86.304C269.551 86.304 274.473 84.7219 278.038 81.4308L276.682 79.9612ZM264.408 85.304V84.408H262.408V85.304H264.408ZM263.408 85.408C269.115 85.408 273.45 86.9342 276.544 89.8695L277.92 88.4185C274.358 85.0391 269.477 83.408 263.408 83.408V85.408ZM276.563 89.8873C279.72 92.7281 281.166 96.5106 280.842 101.365L282.838 101.499C283.197 96.1134 281.571 91.7039 277.901 88.4007L276.563 89.8873ZM280.842 101.368L279.562 121.336L281.558 121.464L282.838 101.496L280.842 101.368ZM279.56 121.37C279.468 124.409 280.35 126.925 282.303 128.781L283.681 127.331C282.221 125.944 281.481 124.023 281.56 121.43L279.56 121.37ZM282.341 128.815C284.358 130.544 287 131.36 290.16 131.36V129.36C287.347 129.36 285.21 128.64 283.643 127.297L282.341 128.815ZM290.16 131.36H296.688V129.36H290.16V131.36ZM295.688 130.36V145.208H297.688V130.36H295.688ZM296.688 144.208H287.856V146.208H296.688V144.208Z" fill="#6587E4"/>
</g>
<g filter="url(#filter1_d_2_27)">
<path d="M457.112 145.208V130.36H463.64C466.627 130.36 469.016 129.592 470.808 128.056C472.6 126.435 473.411 124.216 473.24 121.4L471.96 101.432C471.619 96.312 473.112 92.216 476.44 89.144C479.853 85.9867 484.504 84.408 490.392 84.408V85.304C484.504 85.304 479.853 83.768 476.44 80.696C473.112 77.624 471.619 73.5707 471.96 68.536L473.24 48.568C473.411 45.4107 472.6 43.1067 470.808 41.656C469.101 40.2053 466.712 39.48 463.64 39.48H457.112V24.76H465.944C470.723 24.76 474.904 25.656 478.488 27.448C482.157 29.24 484.931 31.8 486.808 35.128C488.685 38.456 489.496 42.424 489.24 47.032L487.96 67.128C487.704 70.5413 488.429 73.144 490.136 74.936C491.843 76.728 494.616 77.624 498.456 77.624H513.688V92.344H498.456C494.616 92.344 491.843 93.24 490.136 95.032C488.429 96.824 487.704 99.4693 487.96 102.968L489.24 122.424C489.496 127.117 488.685 131.128 486.808 134.456C484.931 137.869 482.157 140.515 478.488 142.392C474.904 144.269 470.723 145.208 465.944 145.208H457.112Z" fill="#4463B9"/>
<path d="M457.112 145.208H456.112V146.208H457.112V145.208ZM457.112 130.36V129.36H456.112V130.36H457.112ZM470.808 128.056L471.459 128.815L471.469 128.807L471.479 128.798L470.808 128.056ZM473.24 121.4L474.238 121.34L474.238 121.336L473.24 121.4ZM471.96 101.432L472.958 101.368L472.958 101.365L471.96 101.432ZM476.44 89.144L477.118 89.8788L477.119 89.8781L476.44 89.144ZM490.392 84.408H491.392V83.408H490.392V84.408ZM490.392 85.304V86.304H491.392V85.304H490.392ZM476.44 80.696L475.762 81.4309L475.771 81.4393L476.44 80.696ZM471.96 68.536L472.958 68.6036L472.958 68.6L471.96 68.536ZM473.24 48.568L474.238 48.632L474.239 48.622L473.24 48.568ZM470.808 41.656L470.16 42.4179L470.169 42.4257L470.179 42.4332L470.808 41.656ZM457.112 39.48H456.112V40.48H457.112V39.48ZM457.112 24.76V23.76H456.112V24.76H457.112ZM478.488 27.448L478.041 28.3425L478.049 28.3466L478.488 27.448ZM486.808 35.128L485.937 35.6193L485.937 35.6193L486.808 35.128ZM489.24 47.032L490.238 47.0956L490.238 47.0875L489.24 47.032ZM487.96 67.128L488.957 67.2028L488.958 67.1916L487.96 67.128ZM513.688 77.624H514.688V76.624H513.688V77.624ZM513.688 92.344V93.344H514.688V92.344H513.688ZM487.96 102.968L488.958 102.902L488.957 102.895L487.96 102.968ZM489.24 122.424L490.239 122.37L490.238 122.358L489.24 122.424ZM486.808 134.456L485.937 133.965L485.932 133.974L486.808 134.456ZM478.488 142.392L478.033 141.502L478.024 141.506L478.488 142.392ZM458.112 145.208V130.36H456.112V145.208H458.112ZM457.112 131.36H463.64V129.36H457.112V131.36ZM463.64 131.36C466.8 131.36 469.442 130.544 471.459 128.815L470.157 127.297C468.59 128.64 466.453 129.36 463.64 129.36V131.36ZM471.479 128.798C473.535 126.937 474.424 124.402 474.238 121.34L472.242 121.46C472.398 124.03 471.665 125.932 470.137 127.314L471.479 128.798ZM474.238 121.336L472.958 101.368L470.962 101.496L472.242 121.464L474.238 121.336ZM472.958 101.365C472.634 96.5019 474.044 92.7168 477.118 89.8788L475.762 88.4092C472.18 91.7152 470.604 96.1221 470.962 101.499L472.958 101.365ZM477.119 89.8781C480.302 86.9338 484.686 85.408 490.392 85.408V83.408C484.322 83.408 479.405 85.0395 475.761 88.4099L477.119 89.8781ZM489.392 84.408V85.304H491.392V84.408H489.392ZM490.392 84.304C484.679 84.304 480.291 82.817 477.109 79.9527L475.771 81.4393C479.415 84.719 484.329 86.304 490.392 86.304V84.304ZM477.118 79.9612C474.04 77.1198 472.634 73.3754 472.958 68.6036L470.962 68.4684C470.603 73.7659 472.184 78.1282 475.762 81.4308L477.118 79.9612ZM472.958 68.6L474.238 48.632L472.242 48.504L470.962 68.472L472.958 68.6ZM474.239 48.622C474.42 45.2729 473.564 42.6005 471.437 40.8788L470.179 42.4332C471.636 43.6129 472.402 45.5484 472.241 48.514L474.239 48.622ZM471.456 40.8941C469.511 39.241 466.861 38.48 463.64 38.48V40.48C466.563 40.48 468.692 41.1697 470.16 42.4179L471.456 40.8941ZM463.64 38.48H457.112V40.48H463.64V38.48ZM458.112 39.48V24.76H456.112V39.48H458.112ZM457.112 25.76H465.944V23.76H457.112V25.76ZM465.944 25.76C470.597 25.76 474.62 26.632 478.041 28.3424L478.935 26.5536C475.188 24.68 470.848 23.76 465.944 23.76V25.76ZM478.049 28.3466C481.55 30.0561 484.166 32.48 485.937 35.6193L487.679 34.6367C485.695 31.12 482.765 28.4239 478.927 26.5494L478.049 28.3466ZM485.937 35.6193C487.703 38.7492 488.489 42.5193 488.242 46.9765L490.238 47.0875C490.503 42.3287 489.668 38.1628 487.679 34.6367L485.937 35.6193ZM488.242 46.9684L486.962 67.0644L488.958 67.1916L490.238 47.0956L488.242 46.9684ZM486.963 67.0532C486.694 70.6366 487.444 73.5597 489.412 75.6257L490.86 74.2463C489.414 72.7283 488.714 70.4461 488.957 67.2028L486.963 67.0532ZM489.412 75.6257C491.39 77.7023 494.491 78.624 498.456 78.624V76.624C494.741 76.624 492.296 75.7537 490.86 74.2463L489.412 75.6257ZM498.456 78.624H513.688V76.624H498.456V78.624ZM512.688 77.624V92.344H514.688V77.624H512.688ZM513.688 91.344H498.456V93.344H513.688V91.344ZM498.456 91.344C494.491 91.344 491.39 92.2657 489.412 94.3423L490.86 95.7217C492.296 94.2143 494.741 93.344 498.456 93.344V91.344ZM489.412 94.3423C487.441 96.4123 486.695 99.3815 486.963 103.041L488.957 102.895C488.713 99.5572 489.418 97.2357 490.86 95.7217L489.412 94.3423ZM486.962 103.034L488.242 122.49L490.238 122.358L488.958 102.902L486.962 103.034ZM488.241 122.478C488.489 127.025 487.701 130.837 485.937 133.965L487.679 134.947C489.669 131.419 490.503 127.209 490.239 122.37L488.241 122.478ZM485.932 133.974C484.156 137.202 481.535 139.71 478.033 141.502L478.943 143.282C482.78 141.319 485.705 138.537 487.684 134.938L485.932 133.974ZM478.024 141.506C474.607 143.296 470.59 144.208 465.944 144.208V146.208C470.855 146.208 475.201 145.243 478.952 143.278L478.024 141.506ZM465.944 144.208H457.112V146.208H465.944V144.208Z" fill="#6587E4"/>
</g>
<path d="M374.941 84.2254C372.938 83.0696 369.903 82.9432 368.168 83.9454L311.586 116.611C309.851 117.614 310.068 119.365 312.073 120.523L378.159 158.678C380.162 159.836 383.198 159.96 384.932 158.96L441.514 126.292C443.249 125.29 443.032 123.538 441.028 122.381L374.941 84.2254Z" fill="#BBC6E6"/>
<path d="M310.415 115.428V118.31L312.762 119.709L313.462 116.123L310.415 115.428ZM442.686 121.711V124.593L439.882 126.048L438.965 122.869L442.686 121.711Z" fill="#BBC6E6"/>
<path d="M374.941 81.3435C372.938 80.1877 369.903 80.0613 368.168 81.0635L311.586 113.731C309.851 114.732 310.068 116.485 312.073 117.641L378.159 155.796C380.162 156.954 383.198 157.078 384.932 156.078L441.514 123.41C443.249 122.408 443.032 120.656 441.028 119.499L374.941 81.3435Z" fill="#F3F5FB"/>
<path d="M358.428 94.2218C357.975 93.9606 357.292 93.9333 356.901 94.1586L344.158 101.515C343.767 101.741 343.817 102.135 344.267 102.396L405.502 137.75C405.953 138.011 406.636 138.038 407.027 137.813L419.77 130.456C420.161 130.229 420.111 129.835 419.661 129.575L358.428 94.2218Z" fill="#DEE5F6"/>
<path d="M428.088 119.773C427.607 120.052 426.826 120.052 426.345 119.773C425.863 119.497 425.863 119.044 426.345 118.766C426.826 118.49 427.607 118.49 428.088 118.766C428.569 119.044 428.569 119.497 428.088 119.773ZM418.203 125.483C417.721 125.759 416.939 125.759 416.458 125.483C415.976 125.204 415.976 124.754 416.458 124.475C416.939 124.197 417.721 124.197 418.203 124.475C418.682 124.754 418.682 125.204 418.203 125.483ZM408.316 131.19C407.834 131.469 407.052 131.469 406.571 131.19C406.089 130.912 406.089 130.461 406.571 130.183C407.052 129.905 407.834 129.905 408.316 130.183C408.797 130.461 408.797 130.912 408.316 131.19ZM398.428 136.898C397.947 137.176 397.165 137.176 396.684 136.898C396.204 136.62 396.204 136.169 396.684 135.891C397.165 135.614 397.947 135.614 398.428 135.891C398.91 136.169 398.91 136.62 398.428 136.898ZM388.541 142.607C388.06 142.884 387.28 142.884 386.798 142.607C386.317 142.329 386.317 141.876 386.798 141.6C387.28 141.321 388.06 141.321 388.541 141.6C389.023 141.876 389.023 142.329 388.541 142.607ZM378.654 148.315C378.175 148.593 377.393 148.593 376.911 148.315C376.43 148.036 376.43 147.586 376.911 147.307C377.393 147.029 378.175 147.029 378.654 147.307C379.136 147.586 379.136 148.036 378.654 148.315Z" fill="#C4CBDC"/>
<path d="M359.708 85.9464L433.055 128.293L433.285 128.162L359.939 85.8133L359.708 85.9464ZM349.881 91.6216L423.227 133.968L423.458 133.835L350.11 91.4884L349.881 91.6216Z" fill="#DEE3F1"/>
<path d="M429.618 112.937L366.749 149.235L366.98 149.368L429.848 113.071L429.618 112.937Z" fill="#DEE3F1"/>
<path d="M371.581 87.1484C371.1 87.4267 370.318 87.4267 369.836 87.1484C369.355 86.8718 369.355 86.4194 369.836 86.1411C370.318 85.8645 371.1 85.8645 371.581 86.1411C372.062 86.4194 372.062 86.8718 371.581 87.1484ZM361.694 92.8576C361.212 93.1342 360.431 93.1342 359.949 92.8576C359.468 92.5793 359.468 92.1286 359.949 91.8503C360.431 91.572 361.212 91.572 361.694 91.8503C362.175 92.1286 362.175 92.5793 361.694 92.8576ZM351.807 98.5652C351.325 98.8435 350.543 98.8435 350.064 98.5652C349.582 98.2869 349.582 97.8362 350.064 97.5579C350.543 97.2796 351.325 97.2796 351.807 97.5579C352.288 97.8362 352.288 98.2869 351.807 98.5652ZM341.92 104.273C341.438 104.551 340.658 104.551 340.177 104.273C339.695 103.994 339.695 103.544 340.177 103.265C340.658 102.989 341.438 102.989 341.92 103.265C342.401 103.544 342.401 103.994 341.92 104.273ZM332.033 109.98C331.553 110.259 330.771 110.259 330.29 109.98C329.808 109.704 329.808 109.251 330.29 108.975C330.771 108.696 331.553 108.696 332.033 108.975C332.514 109.251 332.514 109.704 332.033 109.98ZM322.147 115.69C321.666 115.968 320.884 115.968 320.403 115.69C319.921 115.411 319.921 114.961 320.403 114.682C320.884 114.404 321.666 114.404 322.147 114.682C322.629 114.961 322.629 115.411 322.147 115.69ZM380.999 92.5862C380.517 92.8645 379.735 92.8645 379.254 92.5862C378.772 92.3079 378.772 91.8572 379.254 91.5789C379.735 91.3023 380.517 91.3023 380.999 91.5789C381.48 91.8572 381.48 92.3079 380.999 92.5862ZM371.111 98.2937C370.63 98.572 369.848 98.572 369.368 98.2937C368.887 98.0171 368.887 97.5647 369.368 97.2881C369.848 97.0098 370.63 97.0098 371.111 97.2881C371.593 97.5647 371.593 98.0171 371.111 98.2937ZM361.224 104.003C360.743 104.28 359.963 104.28 359.481 104.003C359 103.725 359 103.274 359.481 102.996C359.963 102.717 360.743 102.717 361.224 102.996C361.706 103.274 361.706 103.725 361.224 104.003ZM351.339 109.711C350.858 109.989 350.076 109.989 349.594 109.711C349.113 109.432 349.113 108.982 349.594 108.703C350.076 108.425 350.858 108.425 351.339 108.703C351.819 108.982 351.819 109.432 351.339 109.711ZM341.452 115.418C340.971 115.696 340.189 115.696 339.707 115.418C339.226 115.142 339.226 114.689 339.707 114.412C340.189 114.134 340.971 114.134 341.452 114.412C341.933 114.689 341.933 115.142 341.452 115.418ZM331.565 121.127C331.083 121.404 330.302 121.404 329.82 121.127C329.34 120.849 329.34 120.398 329.82 120.12C330.302 119.842 331.083 119.842 331.565 120.12C332.046 120.398 332.046 120.849 331.565 121.127ZM390.416 98.024C389.935 98.3023 389.154 98.3023 388.673 98.024C388.191 97.7457 388.191 97.2949 388.673 97.0167C389.154 96.7384 389.935 96.7384 390.416 97.0167C390.898 97.2949 390.898 97.7457 390.416 98.024ZM380.529 103.732C380.049 104.01 379.267 104.01 378.786 103.732C378.304 103.453 378.304 103.003 378.786 102.724C379.267 102.448 380.049 102.448 380.529 102.724C381.01 103.003 381.01 103.453 380.529 103.732ZM370.644 109.441C370.162 109.717 369.38 109.717 368.899 109.441C368.417 109.162 368.417 108.712 368.899 108.433C369.38 108.155 370.162 108.155 370.644 108.433C371.125 108.712 371.125 109.162 370.644 109.441ZM360.757 115.148C360.275 115.427 359.493 115.427 359.012 115.148C358.53 114.87 358.53 114.419 359.012 114.141C359.493 113.863 360.275 113.863 360.757 114.141C361.238 114.419 361.238 114.87 360.757 115.148ZM350.87 120.856C350.388 121.134 349.606 121.134 349.126 120.856C348.645 120.578 348.645 120.127 349.126 119.849C349.606 119.572 350.388 119.572 350.87 119.849C351.351 120.127 351.351 120.578 350.87 120.856ZM340.982 126.563C340.501 126.842 339.721 126.842 339.239 126.563C338.758 126.287 338.758 125.834 339.239 125.558C339.721 125.28 340.501 125.28 340.982 125.558C341.464 125.834 341.464 126.287 340.982 126.563ZM399.834 103.462C399.354 103.74 398.572 103.74 398.09 103.462C397.609 103.183 397.609 102.733 398.09 102.454C398.572 102.176 399.354 102.176 399.834 102.454C400.315 102.733 400.315 103.183 399.834 103.462ZM389.948 109.169C389.467 109.448 388.685 109.448 388.203 109.169C387.722 108.891 387.722 108.44 388.203 108.162C388.685 107.885 389.467 107.885 389.948 108.162C390.43 108.44 390.43 108.891 389.948 109.169ZM380.061 114.877C379.58 115.155 378.798 115.155 378.316 114.877C377.835 114.6 377.835 114.148 378.316 113.871C378.798 113.593 379.58 113.593 380.061 113.871C380.543 114.148 380.543 114.6 380.061 114.877ZM370.174 120.586C369.693 120.863 368.912 120.863 368.431 120.586C367.95 120.308 367.95 119.857 368.431 119.579C368.912 119.301 369.693 119.301 370.174 119.579C370.656 119.857 370.656 120.308 370.174 120.586ZM360.287 126.294C359.806 126.572 359.025 126.572 358.544 126.294C358.062 126.015 358.062 125.565 358.544 125.286C359.025 125.008 359.806 125.008 360.287 125.286C360.769 125.565 360.769 126.015 360.287 126.294ZM350.402 132.001C349.92 132.28 349.138 132.28 348.657 132.001C348.175 131.725 348.175 131.272 348.657 130.996C349.138 130.717 349.92 130.717 350.402 130.996C350.881 131.272 350.881 131.725 350.402 132.001ZM409.253 108.9C408.771 109.176 407.989 109.176 407.508 108.9C407.027 108.621 407.027 108.171 407.508 107.892C407.989 107.614 408.771 107.614 409.253 107.892C409.734 108.171 409.734 108.621 409.253 108.9ZM399.366 114.607C398.884 114.885 398.102 114.885 397.621 114.607C397.141 114.329 397.141 113.878 397.621 113.6C398.102 113.322 398.884 113.322 399.366 113.6C399.847 113.878 399.847 114.329 399.366 114.607ZM389.479 120.315C388.997 120.593 388.217 120.593 387.736 120.315C387.254 120.036 387.254 119.586 387.736 119.307C388.217 119.031 388.997 119.031 389.479 119.307C389.96 119.586 389.96 120.036 389.479 120.315ZM379.592 126.024C379.112 126.301 378.33 126.301 377.849 126.024C377.367 125.746 377.367 125.293 377.849 125.017C378.33 124.738 379.112 124.738 379.592 125.017C380.073 125.293 380.073 125.746 379.592 126.024ZM369.706 131.731C369.225 132.01 368.443 132.01 367.961 131.731C367.48 131.453 367.48 131.002 367.961 130.724C368.443 130.446 369.225 130.446 369.706 130.724C370.188 131.002 370.188 131.453 369.706 131.731ZM359.819 137.439C359.338 137.717 358.556 137.717 358.074 137.439C357.593 137.161 357.593 136.71 358.074 136.432C358.556 136.155 359.338 136.155 359.819 136.432C360.301 136.71 360.301 137.161 359.819 137.439ZM418.67 114.336C418.189 114.614 417.407 114.614 416.927 114.336C416.446 114.059 416.446 113.607 416.927 113.33C417.407 113.052 418.189 113.052 418.67 113.33C419.152 113.607 419.152 114.059 418.67 114.336ZM408.783 120.045C408.302 120.322 407.522 120.322 407.04 120.045C406.559 119.767 406.559 119.316 407.04 119.038C407.522 118.759 408.302 118.759 408.783 119.038C409.265 119.316 409.265 119.767 408.783 120.045ZM398.898 125.752C398.417 126.031 397.635 126.031 397.153 125.752C396.672 125.474 396.672 125.023 397.153 124.745C397.635 124.469 398.417 124.469 398.898 124.745C399.378 125.023 399.378 125.474 398.898 125.752ZM389.011 131.46C388.53 131.738 387.748 131.738 387.266 131.46C386.785 131.183 386.785 130.731 387.266 130.454C387.748 130.176 388.53 130.176 389.011 130.454C389.492 130.731 389.492 131.183 389.011 131.46ZM379.124 137.169C378.642 137.446 377.86 137.446 377.379 137.169C376.899 136.891 376.899 136.44 377.379 136.162C377.86 135.884 378.642 135.884 379.124 136.162C379.605 136.44 379.605 136.891 379.124 137.169ZM369.237 142.877C368.755 143.155 367.975 143.155 367.494 142.877C367.012 142.599 367.012 142.148 367.494 141.87C367.975 141.591 368.755 141.591 369.237 141.87C369.718 142.148 369.718 142.599 369.237 142.877Z" fill="#C4CBDC"/>
<path d="M381.794 85.3267L318.926 121.624L319.156 121.756L382.025 85.4599L381.794 85.3267Z" fill="#DEE3F1"/>
<path d="M340.052 97.2949L413.398 139.641L413.629 139.51L340.282 97.1618L340.052 97.2949ZM330.225 102.97L403.571 145.317L403.801 145.183L330.455 102.837L330.225 102.97ZM320.396 108.643L393.744 150.99L393.972 150.857L320.626 108.51L320.396 108.643Z" fill="#DEE3F1"/>
<path d="M391.359 90.8481L328.49 127.146L328.721 127.279L391.589 90.9813L391.359 90.8481ZM400.925 96.3713L338.056 132.667L338.285 132.8L401.153 96.5028L400.925 96.3713ZM410.489 101.893L347.621 138.19L347.851 138.323L410.719 102.026L410.489 101.893ZM420.053 107.414L357.185 143.712L357.415 143.845L420.284 107.547L420.053 107.414Z" fill="#DEE3F1"/>
<path d="M409.956 58.0916C409.956 57.424 409.55 56.6472 409.05 56.3587L347.996 21.1094C347.494 20.8192 347.088 21.1265 347.088 21.7941V79.8701C347.088 80.5376 347.494 81.3145 347.996 81.6047L409.05 116.854C409.55 117.142 409.956 116.835 409.956 116.168V58.0916Z" fill="#8095D1"/>
<path d="M399.479 64.1423C399.479 63.4747 399.072 62.6962 398.572 62.4077L337.517 27.1584C337.016 26.8699 336.61 27.1772 336.61 27.8448V85.9208C336.61 86.5884 337.016 87.3652 337.517 87.6537L398.572 122.903C399.072 123.193 399.479 122.886 399.479 122.217V64.1423Z" fill="#4463B9"/>
<path d="M354.014 71.9687L353.04 72.404L358.558 83.674L359.532 83.2386L354.014 71.9687Z" fill="#F2F2F2"/>
<path d="M359.647 69.4538L353.04 72.404L353.84 74.0379L360.446 71.086L359.647 69.4538Z" fill="#F2F2F2"/>
<path d="M374.378 86.4484L375.352 86.013L369.834 74.7448L368.86 75.1801L374.378 86.4484Z" fill="#F2F2F2"/>
<path d="M368.745 88.965L375.352 86.013L374.552 84.3791L367.946 87.3311L368.745 88.965Z" fill="#F2F2F2"/>
<path d="M399.479 64.1884C399.479 63.4952 399.057 62.6877 398.536 62.3872L337.453 27.1209C336.987 26.8528 336.61 27.138 336.61 27.7594V33.2484L399.479 69.546V64.1884Z" fill="#385593"/>
<path d="M358.332 53.9257C358.332 53.3777 357.999 52.7426 357.59 52.5053L340.662 42.7326C340.252 42.4953 339.919 42.748 339.919 43.2943C339.919 43.8406 340.252 44.4775 340.662 44.7148L357.59 54.4857C357.999 54.7231 358.332 54.4721 358.332 53.9257ZM365.527 58.0779C365.527 57.5316 365.194 56.8965 364.784 56.6592L360.231 54.0299C359.821 53.7943 359.488 54.0453 359.488 54.5916C359.488 55.1396 359.821 55.7748 360.231 56.0121L364.784 58.6396C365.194 58.877 365.527 58.626 365.527 58.0779ZM367.671 74.1301L366.947 72.9418L360.716 84.3518L361.441 85.5401L367.671 74.1301Z" fill="#F2F2F2"/>
<g filter="url(#filter2_d_2_27)">
<path d="M9.856 131V37.56H25.856V75.064H50.944V37.56H66.944V131H50.944V89.912H25.856V131H9.856ZM107.342 132.28C100.089 132.28 94.3713 130.36 90.19 126.52C86.0087 122.68 83.918 117.517 83.918 111.032C83.918 104.12 86.222 98.7867 90.83 95.032C95.438 91.2773 101.966 89.4 110.414 89.4H127.95V83.384C127.95 79.9707 126.841 77.3253 124.622 75.448C122.403 73.4853 119.374 72.504 115.534 72.504C112.035 72.504 109.134 73.272 106.83 74.808C104.526 76.344 103.161 78.4347 102.734 81.08H87.118C87.886 74.424 90.8727 69.1333 96.078 65.208C101.283 61.2827 107.939 59.32 116.046 59.32C124.665 59.32 131.449 61.496 136.398 65.848C141.433 70.1147 143.95 75.9173 143.95 83.256V131H128.462V118.712H125.902L128.462 115.256C128.462 120.461 126.542 124.6 122.702 127.672C118.862 130.744 113.742 132.28 107.342 132.28ZM112.59 120.248C117.113 120.248 120.782 119.096 123.598 116.792C126.499 114.488 127.95 111.501 127.95 107.832V99.256H110.67C107.427 99.256 104.825 100.195 102.862 102.072C100.899 103.949 99.918 106.424 99.918 109.496C99.918 112.824 101.027 115.469 103.246 117.432C105.55 119.309 108.665 120.248 112.59 120.248ZM202.652 131C198.044 131 193.991 130.061 190.492 128.184C187.079 126.307 184.391 123.661 182.428 120.248C180.465 116.749 179.484 112.739 179.484 108.216V52.024H156.956V37.56H195.484V108.216C195.484 110.776 196.209 112.824 197.66 114.36C199.196 115.811 201.244 116.536 203.804 116.536H225.052V131H202.652Z" fill="#4463B9"/>
<path d="M9.856 131H8.856V132H9.856V131ZM9.856 37.56V36.56H8.856V37.56H9.856ZM25.856 37.56H26.856V36.56H25.856V37.56ZM25.856 75.064H24.856V76.064H25.856V75.064ZM50.944 75.064V76.064H51.944V75.064H50.944ZM50.944 37.56V36.56H49.944V37.56H50.944ZM66.944 37.56H67.944V36.56H66.944V37.56ZM66.944 131V132H67.944V131H66.944ZM50.944 131H49.944V132H50.944V131ZM50.944 89.912H51.944V88.912H50.944V89.912ZM25.856 89.912V88.912H24.856V89.912H25.856ZM25.856 131V132H26.856V131H25.856ZM10.856 131V37.56H8.856V131H10.856ZM9.856 38.56H25.856V36.56H9.856V38.56ZM24.856 37.56V75.064H26.856V37.56H24.856ZM25.856 76.064H50.944V74.064H25.856V76.064ZM51.944 75.064V37.56H49.944V75.064H51.944ZM50.944 38.56H66.944V36.56H50.944V38.56ZM65.944 37.56V131H67.944V37.56H65.944ZM66.944 130H50.944V132H66.944V130ZM51.944 131V89.912H49.944V131H51.944ZM50.944 88.912H25.856V90.912H50.944V88.912ZM24.856 89.912V131H26.856V89.912H24.856ZM25.856 130H9.856V132H25.856V130ZM90.19 126.52L89.5136 127.257L89.5136 127.257L90.19 126.52ZM90.83 95.032L91.4617 95.8072L91.4617 95.8072L90.83 95.032ZM127.95 89.4V90.4H128.95V89.4H127.95ZM124.622 75.448L123.959 76.197L123.968 76.2043L123.976 76.2114L124.622 75.448ZM106.83 74.808L107.385 75.64L107.385 75.64L106.83 74.808ZM102.734 81.08V82.08H103.586L103.721 81.2392L102.734 81.08ZM87.118 81.08L86.1246 80.9654L85.996 82.08H87.118V81.08ZM96.078 65.208L96.6801 66.0064L96.6801 66.0064L96.078 65.208ZM136.398 65.848L135.738 66.599L135.745 66.605L135.751 66.6109L136.398 65.848ZM143.95 131V132H144.95V131H143.95ZM128.462 131H127.462V132H128.462V131ZM128.462 118.712H129.462V117.712H128.462V118.712ZM125.902 118.712L125.098 118.117L123.917 119.712H125.902V118.712ZM128.462 115.256H129.462V112.226L127.658 114.661L128.462 115.256ZM122.702 127.672L123.327 128.453L123.327 128.453L122.702 127.672ZM123.598 116.792L122.976 116.009L122.97 116.013L122.965 116.018L123.598 116.792ZM127.95 99.256H128.95V98.256H127.95V99.256ZM103.246 117.432L102.583 118.181L102.599 118.194L102.614 118.207L103.246 117.432ZM107.342 131.28C100.267 131.28 94.8163 129.411 90.8664 125.783L89.5136 127.257C93.9264 131.309 99.9102 133.28 107.342 133.28V131.28ZM90.8664 125.783C86.9216 122.161 84.918 117.281 84.918 111.032H82.918C82.918 117.753 85.0958 123.199 89.5136 127.257L90.8664 125.783ZM84.918 111.032C84.918 104.366 87.1261 99.3399 91.4617 95.8072L90.1983 94.2568C85.3179 98.2334 82.918 103.874 82.918 111.032H84.918ZM91.4617 95.8072C95.8294 92.2484 102.101 90.4 110.414 90.4V88.4C101.831 88.4 95.0466 90.3063 90.1983 94.2568L91.4617 95.8072ZM110.414 90.4H127.95V88.4H110.414V90.4ZM128.95 89.4V83.384H126.95V89.4H128.95ZM128.95 83.384C128.95 79.7334 127.751 76.7858 125.268 74.6846L123.976 76.2114C125.93 77.8648 126.95 80.208 126.95 83.384H128.95ZM125.285 74.699C122.834 72.5315 119.544 71.504 115.534 71.504V73.504C119.204 73.504 121.972 74.4392 123.959 76.197L125.285 74.699ZM115.534 71.504C111.89 71.504 108.782 72.3048 106.275 73.9759L107.385 75.64C109.486 74.2392 112.181 73.504 115.534 73.504V71.504ZM106.275 73.9759C103.749 75.6604 102.219 77.9905 101.747 80.9208L103.721 81.2392C104.102 78.8788 105.303 77.0275 107.385 75.64L106.275 73.9759ZM102.734 80.08H87.118V82.08H102.734V80.08ZM88.1114 81.1946C88.849 74.802 91.7 69.7619 96.6801 66.0064L95.4759 64.4096C90.0453 68.5048 86.923 74.046 86.1246 80.9654L88.1114 81.1946ZM96.6801 66.0064C101.673 62.241 108.103 60.32 116.046 60.32V58.32C107.776 58.32 100.893 60.3244 95.4759 64.4096L96.6801 66.0064ZM116.046 60.32C124.498 60.32 131.021 62.4516 135.738 66.599L137.058 65.097C131.876 60.5404 124.831 58.32 116.046 58.32V60.32ZM135.751 66.6109C140.535 70.6648 142.95 76.1742 142.95 83.256H144.95C144.95 75.6605 142.33 69.5645 137.045 65.0851L135.751 66.6109ZM142.95 83.256V131H144.95V83.256H142.95ZM143.95 130H128.462V132H143.95V130ZM129.462 131V118.712H127.462V131H129.462ZM128.462 117.712H125.902V119.712H128.462V117.712ZM126.706 119.307L129.266 115.851L127.658 114.661L125.098 118.117L126.706 119.307ZM127.462 115.256C127.462 120.178 125.665 124.021 122.077 126.891L123.327 128.453C127.419 125.179 129.462 120.745 129.462 115.256H127.462ZM122.077 126.891C118.462 129.783 113.584 131.28 107.342 131.28V133.28C113.9 133.28 119.262 131.705 123.327 128.453L122.077 126.891ZM112.59 121.248C117.286 121.248 121.197 120.049 124.231 117.566L122.965 116.018C120.367 118.143 116.94 119.248 112.59 119.248V121.248ZM124.22 117.575C127.357 115.084 128.95 111.81 128.95 107.832H126.95C126.95 111.193 125.641 113.892 122.976 116.009L124.22 117.575ZM128.95 107.832V99.256H126.95V107.832H128.95ZM127.95 98.256H110.67V100.256H127.95V98.256ZM110.67 98.256C107.223 98.256 104.355 99.2604 102.171 101.349L103.553 102.795C105.295 101.129 107.632 100.256 110.67 100.256V98.256ZM102.171 101.349C99.9842 103.441 98.918 106.19 98.918 109.496H100.918C100.918 106.658 101.814 104.458 103.553 102.795L102.171 101.349ZM98.918 109.496C98.918 113.071 100.122 116.004 102.583 118.181L103.909 116.683C101.932 114.935 100.918 112.577 100.918 109.496H98.918ZM102.614 118.207C105.147 120.271 108.509 121.248 112.59 121.248V119.248C108.82 119.248 105.953 118.348 103.878 116.657L102.614 118.207ZM190.492 128.184L190.01 129.06L190.019 129.065L190.492 128.184ZM182.428 120.248L181.556 120.737L181.561 120.746L182.428 120.248ZM179.484 52.024H180.484V51.024H179.484V52.024ZM156.956 52.024H155.956V53.024H156.956V52.024ZM156.956 37.56V36.56H155.956V37.56H156.956ZM195.484 37.56H196.484V36.56H195.484V37.56ZM197.66 114.36L196.933 115.047L196.953 115.067L196.973 115.087L197.66 114.36ZM225.052 116.536H226.052V115.536H225.052V116.536ZM225.052 131V132H226.052V131H225.052ZM202.652 130C198.182 130 194.296 129.09 190.965 127.303L190.019 129.065C193.685 131.032 197.906 132 202.652 132V130ZM190.974 127.308C187.723 125.52 185.167 123.006 183.295 119.75L181.561 120.746C183.614 124.317 186.434 127.094 190.01 129.06L190.974 127.308ZM183.3 119.759C181.432 116.428 180.484 112.59 180.484 108.216H178.484C178.484 112.888 179.499 117.071 181.556 120.737L183.3 119.759ZM180.484 108.216V52.024H178.484V108.216H180.484ZM179.484 51.024H156.956V53.024H179.484V51.024ZM157.956 52.024V37.56H155.956V52.024H157.956ZM156.956 38.56H195.484V36.56H156.956V38.56ZM194.484 37.56V108.216H196.484V37.56H194.484ZM194.484 108.216C194.484 110.974 195.271 113.287 196.933 115.047L198.387 113.673C197.147 112.361 196.484 110.578 196.484 108.216H194.484ZM196.973 115.087C198.733 116.749 201.046 117.536 203.804 117.536V115.536C201.442 115.536 199.659 114.873 198.347 113.633L196.973 115.087ZM203.804 117.536H225.052V115.536H203.804V117.536ZM224.052 116.536V131H226.052V116.536H224.052ZM225.052 130H202.652V132H225.052V130Z" fill="#6587E4"/>
</g>
<defs>
<filter id="filter0_d_2_27" x="240.112" y="24.76" width="61.576" height="125.448" filterUnits="userSpaceOnUse" color-interpolation-filters="sRGB">
<feFlood flood-opacity="0" result="BackgroundImageFix"/>
<feColorMatrix in="SourceAlpha" type="matrix" values="0 0 0 0 0 0 0 0 0 0 0 0 0 0 0 0 0 0 127 0" result="hardAlpha"/>
<feOffset dx="5" dy="5"/>
<feComposite in2="hardAlpha" operator="out"/>
<feColorMatrix type="matrix" values="0 0 0 0 0.219608 0 0 0 0 0.333333 0 0 0 0 0.576471 0 0 0 1 0"/>
<feBlend mode="normal" in2="BackgroundImageFix" result="effect1_dropShadow_2_27"/>
<feBlend mode="normal" in="SourceGraphic" in2="effect1_dropShadow_2_27" result="shape"/>
</filter>
<filter id="filter1_d_2_27" x="457.112" y="24.76" width="61.576" height="125.448" filterUnits="userSpaceOnUse" color-interpolation-filters="sRGB">
<feFlood flood-opacity="0" result="BackgroundImageFix"/>
<feColorMatrix in="SourceAlpha" type="matrix" values="0 0 0 0 0 0 0 0 0 0 0 0 0 0 0 0 0 0 127 0" result="hardAlpha"/>
<feOffset dx="5" dy="5"/>
<feComposite in2="hardAlpha" operator="out"/>
<feColorMatrix type="matrix" values="0 0 0 0 0.219608 0 0 0 0 0.333333 0 0 0 0 0.576471 0 0 0 1 0"/>
<feBlend mode="normal" in2="BackgroundImageFix" result="effect1_dropShadow_2_27"/>
<feBlend mode="normal" in="SourceGraphic" in2="effect1_dropShadow_2_27" result="shape"/>
</filter>
<filter id="filter2_d_2_27" x="9.85602" y="37.56" width="220.196" height="99.72" filterUnits="userSpaceOnUse" color-interpolation-filters="sRGB">
<feFlood flood-opacity="0" result="BackgroundImageFix"/>
<feColorMatrix in="SourceAlpha" type="matrix" values="0 0 0 0 0 0 0 0 0 0 0 0 0 0 0 0 0 0 127 0" result="hardAlpha"/>
<feOffset dx="5" dy="5"/>
<feComposite in2="hardAlpha" operator="out"/>
<feColorMatrix type="matrix" values="0 0 0 0 0.219608 0 0 0 0 0.333333 0 0 0 0 0.576471 0 0 0 1 0"/>
<feBlend mode="normal" in2="BackgroundImageFix" result="effect1_dropShadow_2_27"/>
<feBlend mode="normal" in="SourceGraphic" in2="effect1_dropShadow_2_27" result="shape"/>
</filter>
</defs>
</svg>
